<svg xmlns="http://www.w3.org/2000/svg" xmlns:xlink="http://www.w3.org/1999/xlink" viewBox="0 0 322.47 512"><defs><style>.cls-1{fill:url(#Gradiente_sem_nome_8);}</style>
<linearGradient id="Gradiente_sem_nome_8" x1="-116.68" y1="539.79" x2="-6.34" y2="603.49" gradientTransform="matrix(4, 0, 0, -4, 407.29, 2542.56)" gradientUnits="userSpaceOnUse">
<stop offset="0" stop-color="#29bff8"/><stop offset="1" stop-color="#1e97f6"/></linearGradient></defs><g id="Camada_2" data-name="Camada 2"><g id="Camada_1-2" data-name="Camada 1">
<path class="cls-1" d="M287.47,0H35A35,35,0,0,0,0,35V477a35,35,0,0,0,35,35H287.47a35,35,0,0,0,35-35V35A35,35,0,0,0,287.47,0Zm21,477a21,21,0,0,1-21,21H35a21,21,0,0,1-21-21V35A21,21,0,0,1,35,14H287.47a21,21,0,0,1,21,21Zm-18-101v36.94a7,7,0,0,1-7,7H39a7,7,0,0,1-7-7V39a7,7,0,0,1,7-7h74.24a7,7,0,1,1,0,14H46V406H276.47V376a7,7,0,0,1,14,0Zm0-337v215.6a7,7,0,1,1-14,0V46H216.24V58.4a23,23,0,0,1-23,23h-54.5a7,7,0,0,1,0-14h54.5a9,9,0,0,0,9-9V39a7,7,0,0,1,7-7h74.23A7,7,0,0,1,290.47,39Zm0,263.51v25.6a7,7,0,0,1-14,0V302.5a7,7,0,0,1,14,0ZM188,437.94h-43.7a21,21,0,0,0,0,42.05H188a21,21,0,1,0,0-42.05ZM188,466h-43.7a7,7,0,0,1,0-14.05H188A7,7,0,1,1,188,466Z"/></g></g></svg>