<?xml version="1.0" encoding="utf-8"?>
<!-- Generator: Adobe Illustrator 25.2.3, SVG Export Plug-In . SVG Version: 6.00 Build 0)  -->
<svg version="1.1" xmlns="http://www.w3.org/2000/svg" xmlns:xlink="http://www.w3.org/1999/xlink" x="0px" y="0px"
	 viewBox="0 0 323.4 261.9" style="enable-background:new 0 0 323.4 261.9;" xml:space="preserve">
<style type="text/css">
	.st0{opacity:0.16;}
	.st1{opacity:0.37;fill:#196EAF;}
	.st2{fill:#7897CA;}
	.st3{fill:#F1989E;}
	.st4{fill:#E66971;}
	.st5{fill:#2E5372;}
	.st6{fill:none;stroke:#FFFFFF;stroke-width:0.39;stroke-miterlimit:10;}
	.st7{fill:#274E72;}
	.st8{fill:#D24D62;}
	.st9{fill:#EB5D79;}
	.st10{fill:none;stroke:#111528;stroke-width:0.39;stroke-miterlimit:10;}
	.st11{fill:#196EAF;}
	.st12{fill:#203A61;}
	.st13{fill:#195C84;}
	.st14{fill:#111528;}
	.st15{fill:#264473;}
	.st16{fill:#85B5E2;}
	.st17{fill:#FFFFFF;}
	.st18{fill:#849FCA;}
	.st19{fill:#0E1B2A;stroke:#0E1B2A;stroke-width:0.4;stroke-miterlimit:10;}
	.st20{fill:#F1A7A5;}
	.st21{fill:#0E1B2A;}
	.st22{fill:#F18884;}
	.st23{fill:#CE5671;}
	.st24{fill:#CF4E49;}
	.st25{fill:#EB588C;}
	.st26{fill:#F6B3AE;}
	.st27{fill:none;stroke:#FFFFFF;stroke-width:0.58;stroke-linecap:round;stroke-miterlimit:10;}
	.st28{opacity:0.5;fill:none;stroke:#FFFFFF;stroke-width:0.43;stroke-miterlimit:10;enable-background:new    ;}
	.st29{fill:#164E70;}
	.st30{fill:#ED6B98;}
	.st31{fill:#F194B3;}
	.st32{fill:#91BDE6;}
	.st33{fill:#7BA4D1;}
	.st34{fill:none;stroke:#91BDE6;stroke-width:4.07;stroke-miterlimit:10;}
	.st35{fill:#F29186;}
	.st36{fill:#10182A;}
	.st37{fill:#F29D9B;}
	.st38{fill:#EC5F5C;}
	.st39{fill:#F0817F;}
	.st40{fill:#010101;}
	.st41{fill:#7CA5CA;}
	.st42{fill:#F19C9C;}
	.st43{fill:#EC66A2;}
	.st44{fill:none;stroke:#FFFFFF;stroke-width:0.31;stroke-miterlimit:10;}
	.st45{opacity:0.21;fill:#010101;enable-background:new    ;}
	.st46{fill:#D24442;}
	.st47{fill:#EC6192;}
	.st48{fill:#B7CCEB;}
	.st49{opacity:0.6;fill:#49848F;enable-background:new    ;}
	.st50{fill:none;stroke:#1E424D;stroke-width:0.43;stroke-miterlimit:10;}
</style>
<g id="Camada_3" class="st0">
	<circle class="st1" cx="161.4" cy="133.5" r="118.8"/>
</g>
<g id="Camada_1">
	<g>
		<g id="Camada_2_1_">
			<g id="Camada_1-2">
				<ellipse class="st2" cx="226.5" cy="254" rx="51.2" ry="2.9"/>
				<polygon class="st3" points="181.5,245.8 183,242.7 192.4,243.1 192.6,245.8 188.2,253.4 180.3,247.3 				"/>
				<path class="st4" d="M187.2,243l0.4,7.2c1.9-1.1,3.6-2.4,5.3-3.9l-0.4-4.1L187.2,243z"/>
				<path class="st5" d="M180.9,245.7c2.2,0.1,4.3,1,5.9,2.4c1.9,1.4,4.8-1.5,5.6-2.3c0.2-0.1,0.4,0,0.4,0.3l1.1,10.1h-27.8
					c-0.4-0.1-0.6-0.4-0.6-0.8v-2.1c0-0.3,0.1-0.6,0.4-0.7L180.9,245.7z"/>
				<line class="st6" x1="179.4" y1="246.2" x2="183.8" y2="248.8"/>
				<line class="st6" x1="177.4" y1="247.2" x2="181.9" y2="249.8"/>
				<polygon class="st3" points="226.8,245.8 228.3,242.7 236.9,241.4 237.9,245.8 233.5,253.4 225.6,247.3 				"/>
				<path class="st4" d="M233.4,242.8l-0.8,6.8c1.9-1.1,3.6-2.4,5.3-3.9l-0.8-3.5L233.4,242.8z"/>
				<path class="st5" d="M226.2,245.7c2.2,0.1,4.3,1,5.9,2.4c1.9,1.4,4.8-1.5,5.6-2.3c0.2-0.1,0.4,0,0.4,0.3l1.1,10.1h-27.8
					c-0.4-0.1-0.6-0.4-0.6-0.8v-2.1c0-0.3,0.1-0.6,0.4-0.7L226.2,245.7z"/>
				<line class="st6" x1="224" y1="246.4" x2="228.5" y2="249"/>
				<line class="st6" x1="222.1" y1="247.4" x2="226.5" y2="250"/>
				<path class="st7" d="M194.7,21.2c0.4,0.6,0.9,1,1.5,1.3c1.3,0.5,2.9-0.6,4.4-1.7s4.1,0.7,4.6,1l3.3,10.6l-0.2,0.1l0.1,0.2l0,0
					l0.1,0.2l3.3-1.8v-0.1c2.4-7.9,2.3-9.7,1.1-13.2c-3-4.9-12.7-7.6-13.4-8.2c-1.6-1.3-3.8-1.5-5.6-0.5c-3.4,2-2.7,6.6-0.8,9.7
					C193.3,19.9,193.9,20.7,194.7,21.2z M198.2,10.4c-2.3-0.7-4.7,0.5-5.4,2.8c-0.1,0.2-0.1,0.3-0.1,0.5c0-1.4,0.6-2.6,1.8-3.3
					C195.6,9.6,197,9.7,198.2,10.4L198.2,10.4z M209.9,31.7l-0.7,0.4c0.4-0.4,0.9-0.7,1.4-0.9L209.9,31.7z"/>
				<path class="st8" d="M183.2,124.1c0,0-3.6,42.8-3.9,54.6s2,64.5,2,64.5l12,0.3c0,0,13.3-88.4,27.7-116.9L183.2,124.1z"/>
				<path class="st6" d="M201.2,126.4c0,0-10.2,49.4-10.2,57s-1.5,59.7-1.5,59.7"/>
				<line class="st6" x1="194.1" y1="237.7" x2="181.2" y2="237.7"/>
				<path class="st9" d="M185.7,124.2c0,0,5.7,35.6,14.1,60.8c6.8,20.4,24.6,59.1,24.6,59.1l13.9-0.1l-14.5-58.4
					c-0.8-3-1.3-6.2-1.5-9.3c-0.7-11.8,1.7-35.8,2.7-51.1L185.7,124.2z"/>
				<path class="st10" d="M212.1,124.8c0,0-3.9,46.2-0.4,53.4s20.6,65.7,20.6,65.7"/>
				<line class="st10" x1="236.7" y1="238.7" x2="222.3" y2="238.7"/>
				<line class="st10" x1="198.1" y1="124.4" x2="210.6" y2="140.7"/>
				<path class="st3" d="M203.2,56.8c0,0,0.5-3.8-3.1-4.4s-13.1-3.1-37.4,5.2c0,0-4.2-23.5-4.2-25.4c-0.1-5-1.7-11.4-5.5-14.8
					c-0.3-0.3-0.5,12.3-0.7,19c0,0-3.2,33.8,0.7,37.2S207.1,68.4,203.2,56.8z"/>
				<path class="st11" d="M172.4,54.2c0,0,36.8-9.2,36.4,1.5s-54,30.8-58.5,24.8c-7.1-9.5,0.7-42,0.7-42l8.8-3.9l2.6,22.1
					L172.4,54.2z"/>
				<path class="st12" d="M175,75.3c2.1,2.6,23-2.8,25.3-6.3c0,0,0.4-11.7-0.5-11.9C190.7,54.6,175,75.3,175,75.3z"/>
				<path class="st11" d="M215.5,49.8c0,0,18.7,1.9,19.9,17.4s-8.5,63.8-8.5,63.8l-46.8,0.8l2.6-60.9c0.2-3.9,1.4-7.7,3.5-11.1
					c2-3,4.2-6.5,5.5-6.7l19.6-5.3L215.5,49.8z"/>
				<path class="st13" d="M219.4,55.6c11.4-4.5,15.4,3.8,16,11.6c1.2,15.5-8.8,63.5-8.8,63.5l-46.3,1.3"/>
				<path class="st3" d="M209.6,35.8l2,12l-11.7,7.5l-1.6-4.7l0.8-8.7l8.7-7.9c0.6,0.4,1.1,0.8,1.5,1.3
					C209.5,35.5,209.5,35.7,209.6,35.8z"/>
				<path class="st14" d="M207.9,34l-8.7,8l-0.6,5.2c0,0,7.9-2.2,8.2-8.7"/>
				<path class="st15" d="M185.6,103.2l-10.4-32.7c-0.6-1.8-1.9-3.2-3.6-4l-21.3-9.2c-0.4-0.2-0.9,0.1-1,0.5c-0.1,0.2-0.1,0.4,0,0.5
					l10.5,32c0.5,1.7,1.8,3.1,3.4,3.9l21.4,10c0.4,0.2,0.9,0,1.1-0.4C185.7,103.6,185.7,103.4,185.6,103.2z"/>
				<path class="st16" d="M183.8,105.1l-10.4-32.7c-0.6-1.8-1.9-3.2-3.6-4l-21.3-9.2c-0.4-0.2-0.9,0.1-1,0.5c-0.1,0.2-0.1,0.4,0,0.5
					l10.5,32c0.5,1.7,1.8,3.1,3.4,3.9l21.4,10c0.4,0.2,0.9,0,1.1-0.4C183.9,105.5,183.9,105.3,183.8,105.1z"/>
				<polygon class="st14" points="178.5,81.2 170.6,83.5 180.6,87.5 				"/>
				<path class="st3" d="M170.6,86.9c1.1,1,25.2,27.5,37.5,30.8c3.6,0.9,6.2-2.2,8.1-5.4l12.4-24l-16.5-12.8
					c-0.1,0.2-8.7,14.8-10.7,22.2c-0.6,2.4-1.8,2.2-3.8,1l-15.1-9.3c0-1.2-0.1-2.4-0.3-3.6c-0.6-1.9-3.7-4.4-3.7-4.4l1.3,4
					c0.2,0.7,1,1.2-0.2,1.3l-9.6-7.1c0,0-0.9-0.1-0.1,0.9c0.6,0.6,1.2,1.3,1.6,2c-0.1,0.1-2.7-1.8-2.9-1.1s2.1,2.4,2,2.5
					s-2.5-2-2.7-1.3s1.7,1.9,1.8,2.2s-2-1.4-2.1-1S169.9,86.3,170.6,86.9z"/>
				<path class="st11" d="M216.4,62.4c0,0,4.7-13.2,13.8-7.7s0.9,31.7-2.7,38.2c-3,5.4-6.6,16.1-11.5,23.2
					c-3.4,4.9-13.2,4.3-17.5,0.2l-18.9-18l4.5-8.5l15.7,6.8L216.4,62.4z"/>
				<path class="st3" d="M208.7,31.1c0.1,0.2,0.3,0.3,0.5,0.2c0,0,0.1,0,0.1-0.1c0.7-0.7,2.1-1.7,2.6,1.1c0.7,3.8-3.2,3.1-3.6,3.6
					c-0.6,1-2.7,4.5-5.7,5.8c-2.2,1-4.8,0.7-6.6-1c-2-2-2.9-0.6-2.1-21.4c0.5,1,1.3,1.8,2.3,2.2c1.3,0.5,3.5-1.4,5-1.8
					c1.2-0.4,3.6-1.2,5.1,3C207,24.9,208.1,29.5,208.7,31.1z"/>
				<path class="st17" d="M194.1,34.4c0,0,1.2,0.6,4.2,0.3c0,0-1.6,2.2-2.8,1.8S194.1,34.4,194.1,34.4z"/>
				<path class="st4" d="M211.4,32.1l-2.1,1.6C209.3,33.7,210.1,29.9,211.4,32.1z"/>
				<path class="st14" d="M196.5,30c0,0.5,0.2,0.8,0.4,0.8s0.4-0.4,0.4-0.8s-0.2-0.8-0.4-0.8S196.5,29.6,196.5,30z"/>
				<path class="st14" d="M193.9,29.6c0,0.5,0.2,0.8,0.4,0.8s0.4-0.4,0.4-0.8s-0.2-0.8-0.4-0.8S193.9,29.2,193.9,29.6z"/>
				<path class="st14" d="M199.9,26.5c0.6,0.4-0.3-1.5-1.1-1.7c-0.7-0.2-1.5,0.2-1.8,0.9c0,0,0,0,0,0C198,25.6,199,25.9,199.9,26.5z
					"/>
				<path class="st14" d="M193.8,26.3c0.5-0.1,1-0.1,1.5,0c-0.1-0.7-0.8-1.2-1.5-1.2"/>
				<path class="st4" d="M195.1,29.6l-1.2,3.5c0,0.1,0,0.1,0.1,0.1l1.4,0.1c0,0,0.1,0,0.1-0.1c0,0,0,0,0,0l-0.2-3.6
					C195.3,29.6,195.3,29.5,195.1,29.6C195.2,29.5,195.1,29.6,195.1,29.6L195.1,29.6z"/>
				<polygon class="st17" points="210.9,44.2 199.5,52.7 199.8,62 214.6,48.8 				"/>
				<polygon class="st17" points="198.2,46.3 199.4,53.1 197.2,60.4 194.5,51.9 				"/>
				<ellipse class="st18" cx="66.2" cy="255.6" rx="51.2" ry="2.9"/>
				<path class="st19" d="M97.1,67.3L112.8,44c0.8-1.2,0.3-5.4-0.4-6.7c-1.8-3.4-4.9-5.9-8.6-7c-15.8-4-76.9,14-76.9,14
					s10.6,47.9,59.5,45.2"/>
				<path class="st20" d="M98.2,42.6c-0.1,0.2-0.2,0.2-0.4,0.2c0,0,0,0,0,0c-1-0.8-2.5-0.7-3.3,0.3c0,0.1-0.1,0.1-0.1,0.2
					c-1.2,1.7,1,3.5,1.9,4.2c0.3,0.2,0.5,0.5,0.5,0.8c0.2,1,0.6,4.9,0.8,8.4c0.2,3-2.1,9.5-2.1,9.5s10.7,4.2,11.9,0.6
					c0,0-2.6-9.8-1.7-12.2c0,0,4.6,1.1,6.9-6.8c2.2-7.4-3.1-10-4.3-10.5C107.3,36.7,102.4,34.2,98.2,42.6z"/>
				<path class="st19" d="M112,37.7c0,0-8,9.5-14.2,4.8C97.8,42.5,102.1,31.2,112,37.7z"/>
				<path class="st21" d="M110.2,38c-2,2-4.3,3.9-6.7,5.5c-0.9,0.6-2.2,1.5-3.4,1.2c-0.7-0.2-0.6-0.9-0.5-1.5
					c0.1-0.8,0.2-1.6,0.3-2.4c0.2-0.8-1-1.1-1.2-0.3c-0.2,0.9-0.3,1.8-0.4,2.8c-0.1,0.7,0.1,1.4,0.5,2c1,1,2.7,0.5,3.8,0
					c1.5-0.8,2.9-1.8,4.2-2.9c1.4-1.1,2.8-2.3,4.1-3.5C111.6,38.3,110.7,37.5,110.2,38L110.2,38z"/>
				<path class="st22" d="M105.1,45.7c1,0.5,1.3,1.8,0.8,2.7c-0.5,1-1.8,1.3-2.7,0.8s-1.3-1.8-0.8-2.7c0,0,0,0,0,0
					C102.9,45.5,104.1,45.2,105.1,45.7z"/>
				<path class="st17" d="M111.1,49.6l-4.2-1c0,0,0.6,2.3,1.8,2.3S111.1,49.6,111.1,49.6z"/>
				<path class="st23" d="M110.1,46.5l-0.7,2.1l1.1,0.2c0.2,0,0.3-0.1,0.3-0.2c0,0,0-0.1,0-0.1L110.1,46.5z"/>
				<path class="st21" d="M107.5,42.8c-0.4,0.2,0.4-0.9,1-0.9c0.5,0,0.9,0.3,1,0.8C108.8,42.5,108.1,42.5,107.5,42.8z"/>
				<path class="st21" d="M113.1,43.2c-0.5-0.2-1-0.1-1.3,0.4c0.5,0,0.9,0.2,1.3,0.5"/>
				<path class="st21" d="M108.3,45.8c-0.1,0.4,0,0.7,0.2,0.8s0.4-0.2,0.5-0.6s0-0.7-0.2-0.8S108.3,45.4,108.3,45.8z"/>
				<path class="st21" d="M110.9,46.2c-0.1,0.4,0,0.7,0.2,0.7s0.4-0.2,0.4-0.6s0-0.7-0.2-0.7S111,45.9,110.9,46.2z"/>
				<path class="st24" d="M95.1,44.3c0,0,1.1-2.5,2.5,0.9"/>
				<path class="st17" d="M96.5,46.8c0,0-4.9,3.7-0.3,7.9c0.2,0.2,0.5,0.2,0.7,0C97.8,53.7,100.2,50.5,96.5,46.8z"/>
				<polygon class="st25" points="94,46.4 96.4,49.9 98.7,46.3 				"/>
				<path class="st21" d="M105.9,54.4c-0.8-0.1-1.5-0.2-2.3-0.4c-0.6-0.2-1.2-0.4-1.7-0.7c-0.2-0.1-0.4,0-0.5,0.1
					c-0.1,0.1-0.1,0.3,0,0.4c0,0,3.6,5.7,4.2,4.4C106.2,57.4,105.2,55.2,105.9,54.4z"/>
				<path class="st26" d="M97.8,236.1L94.3,249c0,0,2.1,7.7,4.1,4.7c1.1-1.7,2.4-3.2,3.9-4.6l4.1-13.2L97.8,236.1z"/>
				<path class="st5" d="M103.2,249.1l11.9,6.8c0.5,0.3,0.2,0.9-0.4,0.9c-5.5,0-20.3-0.2-24.2-0.2c-0.5,0-0.8-0.4-0.7-0.7
					c0.8-1.9,3.6-8.8,4-8.9c0,0,2.8,4.5,4.4,4.1c1.4-0.5,2.7-1.1,3.9-2C102.4,248.8,102.9,248.8,103.2,249.1z"/>
				<line class="st27" x1="105.6" y1="249.9" x2="103.6" y2="251.7"/>
				<line class="st27" x1="106.9" y1="250.9" x2="104.9" y2="252.8"/>
				<path class="st26" d="M47.1,228.3l-4.8,11.9c0,0-1.6,7.8,1.5,6c1.7-1,3.6-1.8,5.5-2.3l6.8-11.3L47.1,228.3z"/>
				<path class="st5" d="M50.1,244.3l7.6,11.4c0.3,0.5-0.2,0.9-0.8,0.6c-4.9-2.5-18-9.3-21.5-11.1c-0.4-0.2-0.6-0.7-0.3-0.9
					c1.6-1.3,7.2-6.2,7.5-6.1c0,0,0.5,5.3,2.1,5.6c1.4,0.2,2.9,0.2,4.4,0C49.5,243.7,50,243.9,50.1,244.3z"/>
				<line class="st27" x1="51.9" y1="246.1" x2="49.3" y2="246.8"/>
				<line class="st27" x1="52.7" y1="247.6" x2="50" y2="248.4"/>
				<line class="st28" x1="65.5" y1="232.8" x2="44.2" y2="219.4"/>
				<line class="st28" x1="112.6" y1="231.8" x2="85.8" y2="231.7"/>
				<path class="st11" d="M85.4,102.2c-3.6,7.7-5,10.4-7.3,19.7c-2.6,10.8-5.5,33.5-8.2,45.8c-3.3,15.3-18.2,50.3-26.3,65
					c0.6,0.9,4.8,4,8.7,6.5C64.7,224,83.7,192.4,90,173.5c4.7-14,5.4-22.2,7-30.3c0.1-0.8,0.7-1.3,1.5-1.2c0.7,0.1,1.2,0.6,1.2,1.2
					c0.6,6.6-0.1,15.2-1,32.9c-1,20.2-5.8,54.1-5.1,66.9c2.1,0,8.5,0.3,11.5,0.3c4.6-22.2,14.2-62.7,14.9-69.4
					c2.6-26.3,6.5-45.3-9.5-70.8C100.8,103.2,93.3,102.4,85.4,102.2z"/>
				<path class="st29" d="M86.3,102.2l32.1,18.6c-2.1-6.7-5.1-13.2-8.8-19.2L86.3,102.2z"/>
				<path class="st17" d="M107.1,65.2c0,0.1,2.7,2.6,2.9,3.1c1,3.3,3.1,6.1,4.1,12.9c1.5,10.3-0.8,15.7-4.3,20.9l-24.1,0.3
					c0,0-5-32.1-1.6-38.3c0,0,10.9-2,12.8-1.8C96.9,62.2,107.1,70.3,107.1,65.2z"/>
				<path class="st30" d="M106.4,93l6.3,53.6l13.9,1.9l-11.3-56.7c0.4-2.8,0.4-5.7,0-8.6c-1.7-14.2-6.2-16.9-6.5-17.1
					S106.4,93,106.4,93z"/>
				<polygon class="st31" points="106.8,62.2 106.4,93 111,71.5 108.8,69.8 110.9,68 				"/>
				<path class="st30" d="M104.2,93c-0.1-0.3-0.7,53.6-0.7,53.6s-24.7,2.4-31.4-7.4c0,0,9.3-36.4,11-39.8s-0.8-23-0.8-23l10-14
					L104.2,93z"/>
				<path class="st31" d="M97,58.9c0,0,4.1,16.9,7,34.3L93,73.5l2.2-2.2l-4.5-8.7L97,58.9z"/>
				
					<rect x="15.9" y="123.4" transform="matrix(0.6088 -0.7934 0.7934 0.6088 -107.5937 89.3586)" class="st32" width="41.9" height="60.7"/>
				
					<rect x="21.3" y="134.5" transform="matrix(0.6088 -0.7934 0.7934 0.6088 -119.7012 86.9474)" class="st33" width="13.9" height="60.7"/>
				<path class="st34" d="M44.1,150.2l-6.8-5.2c-2.9-2.2-3.4-6.3-1.2-9.1l5.2-6.8c2.2-2.9,6.3-3.4,9.1-1.2l6.8,5.2
					c2.9,2.2,3.4,6.3,1.2,9.1l-5.2,6.8C51,151.8,46.9,152.4,44.1,150.2z"/>
				<path class="st17" d="M17.4,151.6l-1.9-1.4c-0.4-0.3-0.4-0.8-0.1-1.1l2.5-3.3c0.3-0.4,0.8-0.4,1.1-0.1l1.9,1.4
					c0.4,0.3,0.4,0.8,0.1,1.1l-2.5,3.3C18.3,151.8,17.8,151.9,17.4,151.6z"/>
				<path class="st17" d="M44.1,172.1l-1.9-1.4c-0.4-0.3-0.4-0.8-0.1-1.1l2.5-3.3c0.3-0.4,0.8-0.4,1.1-0.1l1.9,1.4
					c0.4,0.3,0.4,0.8,0.1,1.1l-2.5,3.3C44.9,172.3,44.4,172.3,44.1,172.1z"/>
				<path class="st26" d="M46.3,127.6c2.6-4.3,30.8-53.5,30.8-53.5l8.1,9c-1.8,6.7-26,44.5-26.9,45.3c0,1.6-0.1,3.1-0.3,4.7
					c-0.2-0.2-3.1-3.3-3.3-3.2s-4.5,5.9-5.2,5.3s1.7-4,1.3-4.3s-2.3,3.7-3.1,3.4s1.3-4.3,1-4.4s-1.9,3.8-2.5,3.5s1.3-4.3,1.2-4.6
					s-1.7,3.6-2.5,3.5C44.3,132.4,45.7,128.7,46.3,127.6z"/>
				<polygon class="st35" points="65.7,116.9 76.1,78.9 81.8,90.4 				"/>
				<path class="st30" d="M90.8,62.5c-0.9-1-7.4-0.4-11.1,3.9s-25.9,47.2-25.9,47.2L65,120c0,0,26.1-38.4,28-44.3
					C94.5,70.8,93.3,65.3,90.8,62.5z"/>
				<path class="st25" d="M50.3,116.5l11.5,6.6c0.5,0.3,1.2,0.1,1.5-0.4c0,0,0,0,0,0l0,0c0.3-0.5,0.1-1.2-0.4-1.5l-11.5-6.6
					c-0.5-0.3-1.2-0.1-1.5,0.4c0,0,0,0,0,0l0,0C49.6,115.5,49.7,116.2,50.3,116.5C50.3,116.5,50.3,116.5,50.3,116.5z"/>
				<path class="st26" d="M138.3,63.2c2.2-8.7,4.9-18.9,5-26c0.1-6,0.9-15.3,0.3-17c-0.2-0.5-5.2,3.9-5.9,7.5
					c-0.4,2.5-0.5,5.1-0.4,7.7c0,0-6.7,17-9.4,22c-2.2,4.1-5.8,7.3-10.2,9.1c-5.3,2.2,0.7,0.4,0.7,0.4l6.4,10.7
					C124.7,77.6,135.5,74.1,138.3,63.2z"/>
				<path class="st35" d="M138.6,61.4c-2,14.5-15.7,17.3-15.7,17.3l-1.6-3.4C121.3,75.3,128.2,75.1,138.6,61.4z"/>
				<path class="st25" d="M110.5,67c0,0,9-0.3,14.3-7.3c5.3-7,9.7-20.1,9.7-20.1l9.6,3.2c0,0-1.3,40.3-29.8,39.6L110.5,67z"/>
				<path class="st30" d="M149.4,1.3v5.9c-0.1,0.7,0.5,1.3,1.2,1.4s1.3-0.5,1.4-1.2c0-0.1,0-0.2,0-0.2V1.3c0.1-0.7-0.5-1.3-1.2-1.4
					s-1.3,0.5-1.4,1.2C149.4,1.1,149.4,1.2,149.4,1.3z"/>
				<path class="st30" d="M161.6,6l-4.6,4.5c-0.5,0.5-0.5,1.3,0,1.8c0.5,0.5,1.3,0.5,1.8,0l4.5-4.5c0.5-0.5,0.5-1.3,0-1.8
					S162,5.5,161.6,6L161.6,6L161.6,6z"/>
				<path class="st30" d="M143.4,9.9l-5.3-4.5c-0.5-0.5-1.3-0.5-1.8-0.1s-0.5,1.3-0.1,1.8c0,0,0,0,0.1,0.1l5.3,4.5
					c0.5,0.5,1.3,0.5,1.8,0C143.9,11.2,143.9,10.4,143.4,9.9L143.4,9.9z"/>
				<path class="st36" d="M249,42.7c-0.3-1.6,2.2-5.7,3.6-6.6c3.8-2.4,8.4-3.4,12.9-2.8c0,0,18.8,11.6-3.1,23.6l0,0"/>
				<path class="st36" d="M275.2,63.9c0,0,8-36-2.2-34.8s-7.1,6.8-7.1,6.8l4,0.9l3.7,28.6L275.2,63.9z"/>
				<path class="st37" d="M264.9,46.6c0,0.2,0.2,0.4,0.4,0.4c0,0,0,0,0,0c0.9-0.1,3-0.5,3.5,1.9s-1.6,3.9-3,4.1
					c-0.4,0.1-1.3,0.2-1.5,0.5c-0.7,1-1,2.9-1.4,5.4c-0.6,3,0.8,6.1,3.5,7.6c0,0-13.4,8.1-13.9,1.2c0,0,0-12.8-0.1-12.8
					c-1.2-1-5.5-1.1-3.6-10.4c1.7-8.6,7.9-8.5,9.5-8.4C259.6,36.1,264.2,36,264.9,46.6z"/>
				<path class="st36" d="M253.9,35.5c0,0,9.6,10.6,11.2,11.4C265.1,46.9,269.7,32.5,253.9,35.5z"/>
				<path class="st38" d="M267.8,49.6c0,0-1.7-2.8-3.1,1.3"/>
				<path class="st39" d="M257.1,47.3c-1.2,0.1-2,1.1-2,2.2s1.1,2,2.2,2c1.2-0.1,2-1.1,2-2.2C259.3,48.2,258.3,47.3,257.1,47.3
					C257.1,47.3,257.1,47.3,257.1,47.3z"/>
				<path class="st39" d="M248.4,48.9c1.1-0.3,1.8-1.5,1.5-2.6c-0.2-0.6-0.6-1.1-1.1-1.3C248.4,46.2,248.3,47.6,248.4,48.9z"/>
				<path class="st17" d="M250.1,47.6l3.4,1.4c0,0-1.5,1.3-2.4,0.7C250.4,49.2,250.1,48.4,250.1,47.6z"/>
				<path class="st38" d="M252.3,45.1l-0.3,2.3l-1.2-0.4c-0.2-0.1-0.2-0.2-0.2-0.4c0,0,0-0.1,0.1-0.1L252.3,45.1z"/>
				<path class="st40" d="M256.4,43.9c0.3,0.4,0-1-0.4-1.2c-0.4-0.3-1-0.2-1.3,0.3C255.3,43,255.9,43.4,256.4,43.9z"/>
				<path class="st40" d="M250.1,42.1c-0.4,0.2,0.4-0.9,1-0.9c0.5,0,1,0.3,1,0.8C251.4,41.9,250.7,41.9,250.1,42.1z"/>
				<path class="st40" d="M254.6,45.7c-0.1,0.4-0.4,0.7-0.6,0.6s-0.2-0.4-0.1-0.8s0.4-0.7,0.6-0.6S254.8,45.3,254.6,45.7z"/>
				<path class="st40" d="M251.6,44.6c-0.1,0.4-0.4,0.6-0.5,0.6s-0.2-0.4-0.1-0.8s0.4-0.6,0.5-0.6S251.7,44.2,251.6,44.6z"/>
				<path class="st40" d="M252.4,54.8c2,0.2,4.1,0.2,6.1,0.1C260.5,54.5,251.4,67,252.4,54.8z"/>
				<ellipse class="st41" cx="281.5" cy="257.9" rx="41.9" ry="2.4"/>
				<path class="st42" d="M255.4,240.1l-1.5,10.4c0,0-2.3,6.9-4.5,4.2c-1.2-1.6-2.7-2.9-4.3-4.1l-0.7-10.8L255.4,240.1z"/>
				<path class="st39" d="M249.7,240.5l-0.4,14.1c0,0,6.9,1,4.3-3.6l1.5-9.8L249.7,240.5z"/>
				<path class="st42" d="M290,239.3l3.2,10.4c0,0,2.5,2.1,3.3,2.1c1.6-0.1,2.5-2.9,2.5-2.9l0.3-9.6H290z"/>
				<path class="st39" d="M294.7,236.5l2.3,17.1c0,0,4.6,1.2,2.1-3.4l0.6-13.2L294.7,236.5z"/>
				<path class="st43" d="M244.3,250.6l-8.7,7c-0.4,0.3-0.1,0.9,0.5,0.9l12.8,0.1c0.3,0,0.5-0.1,0.7-0.4l1-2c0.3-0.6,0.8-0.6,0.8,0
					l0.5,1.9c0,0.3,3,0.2,3.1,0c0.1-2.9-0.1-5.9-0.5-8.8c-0.1-0.3-0.3-0.4-0.6-0.4l0,0c-0.3,0-0.5,0-0.7,0.2
					c-0.9,0.8-3.6,3.4-5.1,2.9c-0.9-0.3-1.8-0.7-2.7-1.3C245.1,250.3,244.7,250.3,244.3,250.6z"/>
				<path class="st43" d="M299.2,248.5l4.9,8.3c0.5,0.7,0.3,1.7-0.5,2.2c-0.1,0-0.1,0.1-0.2,0.1c-1.5,0.9-2.8,2.8-3.8,2.8
					c-1.8,0-4.5-1.8-6.1-2.5c-1.1-0.5-1.9-1.1-1.8-2l1.2-8.4c0-0.1,0.2-0.1,0.3-0.1l1.9,1.7c0.8,0.6,2,0.5,2.7-0.2c0.3-0.5,1-2,1-2
					C299,248.4,299.1,248.4,299.2,248.5C299.2,248.5,299.2,248.5,299.2,248.5z"/>
				<path class="st11" d="M273,103c3.8,6.6,6.7,13.7,8.4,21.1c2.6,10.4,31.4,98.2,32.6,117c-3.3,0.8-25,0.7-27.1,0.6
					c-6.6-18.8-23.2-80-26-91.9c-0.4-1.8-3.2-1.4-3,0.4c1.6,13.6,10.2,70.6,14.5,91.5c-1.7,0.9-26.6,0.7-28.6,0.4
					c-2.2-23.2-13.6-111.2,3.6-139.7C255.4,101.4,265,102.8,273,103z"/>
				<path class="st44" d="M248.5,105.6c0,0-7,17.4-7,42s8.1,86.8,8.1,86.8"/>
				<line class="st44" x1="297.2" y1="234.3" x2="269.1" y2="104.8"/>
				<path class="st44" d="M264.2,105.4c0,0,0.2,22.5,10.3,20.7"/>
				<path class="st45" d="M247.6,106l32.5,24.5c0,0,1.4-13.2-4.4-24L247.6,106z"/>
				<path class="st44" d="M243.2,127.2c10.1,1.8,8.5-20.6,8.5-20.6"/>
				<line class="st44" x1="270.9" y1="234.4" x2="242.9" y2="234.4"/>
				<line class="st44" x1="313.1" y1="234.1" x2="284.1" y2="234.4"/>
				<path class="st46" d="M282.7,145.2c0-0.2,0.2-2,0.2-2l-0.8,2.6L282.7,145.2z"/>
				<path class="st46" d="M277.5,147.8l-0.6,0.5c0,0,0.6,1.1,0.9,1C277.5,148.9,277.4,148.3,277.5,147.8z"/>
				<path class="st37" d="M254.7,91.9c0.8-1.6,1.6-3.3,2.4-5.2l-7.7-6.4c0.1-1.9,0.2-3.6,0.2-4.7c0-0.7-0.4-1.3-0.5-1.3
					c-1.8,0.9-7.4,18.2-8.5,20.7c-0.4,0.8-1.5,0.7-2.1,0.2l-18.8-16.5c-3.7-2.3-7-5.1-9.8-8.4c-1.5,2.7,1.3,7.9,2.8,10.1
					c0,0,19.8,27.6,29.1,28.9c0,0,10.4-2.9,12.3-16l1.4,0.4C256.8,91.8,256.1,91.6,254.7,91.9z"/>
				<path class="st37" d="M219.5,78.7c0,0-4.8-7-5.6-7.2s1.8,4.6,1,4.7C216.4,77.2,217.9,78,219.5,78.7z"/>
				<path class="st47" d="M252.3,65.6c0,0-7.2-1-9.3,3.3s-6.8,23.5-6.8,23.5l-13-12.4l-5,9.2c0,0,18.5,23.4,23.8,21.7
					S252.3,71.5,252.3,65.6z"/>
				<path class="st47" d="M249.5,66.3c0.2,0.6-6.6,16.7-6.3,22.2s4,14.8,3.7,15.6c0,0,4.3,3.4,27.8-0.3c7.2-6.3,0.9-27.9-1.6-34.7
					c0,0-4.6-2.3-6.6-2.5C261,68.1,255.1,68,249.5,66.3z"/>
				<path class="st17" d="M306.8,140.8l-58.1,1.1c-1.3,0-2.3-1.1-2.2-2.3l-0.6-39c-0.1-1.3,0.9-2.4,2.1-2.5c0,0,0,0,0,0l58.1-1.1
					c1.3,0,2.3,1.1,2.2,2.3c0,0,0,0,0,0l0.6,39C309,139.6,308,140.7,306.8,140.8z"/>
				<path class="st48" d="M286.8,117.7L275.9,129c-5.9-6.5-5.9-16.4,0.2-22.8c5.6-5.9,15-6.2,21-0.6c0.3,0.2,0.5,0.5,0.7,0.7
					c5.9,6.4,5.9,16.4-0.2,22.8L286.8,117.7z"/>
				<path class="st11" d="M297.8,132.5c-5.6,5.9-15,6.2-21,0.6c-0.3-0.2-0.5-0.5-0.7-0.7l10.9-11.3L297.8,132.5z"/>
				<path class="st47" d="M276.4,102.1h-15.9c-0.6,0-1.1-0.5-1.1-1.1V101c0-0.6,0.5-1.1,1.1-1.1h15.9c0.6,0,1.1,0.5,1.1,1.1v0.1
					C277.5,101.6,277,102.1,276.4,102.1z"/>
				<path class="st47" d="M261.4,137.3h11.5c0.5,0,0.9,0.4,0.9,0.9v0c0,0.5-0.4,0.9-0.9,0.9h-11.5c-0.5,0-0.9-0.4-0.9-0.9v0
					C260.5,137.7,260.9,137.3,261.4,137.3z"/>
				<path class="st49" d="M280.2,117.7c0,0,4.9,2.3,1.1,16.2c-0.2,0.7-0.3,1.5-0.2,2.3l0.9,6c0.1,0.6,0.2,1.5-0.3,1.9s-4.6,4-5,4.2
					c-1,0.3,0.1-4.4-0.1-6.9c-0.1,0.8-0.2,1.6-0.2,2.5l-0.1,2c-1.2-0.5-1.1-2.8-1.3-3.5c-0.2-0.6-0.2-1.3,0.1-1.9
					c0.9-1.6,1.4-3.4,1.7-5.2c0.1-1.2-0.7-5.5-1.4-13.5L280.2,117.7z"/>
				<path class="st37" d="M280.9,83.8c9.1,50.8,3.2,60.5,2.6,60.9s-5,4.4-5.5,4.6c-1,0.4,0.1-4.8-0.1-7.6c-0.1,0.9-0.2,1.8-0.2,2.7
					l-0.1,2.1c-1.3-0.6-1.2-3-1.4-3.9c-0.2-0.7-0.2-1.4,0.1-2.1c0.9-1.8,1.6-3.7,1.9-5.8c0.1-1.3-8.5-42.6-10-48.6
					c-2.1-8.2,0.5-17.7,3.4-18C275,67.8,280.1,79.6,280.9,83.8z"/>
				<path class="st47" d="M287.2,131.9c-0.4-1.6,1.6-31.2-5-50.6c-3-8.7-7.2-13.5-10.8-13.1c-2.9,0.3-5.5,9.8-3.4,18
					c1.5,6.1,4.7,33.1,7.4,47L287.2,131.9z"/>
				<path class="st50" d="M252.6,44.8c-0.4,2.3,0.4,4.3,1.9,4.6s3-1.3,3.5-3.6s-0.5-4.3-2-4.6S253,42.5,252.6,44.8z"/>
				<path class="st50" d="M247.2,43.2c-0.4,2,0.4,3.9,1.8,4.2s2.8-1.2,3.1-3.3s-0.4-3.9-1.8-4.2S247.6,41.2,247.2,43.2z"/>
				<line class="st50" x1="252.2" y1="45.6" x2="251.7" y2="45.5"/>
				<line class="st50" x1="257.7" y1="47" x2="266.8" y2="46.7"/>
			</g>
		</g>
	</g>
</g>
</svg>
