<?xml version="1.0" encoding="utf-8"?>
<!-- Generator: Adobe Illustrator 25.2.3, SVG Export Plug-In . SVG Version: 6.00 Build 0)  -->
<svg version="1.1" id="Camada_1" xmlns="http://www.w3.org/2000/svg" xmlns:xlink="http://www.w3.org/1999/xlink" x="0px" y="0px"
	 viewBox="0 0 648.3 394.5" style="enable-background:new 0 0 648.3 394.5;" xml:space="preserve">
<style type="text/css">
	.st0{fill:#FFC557;}
	.st1{fill:none;stroke:#FFC557;stroke-miterlimit:10;}
	.st2{fill:none;stroke:#648AC9;stroke-width:0.81;stroke-miterlimit:10;}
	.st3{fill:none;stroke:#95C4D8;stroke-miterlimit:10;}
	.st4{fill:none;stroke:#95B1DB;stroke-width:2;stroke-miterlimit:10;}
	.st5{fill:#839DC9;}
	.st6{fill:#B5CFE2;}
	.st7{opacity:0.65;fill:#85A8C6;enable-background:new    ;}
	.st8{fill:#EBF0F7;}
	.st9{fill:#CBD9EC;}
	.st10{clip-path:url(#SVGID_2_);}
	.st11{fill:#F38C84;}
	.st12{fill:#FF768F;}
	.st13{opacity:0.2;fill:#FF768F;enable-background:new    ;}
	.st14{fill:none;}
	.st15{fill:#05093D;}
	.st16{fill:#F38C84;stroke:#F38C84;stroke-width:1.13;stroke-miterlimit:10;}
	.st17{fill:#CA5C3B;}
	.st18{fill:#FFFFFF;}
	.st19{fill:#3A5F84;}
	.st20{fill:none;stroke:#FFFFFF;stroke-width:3;stroke-miterlimit:10;}
	.st21{fill:none;stroke:#FFFFFF;stroke-miterlimit:10;}
	.st22{clip-path:url(#SVGID_4_);}
	.st23{fill:#FBB78B;stroke:#FBB78B;stroke-width:1.2;stroke-linecap:round;stroke-linejoin:round;}
	.st24{fill:#FBB78B;stroke:#FBB78B;stroke-width:1.17;stroke-miterlimit:10;}
	.st25{fill:#E6795C;stroke:#E6795C;stroke-width:1.16;stroke-miterlimit:10;}
	.st26{fill:#EB8383;}
	.st27{fill:#FCCC4F;}
	.st28{clip-path:url(#SVGID_6_);}
	.st29{fill:#FCFCFC;}
	.st30{clip-path:url(#SVGID_8_);}
	.st31{fill:#A34E65;}
	.st32{fill:#FFBBAA;stroke:#FFBBAA;stroke-width:1.21;stroke-linecap:round;stroke-linejoin:round;}
	.st33{fill:#FFBBAA;stroke:#FFBBAA;stroke-width:1.18;stroke-miterlimit:10;}
	.st34{fill:#F08992;stroke:#F08992;stroke-width:1.17;stroke-linecap:round;stroke-linejoin:round;}
	.st35{fill:#FFBBAA;stroke:#FFBBAA;stroke-width:1.16;stroke-miterlimit:10;}
	.st36{fill:#F08992;}
	.st37{fill:#CEDDF4;}
	.st38{fill:#020F2B;}
	.st39{fill:#F1ABA5;}
	.st40{fill:#EC7165;}
	.st41{fill:#F79288;}
	.st42{fill:#F1A9A5;}
	.st43{fill:#FF6E95;}
	.st44{fill:#196EAF;}
	.st45{fill:none;stroke:#FFFFFF;stroke-width:0.4;stroke-miterlimit:10;}
	.st46{opacity:0.21;enable-background:new    ;}
	.st47{fill:#C20034;}
	.st48{fill:#D15449;}
	.st49{fill:#FF6B82;}
	.st50{fill:#FFEBF1;}
	.st51{opacity:0.6;fill:#4E7A8F;enable-background:new    ;}
	.st52{fill:#FAFAFA;}
	.st53{fill:#83A8C6;}
	.st54{fill:#F0A5A9;}
	.st55{fill:#E6777D;}
	.st56{fill:#2E5372;}
	.st57{fill:none;stroke:#FFFFFF;stroke-width:0.48;stroke-miterlimit:10;}
	.st58{fill:#D15868;}
	.st59{fill:none;stroke:#020F2B;stroke-width:0.48;stroke-miterlimit:10;}
	.st60{fill:#0B3347;stroke:#020F2B;stroke-width:0.51;stroke-miterlimit:10;}
	.st61{fill:#206189;}
	.st62{fill:#2D4773;}
	.st63{fill:none;stroke:#1D254A;stroke-width:0.51;stroke-miterlimit:10;}
	.st64{fill:none;stroke:#1D254A;stroke-width:0.33;stroke-miterlimit:10;}
	.st65{fill:none;stroke:#1D254A;stroke-width:0.34;stroke-miterlimit:10;}
	.st66{fill:#DAE5F7;}
	.st67{fill:#FFFFFF;stroke:#FFFFFF;stroke-width:0.16;stroke-miterlimit:10;}
	.st68{fill:#D8CFCE;}
	.st69{opacity:0.37;fill:#839DC9;enable-background:new    ;}
	.st70{fill:none;stroke:#7289B5;stroke-width:1.03;stroke-miterlimit:10;}
	.st71{fill:#7289B5;}
	.st72{fill:#1B1A4D;stroke:#1B1A4D;stroke-width:0.77;stroke-linecap:round;stroke-linejoin:round;}
	.st73{opacity:0.74;fill:#FFFFFF;enable-background:new    ;}
	.st74{fill:none;stroke:#FFD375;stroke-width:2.78;stroke-miterlimit:10;}
	.st75{fill:none;stroke:#FFD375;stroke-width:3.74;stroke-linecap:round;stroke-miterlimit:10;}
	.st76{fill:#B3D3F4;}
	.st77{fill:none;stroke:#FFFFFF;stroke-width:0.7;stroke-miterlimit:10;}
	.st78{fill:none;stroke:#FFFFFF;stroke-width:0.7;stroke-linecap:round;stroke-miterlimit:10;}
	.st79{opacity:0.57;}
	.st80{clip-path:url(#SVGID_10_);}
	.st81{fill:#FFFFFF;stroke:#FFFFFF;stroke-width:0.66;stroke-miterlimit:10;}
</style>
<g>
	<g id="Camada_2_1_">
		<g id="OBJECTS">
			<path class="st0" d="M423.9,6c0,3.3-2.7,6-6,6s-6-2.7-6-6s2.7-6,6-6S423.9,2.7,423.9,6z"/>
			<circle class="st1" cx="446.3" cy="34.4" r="4.5"/>
			<path class="st2" d="M555.2,104.2c0,1.3-1,2.3-2.3,2.3s-2.3-1-2.3-2.3s1-2.3,2.3-2.3l0,0C554.2,101.9,555.2,102.9,555.2,104.2z"
				/>
			<circle class="st0" cx="22.7" cy="261.5" r="8.3"/>
			<circle class="st0" cx="67.2" cy="17.5" r="4.5"/>
			<circle class="st0" cx="575.5" cy="210.5" r="4"/>
			<line class="st3" x1="12.9" y1="326.2" x2="648.3" y2="326.2"/>
			<circle class="st4" cx="50.8" cy="103.2" r="3.5"/>
			<path class="st5" d="M612.4,256.4c0,2.2-1.8,4-4,4s-4-1.8-4-4s1.8-4,4-4S612.4,254.2,612.4,256.4z"/>
			<path class="st5" d="M631.5,174.7c0,1.2-0.9,2.1-2.1,2.1c-1.2,0-2.1-0.9-2.1-2.1c0-1.2,0.9-2.1,2.1-2.1c0,0,0,0,0,0
				C630.5,172.6,631.5,173.5,631.5,174.7z"/>
			<path class="st6" d="M340.6,328.5H106.5V47.9c0-14.4,11-26.6,25.4-26.6l208.7,0.6V328.5z"/>
			<polygon class="st7" points="110.8,328.5 340.6,328.5 340.6,49.8 147.7,24.2 			"/>
			<path class="st8" d="M438,46c0-13.8-11.2-25-25-25H154.2v0.2L129.5,21c15.1,0,24.6,10.6,24.6,23.5l0.1-0.1v292.9
				c0,19.3,15.7,35,35,35l0,0H379l60-0.8L438,46z"/>
			<circle class="st9" cx="210.9" cy="82.8" r="36.3"/>
			<g>
				<defs>
					<circle id="SVGID_1_" cx="210.9" cy="82.8" r="36.3"/>
				</defs>
				<clipPath id="SVGID_2_">
					<use xlink:href="#SVGID_1_"  style="overflow:visible;"/>
				</clipPath>
				<g class="st10">
					<path class="st11" d="M299.8,94.3c0.4-2.2,0.6-3.6,0.6-3.6s1.4-13-4.3-21.5c-0.8-1.2,1.8,2.6,1.8,2.6s-3.7-5.4-4.6-5.9
						s2.5,5.6,2.5,5.6s-3.8-6.5-4.8-6.4s1.9,7.6,1.9,7.6s-2.3-8.2-3.4-8.2s0.7,19.4-1.4,17.1c-0.7-0.8-3.8-6.1-5.4-5.7
						s5.8,12.2,5.8,12.2l0,0c0.1,0.4,0,0.9-0.1,1.3L299.8,94.3z"/>
					<path class="st12" d="M287.2,89.1l-5.3,14c-3.6,9-12.7,18.3-21.1,15.3l-26.8-9.8c-2.9-1.5-6-2.4-9.2-2.8l-0.3-0.1l-7.4-3.6
						l-16,3l-5.7,4.2c-14.3,2.7-44.6,12.3-44.6,12.3c6.3,4.4,11.7,12.5,11.7,12.5l-2.8,4.6c4.3,5.4,9,11,16.6,14.3
						c1.7,0.8,5.3,1.6,7.4,2.3l-5.4,56.4l59.1,1c0,0,9-40.1,10.7-65.8l1.1,0.4c13.8,4.8,29-0.1,39.4-11.9
						c8.5-9.6,12.7-40.5,12.7-40.5L287.2,89.1z"/>
					<path class="st13" d="M183.8,155.4c-2.2-0.7-5.7-1.5-7.4-2.3c-7.6-3.3-12.3-8.9-16.6-14.3l2.8-4.6L183.8,155.4z"/>
					<path class="st13" d="M248.2,147l-38.3,65.5l27.6,0.2C237.4,212.8,246.8,169.3,248.2,147z"/>
					<line class="st14" x1="284.1" y1="97.4" x2="299.6" y2="104.6"/>
					<path class="st11" d="M216.3,88.1l2.4,17.5c0,0-23.1,18.6-21.7,3.6l3-20.5L216.3,88.1z"/>
					<path class="st15" d="M214.8,70.1l2,19.3c0,0-19.2,23.8-17.5,0.5l4.1-20.4L214.8,70.1z"/>
					<path class="st16" d="M194.8,78.5l3.3-0.9l0.8,4l-3.3,0.9c-0.9,0.3-1.9-0.3-2.2-1.2c0-0.1,0-0.2,0-0.2l0,0
						C193.1,79.9,193.7,78.8,194.8,78.5z"/>
					<path class="st17" d="M195.1,79.5l1.4-0.4l0.3,1.6l-1.4,0.4c-0.4,0.1-0.8-0.1-0.9-0.5c0,0,0-0.1,0-0.1l0,0
						C194.4,80.1,194.6,79.6,195.1,79.5z"/>
					<path class="st16" d="M221.1,77.4l-3.4,0.5l-0.3-4.1l3.4-0.5c1-0.1,1.9,0.6,2,1.7c0,0,0,0.1,0,0.1l0,0
						C222.9,76.2,222.1,77.2,221.1,77.4z"/>
					<path class="st17" d="M220.9,74.6l-1.4,0.2l0.1,1.7l1.4-0.2c0.5-0.1,0.8-0.5,0.7-0.9l0,0C221.8,75,221.4,74.6,220.9,74.6
						C221,74.6,221,74.6,220.9,74.6z"/>
					<path class="st16" d="M208.2,92.5L208.2,92.5c-8.1,0.3-11.5-5-11.6-11.9v-0.5c-0.1-6.8,3.6-17.7,9.9-18.2v-0.1
						c6.3-0.5,12.9,9.7,13,16.5v0.5C219.6,85.6,217.2,91.9,208.2,92.5z"/>
					<path class="st18" d="M208.8,88L208.8,88c-2.8,0.2-5.1-1.5-5.1-3.9v-0.3l10.1-0.9v0.3C213.8,85.6,211.6,87.8,208.8,88z"/>
					<path class="st15" d="M205.8,77.9c0,0.5-0.3,0.9-0.7,0.9s-0.7-0.4-0.7-0.9s0.3-0.9,0.7-0.9S205.7,77.4,205.8,77.9z"/>
					<path class="st15" d="M211.7,77.2c0,0.5-0.3,0.9-0.7,0.9s-0.7-0.4-0.7-0.9s0.3-0.9,0.7-0.9S211.7,76.7,211.7,77.2z"/>
					<path class="st17" d="M209.5,81.5l-2.3,0.1c-0.3,0-0.5-0.3-0.4-0.7l0.9-2.9c0-0.2,0.2-0.3,0.4-0.3c0.1,0,0.2,0.1,0.3,0.2
						l1.4,2.8c0.1,0.2,0.1,0.5-0.2,0.7C209.6,81.5,209.6,81.5,209.5,81.5z"/>
					<path class="st15" d="M202,75.3c-0.6,0.6,0.2-1.7,1.1-2.1c0.8-0.4,1.8,0,2.2,0.8C204.1,74.1,202.9,74.5,202,75.3z"/>
					<path class="st15" d="M212.8,73.5c0.8,0.4-0.6-1.7-1.6-1.8c-0.9-0.2-1.8,0.4-2,1.3C210.5,72.8,211.7,73,212.8,73.5z"/>
					<path class="st15" d="M217.7,65.5c-0.1-0.2-0.2-0.3-0.2-0.5c0.8-0.4,1.3-0.6,1.3-0.6s-1-13.6-2.5-13.8
						c-0.6-0.1-17.3,3.8-21.5,14.9c-0.1,0.3-0.1,0.6,0,0.9c-0.1,0.2-0.2,0.4-0.3,0.7c-0.6,1.7-0.7,3.5-0.5,5.3
						c0.1,0.8,1.6,5.6,2.4,5.7c0.4,0,2.3-6.2,3.4-9.6c2.1,0.3,4.3,0.3,6.4,0c2.5-0.4,4.9-1,7.2-1.9c1.6,2.2,5,6.5,5.6,6.5
						S218.2,66.7,217.7,65.5z"/>
				</g>
			</g>
			<path class="st19" d="M265.8,56.3l0.6,2c0.1,0.3,0.3,0.5,0.6,0.5h2.1c0.4,0,0.7,0.3,0.7,0.7c0,0.2-0.1,0.4-0.3,0.6l-1.7,1.2
				c-0.2,0.2-0.3,0.5-0.2,0.8l0.6,2c0.1,0.4-0.1,0.7-0.5,0.8c-0.2,0-0.4,0-0.5-0.1l-1.7-1.2c-0.2-0.2-0.6-0.2-0.8,0l-1.8,1.2
				c-0.3,0.2-0.7,0.1-0.9-0.2c-0.1-0.2-0.1-0.3-0.1-0.5l0.6-2c0.1-0.3,0-0.6-0.2-0.8l-1.8-1.2c-0.3-0.2-0.4-0.7-0.1-1
				c0.1-0.2,0.3-0.3,0.5-0.3h2.1c0.3,0,0.5-0.2,0.6-0.5l0.6-2c0.1-0.4,0.5-0.5,0.9-0.4C265.5,55.9,265.7,56.1,265.8,56.3z"/>
			<path class="st19" d="M279.5,56.3l0.6,2c0.1,0.3,0.3,0.5,0.6,0.5h2.2c0.4,0,0.7,0.3,0.7,0.7c0,0.2-0.1,0.4-0.3,0.5l-1.7,1.2
				c-0.2,0.2-0.3,0.5-0.2,0.8l0.6,2c0.1,0.4-0.1,0.7-0.5,0.8c-0.2,0-0.4,0-0.5-0.1l-1.7-1.2c-0.2-0.2-0.6-0.2-0.8,0l-1.7,1.2
				c-0.3,0.2-0.7,0.1-0.9-0.2c-0.1-0.2-0.1-0.3-0.1-0.5l0.6-2c0.1-0.3,0-0.6-0.2-0.8l-1.8-1.2c-0.3-0.2-0.4-0.6-0.2-0.9
				c0.1-0.2,0.3-0.3,0.6-0.3h2.1c0.3,0,0.5-0.2,0.6-0.5l0.6-2c0.1-0.3,0.5-0.5,0.9-0.4C279.3,56,279.5,56.1,279.5,56.3z"/>
			<path class="st19" d="M293.3,56.3l0.7,2c0.1,0.3,0.3,0.5,0.6,0.5h2.1c0.4,0,0.7,0.3,0.7,0.7c0,0.2-0.1,0.4-0.3,0.6l-1.7,1.2
				c-0.2,0.2-0.3,0.5-0.2,0.8l0.6,2c0.1,0.4-0.1,0.7-0.5,0.8c-0.2,0-0.4,0-0.5-0.1l-1.7-1.2c-0.2-0.2-0.6-0.2-0.8,0l-1.7,1.2
				c-0.3,0.2-0.7,0.1-0.9-0.2c-0.1-0.2-0.1-0.3-0.1-0.5l0.6-2c0.1-0.3,0-0.6-0.2-0.8l-1.8-1.2c-0.3-0.2-0.4-0.6-0.2-0.9
				c0.1-0.2,0.3-0.3,0.6-0.3h2.1c0.3,0,0.6-0.2,0.6-0.5l0.6-2c0.1-0.4,0.5-0.6,0.8-0.4C293.1,55.9,293.3,56.1,293.3,56.3z"/>
			<path class="st19" d="M307.1,56.3l0.6,2c0.1,0.3,0.4,0.5,0.6,0.5h2.1c0.4,0,0.7,0.3,0.7,0.7c0,0.2-0.1,0.4-0.3,0.6l-1.7,1.2
				c-0.2,0.2-0.3,0.5-0.2,0.8l0.6,2c0.1,0.4-0.1,0.7-0.5,0.8c-0.2,0-0.4,0-0.5-0.1l-1.7-1.2c-0.2-0.2-0.6-0.2-0.8,0l-1.7,1.2
				c-0.3,0.2-0.7,0.1-0.9-0.2c-0.1-0.2-0.1-0.3-0.1-0.5l0.6-2c0.1-0.3,0-0.6-0.2-0.8l-1.8-1.2c-0.3-0.2-0.4-0.6-0.2-0.9
				c0.1-0.2,0.3-0.3,0.6-0.3h2.1c0.3,0,0.5-0.2,0.6-0.5l0.6-2c0.1-0.4,0.5-0.5,0.9-0.4C306.9,55.9,307.1,56.1,307.1,56.3z"/>
			<path class="st9" d="M320.9,56.3l0.6,2c0.1,0.3,0.3,0.5,0.6,0.5h2.1c0.4,0,0.7,0.3,0.7,0.7c0,0.2-0.1,0.4-0.3,0.6l-1.7,1.2
				c-0.2,0.2-0.3,0.5-0.2,0.8l0.6,2c0.1,0.4-0.1,0.7-0.5,0.8c-0.2,0-0.4,0-0.5-0.1l-1.7-1.2c-0.2-0.2-0.6-0.2-0.8,0l-1.7,1.2
				c-0.3,0.2-0.7,0.1-0.9-0.2c-0.1-0.2-0.1-0.3-0.1-0.5l0.6-2c0.1-0.3,0-0.6-0.2-0.8l-1.8-1.2c-0.3-0.2-0.4-0.7-0.1-1
				c0.1-0.2,0.3-0.3,0.5-0.3h2.1c0.3,0,0.5-0.2,0.6-0.5l0.6-2c0.1-0.4,0.5-0.5,0.9-0.4C320.7,55.9,320.9,56.1,320.9,56.3z"/>
			<path class="st18" d="M258.5,70.2h74c1.9,0,3.5,1.6,3.5,3.5v1.6c0,1.9-1.6,3.5-3.5,3.5h-74c-1.9,0-3.5-1.6-3.5-3.5v-1.6
				C255,71.8,256.6,70.2,258.5,70.2z"/>
			<rect x="382.5" y="87.8" class="st20" width="27.3" height="27.3"/>
			<line class="st21" x1="168.3" y1="133" x2="407.8" y2="133"/>
			<line class="st20" x1="255.4" y1="89.8" x2="363.2" y2="89.8"/>
			<line class="st20" x1="255.4" y1="101.7" x2="363.2" y2="101.7"/>
			<line class="st20" x1="255.4" y1="113.7" x2="363.2" y2="113.7"/>
			<circle class="st9" cx="210.9" cy="186.6" r="36.3"/>
			<g>
				<defs>
					<circle id="SVGID_3_" cx="211.1" cy="186.8" r="36.3"/>
				</defs>
				<clipPath id="SVGID_4_">
					<use xlink:href="#SVGID_3_"  style="overflow:visible;"/>
				</clipPath>
				<g class="st22">
					<path class="st15" d="M198.4,168c0.7-3.4,2.8-9.9,8.3-11.3c5.4-1.4,10.1-1,15.4,2.6c10.1,7,3.9,43.3,3.9,43.3
						s-3.8,8.3-31.8-2.5C194.3,200,197.5,172.5,198.4,168z"/>
					<path class="st23" d="M203,181c0,0-2.7,20.8-2.9,22.5c0,0,9,10.8,18.2,1.5c0,0-1.6-5-4.4-18L203,181z"/>
					<path class="st15" d="M210.3,209.8c0,0-0.9,4.4,8.4-4.8c0,0-0.8-4.2-1.4-6.5L210.3,209.8z"/>
					<path class="st15" d="M214.6,187.1c-0.8,2.7-5.4,5-8,4.4c-3.1-0.7-4.5-6.2-4.2-8.6c0.2-1.9,5.6-3,8.1-2.3
						S215.4,184.4,214.6,187.1z"/>
					<path class="st24" d="M199,170.6l3.6,0.6l-0.7,4l-3.6-0.6c-1.1-0.2-1.8-1.2-1.7-2.3c0,0,0-0.1,0-0.1l0,0
						C196.8,171.2,197.9,170.4,199,170.6z"/>
					<path class="st25" d="M198.6,171.7l1.5,0.3l-0.3,1.7l-1.5-0.3c-0.5-0.1-0.8-0.5-0.7-1c0,0,0,0,0,0l0,0
						C197.7,171.9,198.2,171.6,198.6,171.7z"/>
					<path class="st24" d="M222.5,179.1L219,178l1.2-3.9l3.5,1.1c1.1,0.3,1.7,1.4,1.4,2.5c0,0,0,0.1,0,0.1l0,0
						C224.7,178.8,223.6,179.4,222.5,179.1C222.5,179.1,222.5,179.1,222.5,179.1z"/>
					<path class="st25" d="M223.4,176.3l-1.4-0.5l-0.5,1.6l1.4,0.5c0.4,0.1,0.9-0.1,1.1-0.5l0,0
						C224.1,176.9,223.9,176.4,223.4,176.3C223.4,176.3,223.4,176.3,223.4,176.3z"/>
					<path class="st24" d="M215.2,162.5L215.2,162.5c6.5,2.1,9,8.8,7,15.3l-0.2,0.5c-2.1,6.5-9,10.7-14.5,8.9l0,0
						c-4.2-1.6-9.9-9.6-7.8-16.1l0.2-0.5C201.9,164.2,208.7,160.5,215.2,162.5C215.1,162.5,215.1,162.5,215.2,162.5z"/>
					<path class="st18" d="M208.8,182.4l0.5,0.1c1.7,0.4,3.4-0.6,3.8-2.3c0,0,0,0,0,0l0,0l-6.6-1.6l0,0
						C206.1,180.4,207.1,182,208.8,182.4z"/>
					<path class="st15" d="M212.7,176c-0.1,0.4,0.1,0.8,0.4,1c0.4,0.1,0.8-0.2,0.9-0.7c0.1-0.4,0-0.8-0.4-1
						C213.2,175.2,212.8,175.5,212.7,176z"/>
					<path class="st15" d="M207.6,174.7c0,0.4,0.3,0.7,0.7,0.7c0.4,0,0.7-0.3,0.7-0.7c0-0.3-0.2-0.6-0.5-0.7
						C208.1,174,207.7,174.3,207.6,174.7z"/>
					<path class="st26" d="M209.2,178l1.7,0.5c0.2,0.1,0.4-0.2,0.4-0.4l-0.2-2.4c0-0.2-0.1-0.3-0.3-0.3c-0.1,0-0.2,0-0.3,0.1
						l-1.5,1.9C208.9,177.6,209,178,209.2,178z"/>
					<path class="st15" d="M206.5,172.4c-0.6,0.2,0.6-1,1.2-1c0.6,0,1.2,0.4,1.2,1.1c0,0,0,0,0,0
						C208.2,172.2,207.3,172.1,206.5,172.4z"/>
					<path class="st15" d="M216,174.6c0.4,0.4-0.1-1.2-0.7-1.4c-0.5-0.3-1.2-0.1-1.5,0.4c0,0,0,0,0,0
						C214.6,173.7,215.4,174,216,174.6z"/>
					<path class="st15" d="M207.6,161.8c-4.9,8.1,16.1,13.1,16.1,13.1s3.3-15.8-14.1-16.3C198.3,158.3,208.1,161,207.6,161.8z"/>
					<path class="st15" d="M209.1,161.6c0,0-5.1,7.2-6.4,8.4c-1.5,1.4-3.8-0.2-3.8-0.2S199.7,158.6,209.1,161.6z"/>
					<path class="st27" d="M228.2,184.6c0,2.4-1.9,4.3-4.3,4.3s-4.3-1.9-4.3-4.3s1.9-4.3,4.3-4.3c0,0,0,0,0,0
						C226.3,180.3,228.2,182.2,228.2,184.6z"/>
					<path class="st27" d="M224.1,179.8c0,0.5-0.4,0.9-0.8,0.9c-0.5,0-0.9-0.4-0.9-0.8c0,0,0,0,0,0c0-0.5,0.4-0.9,0.8-0.9
						C223.8,178.9,224.1,179.3,224.1,179.8C224.1,179.8,224.1,179.8,224.1,179.8z"/>
					<path class="st27" d="M199.6,181.4c-1.1,2.1-3.7,2.8-5.8,1.7c-2.1-1.1-2.8-3.7-1.7-5.8c1.1-2.1,3.7-2.8,5.8-1.7
						C200,176.8,200.8,179.4,199.6,181.4z"/>
					<path class="st27" d="M198.4,175.2c-0.2,0.4-0.7,0.6-1.2,0.3c-0.4-0.2-0.6-0.7-0.3-1.2s0.7-0.6,1.2-0.3
						C198.5,174.3,198.6,174.8,198.4,175.2z"/>
					<path class="st27" d="M246.6,227.1l-9.2-22.6c-3.2-4.9-6.1-6.3-10-5.8c-1.1,0.1-2.2,0.5-3.2,1l-6.3,1.3
						c-9.2,6.2-17.3-2.9-17.3-2.9c-7-5.5-22,5-22,5l1.7,9.7c0,0,6.5,24.2,6.5,25c0.4,7.6-0.1,20.8,0,20.6s40.8,5.2,41.1,4.6
						s0.4-5.2,1.1-21.8c0.1-2.2,0.1-4.3,0.1-6.5L246.6,227.1z"/>
					<g>
						<defs>
							<path id="SVGID_5_" d="M246.6,227.1l-9.2-22.6c-3.2-4.9-6.1-6.3-10-5.8c-1.1,0.1-2.2,0.5-3.2,1l-6.3,1.3
								c-9.2,6.2-17.3-2.9-17.3-2.9c-7-5.5-24.5,5-24.5,5l4.2,9.7c0,0,6.5,24.2,6.5,25c0.4,7.6-0.1,20.8,0,20.6s40.8,5.2,41.1,4.6
								s0.4-5.2,1.1-21.8c0.1-2.2,0.1-4.3,0.1-6.5L246.6,227.1z"/>
						</defs>
						<clipPath id="SVGID_6_">
							<use xlink:href="#SVGID_5_"  style="overflow:visible;"/>
						</clipPath>
						<g class="st28">
							<path class="st18" d="M207.3,260c-12.1-9.8-25.1-21.8-25.9-38.5l-0.7,0.4c7.2,3.1,14.7,6.3,20.6,11.7c3,2.8,5.6,6,7.9,9.5
								c2.3,3.3,4.3,6.7,6.2,10.3c2.2,4.1,3.9,8.6,4.9,13.2c0.1,0.6,1.1,0.4,0.9-0.3c-1.7-8.2-5.9-15.6-10.5-22.6
								c-2.1-3.4-4.6-6.5-7.3-9.4c-2.8-2.8-6.1-5.2-9.5-7.2c-4.1-2.2-8.3-4.2-12.7-6c-0.2-0.1-0.5,0-0.7,0.2c0,0.1-0.1,0.1-0.1,0.2
								c0.8,16.9,13.9,29.3,26.2,39.2C207.1,261.1,207.8,260.4,207.3,260L207.3,260z"/>
							<path class="st18" d="M175.7,191c10.4,17.1,21.6,34.8,39.4,45.1c4.6,2.7,9.6,4.7,14.8,6c0.3,0.1,0.5-0.1,0.6-0.4
								c0-0.1,0-0.2,0-0.4c-8.5-18.6-20.8-35.2-36.2-48.6c-4.3-3.8-8.8-7.7-14.2-9.9c-0.6-0.2-0.8,0.7-0.3,0.9
								c4.9,2.1,9.1,5.6,13.1,9.1c3.7,3.2,7.3,6.7,10.7,10.3c10.7,11.4,19.5,24.5,26,38.7l0.6-0.7c-19.4-4.7-33.6-19.9-44.3-35.8
								c-3.3-4.8-6.3-9.8-9.3-14.8C176.2,190,175.4,190.5,175.7,191L175.7,191z"/>
							<path class="st18" d="M221.1,200.4c1.5,7.7,5.5,14.7,11.4,19.8c6,5,13.8,7.3,21.5,6.3c0.6-0.1,0.4-1-0.3-0.9
								c-7.7,1-15.4-1.4-21.2-6.6c-5.5-5-9.2-11.6-10.6-18.9C221.9,199.5,220.9,199.8,221.1,200.4z"/>
						</g>
					</g>
				</g>
			</g>
			<path class="st19" d="M265.8,160.1l0.6,2c0.1,0.3,0.3,0.5,0.6,0.5h2.1c0.4,0,0.7,0.3,0.7,0.7c0,0.2-0.1,0.4-0.3,0.6l-1.7,1.2
				c-0.2,0.2-0.3,0.5-0.2,0.8l0.6,2c0.1,0.4-0.1,0.7-0.5,0.8c-0.2,0.1-0.4,0-0.5-0.1l-1.7-1.2c-0.2-0.2-0.6-0.2-0.8,0l-1.8,1.2
				c-0.3,0.2-0.7,0.1-0.9-0.2c-0.1-0.2-0.1-0.4-0.1-0.5l0.6-2c0.1-0.3,0-0.6-0.2-0.8l-1.7-1.2c-0.3-0.2-0.4-0.6-0.2-0.9
				c0.1-0.2,0.3-0.3,0.6-0.3h2.1c0.3,0,0.5-0.2,0.6-0.5l0.6-2c0.1-0.3,0.5-0.5,0.9-0.4C265.5,159.8,265.7,159.9,265.8,160.1z"/>
			<path class="st19" d="M279.5,160.1l0.6,2c0.1,0.3,0.3,0.5,0.6,0.5h2.2c0.4,0,0.7,0.3,0.7,0.7c0,0.2-0.1,0.4-0.3,0.6l-1.8,1.2
				c-0.2,0.2-0.3,0.5-0.2,0.8l0.6,2c0.1,0.4-0.1,0.7-0.5,0.8c-0.2,0.1-0.4,0-0.5-0.1l-1.7-1.2c-0.2-0.2-0.6-0.2-0.8,0l-1.7,1.2
				c-0.3,0.2-0.7,0.1-0.9-0.2c-0.1-0.2-0.1-0.4-0.1-0.5l0.6-2c0.1-0.3,0-0.6-0.2-0.8l-1.7-1.2c-0.3-0.2-0.4-0.6-0.2-0.9
				c0.1-0.2,0.3-0.3,0.6-0.3h2.1c0.3,0,0.5-0.2,0.6-0.5l0.6-2c0.1-0.3,0.5-0.5,0.9-0.4C279.3,159.8,279.5,159.9,279.5,160.1z"/>
			<path class="st19" d="M293.3,160.1l0.7,2c0.1,0.3,0.3,0.5,0.6,0.5h2.1c0.4,0,0.7,0.3,0.7,0.7c0,0.2-0.1,0.4-0.3,0.5l-1.7,1.2
				c-0.2,0.2-0.3,0.5-0.2,0.8l0.6,2c0.1,0.4-0.1,0.7-0.5,0.8c-0.2,0.1-0.4,0-0.5-0.1l-1.7-1.2c-0.2-0.2-0.6-0.2-0.8,0l-1.7,1.2
				c-0.3,0.2-0.7,0.1-0.9-0.2c-0.1-0.2-0.1-0.4-0.1-0.5l0.6-2c0.1-0.3,0-0.6-0.3-0.7l-1.7-1.2c-0.3-0.2-0.4-0.6-0.2-0.9
				c0.1-0.2,0.3-0.3,0.6-0.3h2.1c0.3,0,0.6-0.2,0.6-0.5l0.6-2c0.1-0.3,0.5-0.5,0.9-0.4C293.1,159.8,293.3,159.9,293.3,160.1z"/>
			<path class="st19" d="M307.1,160.1l0.6,2c0.1,0.3,0.4,0.5,0.6,0.5h2.1c0.4,0,0.7,0.3,0.7,0.7c0,0.2-0.1,0.4-0.3,0.6l-1.7,1.2
				c-0.2,0.2-0.3,0.5-0.2,0.8l0.6,2c0.1,0.4-0.1,0.7-0.5,0.8c-0.2,0.1-0.4,0-0.5-0.1l-1.7-1.2c-0.2-0.2-0.6-0.2-0.8,0l-1.7,1.2
				c-0.3,0.2-0.7,0.1-0.9-0.2c-0.1-0.2-0.1-0.4-0.1-0.5l0.6-2c0.1-0.3,0-0.6-0.2-0.8l-1.7-1.2c-0.3-0.2-0.4-0.6-0.2-0.9
				c0.1-0.2,0.3-0.3,0.5-0.3h2.1c0.3,0,0.5-0.2,0.6-0.5l0.6-2c0.2-0.3,0.6-0.5,0.9-0.3C307,159.8,307.1,159.9,307.1,160.1z"/>
			<path class="st19" d="M320.9,160.1l0.6,2c0.1,0.3,0.3,0.5,0.6,0.5h2.1c0.4,0,0.7,0.3,0.7,0.7c0,0.2-0.1,0.4-0.3,0.6L323,165
				c-0.2,0.2-0.3,0.5-0.2,0.8l0.6,2c0.1,0.4-0.1,0.7-0.5,0.8c-0.2,0.1-0.4,0-0.5-0.1l-1.7-1.2c-0.2-0.2-0.6-0.2-0.8,0l-1.7,1.2
				c-0.3,0.2-0.7,0.1-0.9-0.2c-0.1-0.2-0.1-0.4-0.1-0.5l0.6-2c0.1-0.3,0-0.6-0.2-0.8l-1.7-1.2c-0.3-0.2-0.4-0.6-0.2-0.9
				c0.1-0.2,0.3-0.3,0.6-0.3h2.1c0.3,0,0.5-0.2,0.6-0.5l0.6-2c0.2-0.3,0.6-0.5,0.9-0.3C320.7,159.8,320.9,159.9,320.9,160.1z"/>
			<path class="st18" d="M258.5,174h74c1.9,0,3.5,1.6,3.5,3.5v1.6c0,1.9-1.6,3.5-3.5,3.5h-74c-1.9,0-3.5-1.6-3.5-3.5v-1.6
				C255,175.5,256.6,174,258.5,174z"/>
			<rect x="382.5" y="191.5" class="st20" width="27.3" height="27.3"/>
			<line class="st21" x1="168.3" y1="236.8" x2="407.8" y2="236.8"/>
			<line class="st20" x1="255.4" y1="193.5" x2="363.2" y2="193.5"/>
			<line class="st20" x1="255.4" y1="205.5" x2="363.2" y2="205.5"/>
			<line class="st20" x1="255.4" y1="217.5" x2="363.2" y2="217.5"/>
			<circle class="st29" cx="210.9" cy="291" r="36.3"/>
			<g>
				<defs>
					<circle id="SVGID_7_" cx="210.9" cy="291" r="36.3"/>
				</defs>
				<clipPath id="SVGID_8_">
					<use xlink:href="#SVGID_7_"  style="overflow:visible;"/>
				</clipPath>
				<g class="st30">
					<path class="st31" d="M205.7,264.4c0,0-14.5,5.6-18.9,21.3s-10.7,29.9-22.1,30.8s-23.5,8.9-24.2,11.4s37,56.6,68.4,43.3l4-28.5
						l0.5,22.2c0,0,1,4.2,12.1-3.1S240,254.8,205.7,264.4z"/>
					<path class="st31" d="M213.7,264.2c-6.5-1.6-13.3-0.4-18.8,3.3c-5.9,3.9-9.1,10-10.7,16.8c-1.7,7-2,14.4-4.5,21.2
						c-1.4,3.7-3.4,7.2-7,9c-3.4,1.7-7.3,2-11,1.9c-4.6,0-9.4-0.5-13.9,0.9c-3.8,1.2-7.2,3.5-9.7,6.7c-0.8,1,0.6,2.5,1.4,1.4
						c2.2-2.8,5.2-4.9,8.7-6c4-1.2,8.3-1,12.4-0.9c7.1,0.1,14.5-0.8,18.6-7.3c7.6-11.9,3.1-28.8,13.5-39.3
						c5.4-5.3,13.1-7.5,20.5-5.8c0.6,0.1,1.1-0.2,1.3-0.7C214.5,265,214.2,264.4,213.7,264.2L213.7,264.2z"/>
					<path class="st32" d="M217.6,287.9c0,0,2.5,21.7,2.9,23.4c-4.2,4.4-10.9,5.2-16.1,2.1c0,0,1-6.4,2.7-19.7L217.6,287.9z"/>
					<path class="st15" d="M208.4,274L208.4,274c-4.2,0.9-5.7,7.3-4.1,14.3l0.1,0.5c1.5,6.9,5.9,10.5,9.4,10.7
						c2.9,0.2,6-6.6,4.5-13.5l0.4-1.1C217.1,277.9,212.6,273,208.4,274z"/>
					<path class="st33" d="M199.9,286.1l3.5-1.2l-1.3-3.9l-3.5,1.2c-1.1,0.4-1.6,1.5-1.3,2.6l0,0
						C197.7,285.9,198.8,286.5,199.9,286.1C199.9,286.1,199.9,286.1,199.9,286.1z"/>
					<path class="st33" d="M223.9,276.4l-3.6,1l1.1,4l3.6-1c1.1-0.3,1.7-1.4,1.4-2.5l0,0C226.1,276.8,225,276.1,223.9,276.4
						C223.9,276.4,223.9,276.4,223.9,276.4z"/>
					<path class="st34" d="M224.3,277.4l-1.5,0.4l0.5,1.6l1.5-0.4c0.4-0.1,0.7-0.6,0.6-1l0,0C225.2,277.6,224.8,277.3,224.3,277.4
						C224.3,277.4,224.3,277.4,224.3,277.4z"/>
					<path class="st34" d="M198.9,283.3l1.4-0.5l0.6,1.6l-1.4,0.5c-0.4,0.2-0.9-0.1-1.1-0.5c0,0,0,0,0,0l0,0
						C198.2,283.9,198.5,283.5,198.9,283.3C198.9,283.3,198.9,283.3,198.9,283.3z"/>
					<path class="st35" d="M208.5,269.7L208.5,269.7c-6.7,1.6-9.8,8-8.3,14.5l0.1,0.5c1.5,6.5,9.7,11.6,14,10.5s10.5-9.6,8.9-16.1
						l-0.1-0.5C221.6,272.2,215.1,268.2,208.5,269.7C208.5,269.7,208.5,269.7,208.5,269.7z"/>
					<path class="st18" d="M213.1,289.7l0.5-0.1c1.7-0.5,2.8-2.2,2.3-4c0,0,0,0,0,0l0,0l-6.8,1.8l0,0
						C209.6,289.1,211.3,290.2,213.1,289.7C213.1,289.7,213.1,289.7,213.1,289.7z"/>
					<path class="st15" d="M213.4,281.9c0.1,0.5,0.5,0.8,0.9,0.7c0.4-0.2,0.6-0.6,0.4-1.1c-0.1-0.5-0.5-0.8-0.9-0.7
						C213.5,281,213.3,281.5,213.4,281.9z"/>
					<path class="st15" d="M208.2,283.3c0.1,0.5,0.5,0.9,0.9,0.8c0.4-0.1,0.6-0.6,0.5-1c-0.1-0.5-0.5-0.9-0.9-0.8
						C208.3,282.4,208.1,282.9,208.2,283.3z"/>
					<path class="st36" d="M211.3,285.5l1.8-0.4c0.2,0,0.3-0.4,0.1-0.6l-1.3-2.1c-0.1-0.1-0.2-0.2-0.4-0.1c-0.1,0-0.2,0.1-0.2,0.2
						l-0.4,2.5C210.8,285.3,211,285.5,211.3,285.5z"/>
					<path class="st15" d="M206.1,281.7c-0.4,0.4,0-1.2,0.6-1.5c0.6-0.3,1.3-0.1,1.6,0.4C207.5,280.7,206.7,281,206.1,281.7z"/>
					<path class="st15" d="M215.8,279c0.6,0.2-0.6-1-1.3-1c-0.6,0-1.2,0.5-1.2,1.2C214.1,278.8,214.9,278.8,215.8,279z"/>
					<path class="st12" d="M220.7,310c-2.2,3.5-9.3,6.4-16.1-4c0,0-11.1-7.1-19.2,6.1c-7.3,11.9-7.4,12.3-7.4,12.3l15.1,12.9l1.1,28
						l43.2,1.4c0,0-4.6-20-3.8-23.2c0.1-0.5,13.3-22.1,13.3-22.1S229.6,295.7,220.7,310z"/>
					<line class="st14" x1="193.8" y1="354.9" x2="234.3" y2="356"/>
					<path class="st31" d="M199,281.1c4.9-1.9,8.5-6.2,9.4-11.3c0,0,8.2,7.7,14.6,6.2c0,0-6.4-11.8-15.2-8.2S199.1,276.9,199,281.1z
						"/>
				</g>
			</g>
			<path class="st19" d="M265.8,264.5l0.6,2c0.1,0.3,0.3,0.5,0.6,0.5h2.1c0.4,0,0.7,0.3,0.7,0.7c0,0.2-0.1,0.4-0.3,0.6l-1.7,1.2
				c-0.2,0.2-0.3,0.5-0.2,0.8l0.6,2c0.1,0.4-0.1,0.7-0.5,0.8c-0.2,0-0.4,0-0.5-0.1l-1.7-1.2c-0.2-0.2-0.6-0.2-0.8,0l-1.8,1.2
				c-0.3,0.2-0.7,0.1-0.9-0.2c-0.1-0.2-0.1-0.3-0.1-0.5l0.6-2c0.1-0.3,0-0.6-0.2-0.8l-1.7-1.2c-0.3-0.2-0.4-0.6-0.2-0.9
				c0.1-0.2,0.3-0.3,0.6-0.3h2.1c0.3,0,0.5-0.2,0.6-0.5l0.6-2c0.1-0.3,0.5-0.5,0.9-0.4C265.6,264.2,265.7,264.3,265.8,264.5z"/>
			<path class="st19" d="M279.5,264.5l0.6,2c0.1,0.3,0.3,0.5,0.6,0.5h2.2c0.4,0,0.7,0.3,0.7,0.7c0,0.2-0.1,0.4-0.3,0.6l-1.7,1.2
				c-0.2,0.2-0.3,0.5-0.2,0.8l0.6,2c0.1,0.4-0.1,0.7-0.5,0.8c-0.2,0-0.4,0-0.5-0.1l-1.7-1.2c-0.2-0.2-0.6-0.2-0.8,0l-1.7,1.2
				c-0.3,0.2-0.7,0.1-0.9-0.2c-0.1-0.2-0.1-0.3-0.1-0.5l0.6-2c0.1-0.3,0-0.6-0.2-0.8l-1.7-1.2c-0.3-0.2-0.4-0.6-0.2-0.9
				c0.1-0.2,0.3-0.3,0.6-0.3h2c0.3,0,0.5-0.2,0.6-0.5l0.6-2c0.1-0.3,0.5-0.5,0.9-0.4C279.3,264.2,279.5,264.3,279.5,264.5z"/>
			<path class="st19" d="M293.3,264.5l0.7,2c0.1,0.3,0.3,0.5,0.6,0.5h2.1c0.4,0,0.7,0.3,0.7,0.7c0,0.2-0.1,0.4-0.3,0.5l-1.7,1.2
				c-0.2,0.2-0.3,0.5-0.2,0.8l0.6,2c0.1,0.4-0.1,0.7-0.5,0.8c-0.2,0-0.4,0-0.5-0.1l-1.7-1.2c-0.2-0.2-0.6-0.2-0.8,0l-1.7,1.2
				c-0.3,0.2-0.7,0.1-0.9-0.2c-0.1-0.2-0.1-0.3-0.1-0.5l0.6-2c0.1-0.3,0-0.6-0.2-0.8l-1.7-1.2c-0.3-0.2-0.4-0.6-0.2-0.9
				c0.1-0.2,0.3-0.3,0.6-0.3h2.1c0.3,0,0.6-0.2,0.6-0.5l0.6-2c0.2-0.3,0.6-0.5,0.9-0.3C293.2,264.2,293.3,264.3,293.3,264.5z"/>
			<path class="st9" d="M307.1,264.5l0.6,2c0.1,0.3,0.4,0.5,0.6,0.5h2.1c0.4,0,0.7,0.3,0.7,0.7c0,0.2-0.1,0.4-0.3,0.6l-1.7,1.2
				c-0.2,0.2-0.3,0.5-0.2,0.8l0.6,2c0.1,0.4-0.1,0.7-0.5,0.8c-0.2,0-0.4,0-0.5-0.1l-1.7-1.2c-0.2-0.2-0.6-0.2-0.8,0l-1.7,1.2
				c-0.3,0.2-0.7,0.1-0.9-0.2c-0.1-0.2-0.1-0.3-0.1-0.5l0.6-2c0.1-0.3,0-0.6-0.2-0.8l-1.7-1.2c-0.3-0.2-0.4-0.6-0.2-0.9
				c0.1-0.2,0.3-0.3,0.5-0.3h2.1c0.3,0,0.5-0.2,0.6-0.5l0.6-2c0.2-0.3,0.6-0.5,0.9-0.3C307,264.3,307.1,264.4,307.1,264.5z"/>
			<path class="st9" d="M320.9,264.5l0.6,2c0.1,0.3,0.3,0.5,0.6,0.5h2.1c0.4,0,0.7,0.3,0.7,0.7c0,0.2-0.1,0.4-0.3,0.6l-1.7,1.2
				c-0.2,0.2-0.3,0.5-0.2,0.8l0.6,2c0.1,0.4-0.1,0.7-0.5,0.8c-0.2,0-0.4,0-0.5-0.1l-1.7-1.2c-0.2-0.2-0.6-0.2-0.8,0l-1.7,1.2
				c-0.3,0.2-0.7,0.1-0.9-0.2c-0.1-0.2-0.1-0.3-0.1-0.5l0.6-2c0.1-0.3,0-0.6-0.2-0.8l-1.7-1.2c-0.3-0.2-0.4-0.6-0.2-0.9
				c0.1-0.2,0.3-0.3,0.6-0.3h2.1c0.3,0,0.5-0.2,0.6-0.5l0.6-2c0.2-0.3,0.6-0.5,0.9-0.3C320.8,264.2,320.9,264.3,320.9,264.5z"/>
			<path class="st18" d="M258.5,278.4h74c1.9,0,3.5,1.6,3.5,3.5v1.6c0,1.9-1.6,3.5-3.5,3.5h-74c-1.9,0-3.5-1.6-3.5-3.5v-1.6
				C255,280,256.6,278.4,258.5,278.4z"/>
			<rect x="382.5" y="295.9" class="st20" width="27.3" height="27.3"/>
			<line class="st21" x1="168.3" y1="341.2" x2="407.8" y2="341.2"/>
			<line class="st20" x1="255.4" y1="297.9" x2="363.2" y2="297.9"/>
			<line class="st20" x1="255.4" y1="309.9" x2="363.2" y2="309.9"/>
			<line class="st20" x1="255.4" y1="321.9" x2="363.2" y2="321.9"/>
			<path class="st37" d="M184.6,372.4c9.4,0,22.9-12.6,22.9-22H466c0,0-1,22-25.9,22H184.6"/>
			<path class="st38" d="M520,191.3l-18.5-79.6c-0.3-2.1,3.5-7.1,5.3-8.1c5-2.9,11.1-3.3,16.8-2.1c18.4,3.8,34,77.2,30.9,75.5
				c0,0-27.6,14.4-36.5,8.5"/>
			<path class="st39" d="M521.5,118.6c0,0.3,0.2,0.5,0.5,0.5c0,0,0,0,0,0c1.2,0,3.8-0.2,4.2,2.8s-2.5,4.8-4.3,4.9
				c-0.7,0-1.4,0.2-2,0.5c-1.1,1.2-1.6,3.7-2.4,6.8c-1.2,3.8,0.3,7.9,3.6,10.1c0,0-18.1,8.9-17.9,0c0,0,1.4-16.4,1.4-16.5
				c-1.4-1.4-6.9-2-3.5-13.7c3.2-10.8,11.1-10.1,13.2-9.7C515.9,104.5,521.9,104.9,521.5,118.6z"/>
			<path class="st38" d="M508.6,103.1c0,0,11.1,14.7,13,15.9C521.7,119.1,529.3,101.1,508.6,103.1z"/>
			<path class="st40" d="M524.8,122.8c0,0-1.8-3.8-4.1,1.3"/>
			<path class="st41" d="M511.4,118.6c-1.5,0-2.7,1.2-2.8,2.7c0,1.5,1.2,2.7,2.7,2.8c1.5,0,2.7-1.2,2.8-2.7
				C514.1,119.9,512.9,118.7,511.4,118.6C511.4,118.6,511.4,118.6,511.4,118.6z"/>
			<path class="st41" d="M500.1,119.7c1.5-0.3,2.5-1.7,2.2-3.2c-0.1-0.8-0.6-1.4-1.3-1.8C500.3,116.2,500,117.9,500.1,119.7z"/>
			<path class="st18" d="M502.4,118.2l4.1,2.1c0,0-2,1.5-3.1,0.7S502.4,118.2,502.4,118.2z"/>
			<path class="st40" d="M505.5,115.2l-0.7,3l-1.4-0.6c-0.2-0.1-0.3-0.3-0.2-0.5c0-0.1,0.1-0.1,0.1-0.1L505.5,115.2z"/>
			<path d="M510.8,114.1c0.4,0.5,0.1-1.2-0.4-1.7c-0.5-0.4-1.3-0.3-1.7,0.2C509.6,112.9,510.3,113.4,510.8,114.1z"/>
			<path d="M503,111.2c-0.6,0.2,0.7-1.1,1.4-1c0.7,0,1.2,0.5,1.2,1.2C504.8,111,503.9,110.9,503,111.2z"/>
			<path d="M508.5,116.3c-0.2,0.5-0.6,0.8-0.8,0.7s-0.3-0.6-0.1-1.1s0.6-0.8,0.8-0.7S508.6,115.8,508.5,116.3z"/>
			<path d="M504.6,114.5c-0.2,0.5-0.5,0.8-0.8,0.7s-0.3-0.6-0.1-1s0.5-0.8,0.8-0.7S504.8,114,504.6,114.5z"/>
			<path d="M504.5,127.6c2.6,0.5,5.2,0.8,7.8,0.8C514.9,128.3,501.8,143.3,504.5,127.6z"/>
			<ellipse class="st5" cx="541" cy="389.5" rx="54" ry="3.1"/>
			<path class="st42" d="M507.4,366.5l-1.9,13.4c0,0-3,8.9-5.8,5.4c-1.6-2-3.5-3.8-5.6-5.2l-0.9-13.9L507.4,366.5z"/>
			<path class="st41" d="M500,367l-0.5,18.2c0,0,8.9,1.3,5.6-4.6l2-12.6L500,367z"/>
			<path class="st42" d="M552,365.5l4.2,13.3c0,0,3.2,2.8,4.3,2.7c2.1-0.1,3.2-3.7,3.2-3.7l0.3-12.3L552,365.5z"/>
			<path class="st41" d="M558,361.9l2.9,22c0,0,6,1.6,2.7-4.4l0.7-16.9L558,361.9z"/>
			<path class="st43" d="M493.2,380l-11.2,9c-0.6,0.4-0.2,1.1,0.7,1.1l16.5,0.1c0.4,0,0.7-0.2,0.9-0.5l1.2-2.6c0.4-0.7,1.1-0.8,1,0
				l0.6,2.5c0,0.4,3.9,0.3,4-0.1c0.1-3.8-0.1-7.6-0.6-11.4c-0.1-0.3-0.4-0.6-0.7-0.6l0,0c-0.3-0.1-0.7,0-0.9,0.2
				c-1.1,1.1-4.7,4.3-6.6,3.7c-1.2-0.4-2.4-1-3.4-1.7C494.1,379.7,493.6,379.7,493.2,380z"/>
			<path class="st43" d="M563.8,377.3l6.3,10.7c0.6,1,0.3,2.2-0.6,2.8c-0.1,0.1-0.2,0.1-0.3,0.2c-2,1.2-3.6,3.5-4.8,3.6
				c-2.3,0.1-5.8-2.3-7.8-3.2c-1.4-0.6-2.5-1.5-2.3-2.6l1.6-10.8c0-0.1,0.2-0.2,0.4-0.1l2.4,2.2c0.8,0.7,3,0.6,3.5-0.2
				c0.4-0.6,1.3-2.6,1.3-2.6C563.5,377.2,563.7,377.2,563.8,377.3C563.7,377.3,563.7,377.3,563.8,377.3z"/>
			<path class="st44" d="M530.1,190c5.1,9.1,7.8,15.7,10.8,27.2c3.4,13.4,40.4,126.4,42,150.7c-4.2,1-32.2,0.9-34.8,0.7
				c-8.5-24.2-29.9-103-33.5-118.3c-0.5-2.4-4.2-1.8-3.9,0.6c2.1,17.5,13.2,90.9,18.7,117.8c-2.2,1.1-34.3,0.9-36.8,0.6
				c-2.8-29.9-17.5-143.2,4.7-179.9C507.4,187.9,519.8,189.7,530.1,190z"/>
			<path class="st45" d="M498.5,193.3c0,0-9,22.4-9,54S499.9,359,499.9,359"/>
			<line class="st45" x1="561.2" y1="359" x2="525.1" y2="192.2"/>
			<path class="st45" d="M518.7,193.1c0,0,0.3,29,13.3,26.7"/>
			<path class="st46" d="M497.4,193.9l41.8,31.5c0,0,1.8-17-5.7-31L497.4,193.9z"/>
			<path class="st45" d="M491.8,221.1c13,2.3,10.9-26.5,10.9-26.5"/>
			<path class="st47" d="M516.8,140.6c0,0,2.7-0.8,2.2-0.2c-0.7,0.7-1.5,1.3-2.3,1.8L516.8,140.6z"/>
			<line class="st45" x1="527.4" y1="359.2" x2="491.2" y2="359.2"/>
			<line class="st45" x1="581.7" y1="358.8" x2="544.4" y2="359.2"/>
			<path class="st48" d="M542.5,244.4c0-0.2,0.2-2.6,0.2-2.6l-1.1,3.4L542.5,244.4z"/>
			<path class="st48" d="M535.8,247.7l-0.8,0.6c0,0,0.8,1.4,1.1,1.3C535.8,249.1,535.7,248.4,535.8,247.7z"/>
			<path class="st39" d="M457.1,165c0,0,27.3,37.9,33.8,33.4c0,0,7.4-5.2,3.7-26.4c0-2.1,0-3.5,0-3.8c0,0,1.6-20.9,5-25.2
				c0.4-0.5,1.5-1.4,1.4-1.4c-10.5-2.6-14.5,23.8-17.4,36c-0.1,0.5-20.2-19-20.2-19s-10.5-13.9-11.2-13.1c-1.1,1.1,3,7.3,3,7.3
				c-0.2,0.5-0.6,0.9-1.1,1.1c-0.8,0.4-1.4,1.1-1.5,2c-0.3,1.1-1.3,1.7-1.5,2.3S454.9,163.4,457.1,165z"/>
			<path class="st39" d="M463,158.5c0,0-2.1-6-3-5.8s-4.8,1.9-4.7,3.4s3.5,0.3,3.5,0.3s-0.6,3.4,1.1,3.8S463,158.5,463,158.5z"/>
			<path class="st41" d="M457.8,156c0,0,0.1,1.5-1.1,1.8c-0.1,0.8-0.9,1.4-1.7,1.3c-0.1,0-0.1,0-0.2,0c0,0,0.4,0.7-0.5,0.9
				C454.3,159.9,458.4,164.4,457.8,156z"/>
			<path class="st40" d="M458.6,153.1c-0.7,0.5-1.5,1-2.2,1.4c-0.4,0.2-0.8,0.4-1.1,0.6c-0.1,0.1-0.2,0.2-0.3,0.4
				c0,0.1,0,0.2,0.1,0.2c0.3,0.2,0.6,0.4,1,0.5c0.4,0.1,0.8,0.1,1.3,0.1c0.2,0,0.4-0.1,0.8,0.2c0.1,0.1,0.2,0.3,0.1,0.5l-0.1,0.3
				c-0.1,0.4-0.2,0.9-0.4,1.3l0,0l0.2-1.3c0-0.2,0.1-0.5,0-0.6s-0.4-0.1-0.6-0.1c-0.9,0.1-1.8-0.1-2.5-0.6c-0.2-0.2-0.3-0.4-0.2-0.6
				c0.1-0.2,0.2-0.4,0.4-0.5c0.4-0.2,0.8-0.5,1.2-0.6L458.6,153.1L458.6,153.1z"/>
			<path class="st40" d="M455.1,152.6c0.2,0,0.4,0.1,0.5,0.2c0.1,0.1,0.3,0.2,0.4,0.3c0.1,0.1,0.2,0.3,0.3,0.4
				c0.1,0.2,0.1,0.3,0.1,0.5l0,0C456,153.6,455.5,153.1,455.1,152.6L455.1,152.6z"/>
			<path class="st40" d="M453.3,154.9c0.4,0.3,0.8,0.6,1.1,0.8s0.7,0.6,1.1,0.8s0.7,0.6,1.1,0.8c0.2,0.1,0.3,0.2,0.5,0.3
				c0.2,0.1,0.4,0,0.6-0.1l0,0c-0.3,0.4-0.9,0.4-1.3,0.1c-0.4-0.2-0.8-0.5-1.2-0.8C454.5,156.2,453.8,155.6,453.3,154.9L453.3,154.9
				z"/>
			<path class="st40" d="M456.8,157.8c0.1,0.6-0.1,1.2-0.6,1.6c-0.3,0.2-0.7,0.2-1,0.1c-0.3-0.1-0.6-0.2-0.8-0.4
				c-0.4-0.4-0.8-0.8-1.2-1.2c-0.3-0.4-0.6-0.9-0.9-1.4l0,0c0.3,0.4,0.7,0.8,1,1.2c0.4,0.4,0.7,0.8,1.2,1.1c0.4,0.4,0.9,0.5,1.5,0.3
				C456.4,158.8,456.7,158.3,456.8,157.8L456.8,157.8z"/>
			<path class="st40" d="M454.9,158.7c0.1,0.3,0.1,0.7,0,1c-0.1,0.2-0.1,0.4-0.3,0.5c-0.1,0.1-0.2,0.2-0.3,0.2l-0.3,0.1
				c-0.4,0-0.7,0-1.1-0.2c-0.2-0.1-0.3-0.2-0.5-0.3c-0.1-0.1-0.2-0.3-0.3-0.5l0,0c0.2,0.2,0.5,0.4,0.8,0.4c0.3,0.1,0.6,0.2,0.9,0.2
				c0.2,0,0.3-0.1,0.4-0.1c0.1-0.1,0.2-0.3,0.2-0.4C454.8,159.4,454.9,159,454.9,158.7L454.9,158.7z"/>
			<path class="st49" d="M501,141.6c0,0-6.8-0.9-9.5,4.6s-8.7,30.3-8.7,30.3l-16.8-16l-6.5,11.8c0,0,23.8,30.1,30.7,27.9
				S501,149.1,501,141.6z"/>
			<path class="st49" d="M499.9,142.8c0.3,0.7-8.4,21.5-8.1,28.5s5.2,19,4.8,20.1c0,0,5.5,4.3,35.8-0.4c9.3-8.2,1.1-35.9-2-44.7
				c0,0-6-3-8.5-3.2C514.7,145,507,144.9,499.9,142.8z"/>
			<path class="st50" d="M522,143.1l-4.3-5.6c-4,2.6-8.3,4.8-12.8,6.3l0.1,2c0.2,2.9,2.7,5.2,5.7,5c0.8-0.1,1.6-0.3,2.3-0.7
				C516.6,148,520.4,145.4,522,143.1z"/>
			<path class="st50" d="M503.8,137.1c0,0-1.3,4.9,1.1,6.7l-0.7,1.7c-0.4,1.2-1.7,1.8-2.9,1.4c-0.9-0.3-1.5-1.1-1.5-2
				c-0.1-0.8-0.1-1.7,0.1-2.5L503.8,137.1z"/>
			<path class="st0" d="M564.7,229.3l-39.2,25.1l0,0l-12.8-20c-1.9-2.9-1-6.9,1.9-8.8l0,0l33.9-21.7l0,0L564.7,229.3L564.7,229.3z"
				/>
			<path class="st51" d="M539.4,208.9c0,0,6.3,2.9,1.4,20.8c-0.3,1-0.4,2-0.3,3l1.1,7.7c0.2,0.8,0.3,1.9-0.4,2.4
				c-0.9,0.6-5.9,5.2-6.5,5.4c-1.2,0.4,0.1-5.7-0.1-8.9c-0.1,1.1-0.2,2.1-0.2,3.2l-0.2,2.5c-1.5-0.7-1.5-3.6-1.7-4.5
				c-0.2-0.8-0.2-1.7,0.1-2.4c1.1-2.1,1.8-4.4,2.2-6.8c0.1-1.5-0.9-7-1.8-17.3L539.4,208.9z"/>
			<path class="st39" d="M540.2,165.3c11.7,65.4,4.1,77.9,3.3,78.4c-1,0.6-6.4,5.7-7.1,5.9c-1.3,0.4,0.1-6.2-0.1-9.7
				c-0.2,1.2-0.2,2.3-0.3,3.5l-0.2,2.7c-1.6-0.8-1.6-3.9-1.9-5c-0.3-0.9-0.2-1.8,0.1-2.7c1.2-2.3,2-4.8,2.4-7.4
				c0.1-1.6-11-54.8-12.9-62.6c-2.7-10.6,0.7-22.8,4.4-23.2C532.7,144.7,539.2,159.9,540.2,165.3z"/>
			<path class="st49" d="M548.4,227.2c-0.5-2,2-40.2-6.5-65.1c-3.8-11.2-9.3-17.4-13.9-16.9c-3.7,0.4-7.1,12.6-4.4,23.2
				c2,7.8,6.1,42.7,9.5,60.5L548.4,227.2z"/>
			<path class="st0" d="M532.9,93l7.8-7.8h29.4c6,0,10.8-4.8,10.8-10.8c0,0,0,0,0,0V72c0-6-4.8-10.8-10.8-10.8c0,0,0,0,0,0h-26.4
				c-6,0-10.8,4.8-10.8,10.8c0,0,0,0,0,0V93z"/>
			<path class="st52" d="M565.3,72.9c0,1.5,1.2,2.7,2.7,2.7c1.5,0,2.7-1.2,2.7-2.7s-1.2-2.7-2.7-2.7S565.3,71.4,565.3,72.9
				L565.3,72.9z"/>
			<path class="st52" d="M555.4,72.9c0,1.5,1.2,2.7,2.7,2.7c1.5,0,2.7-1.2,2.7-2.7s-1.2-2.7-2.7-2.7S555.4,71.4,555.4,72.9
				L555.4,72.9z"/>
			<path class="st52" d="M545.5,72.9c0,1.5,1.2,2.7,2.7,2.7c1.5,0,2.7-1.2,2.7-2.7c0-1.5-1.2-2.7-2.7-2.7c0,0,0,0,0,0
				C546.7,70.2,545.5,71.4,545.5,72.9C545.5,72.9,545.5,72.9,545.5,72.9z"/>
			<ellipse class="st53" cx="62.9" cy="371.5" rx="62.9" ry="3.6"/>
			<polygon class="st54" points="118.1,361.5 116.2,357.6 104.7,358.1 104.5,361.5 109.9,370.8 119.6,363.3 			"/>
			<path class="st55" d="M111.1,358l-0.5,8.8c-2.3-1.4-4.5-3-6.5-4.8l0.5-5L111.1,358z"/>
			<path class="st56" d="M118.8,361.3c-2.7,0.2-5.2,1.2-7.3,2.9c-2.3,1.8-5.9-1.9-6.9-2.8c-0.2-0.2-0.5,0-0.6,0.3l-1.3,12.4h34.1
				c0.5-0.1,0.8-0.5,0.7-0.9v-2.6c0-0.4-0.2-0.7-0.5-0.9L118.8,361.3z"/>
			<line class="st57" x1="120.7" y1="362" x2="115.2" y2="365.1"/>
			<line class="st57" x1="123.1" y1="363.2" x2="117.6" y2="366.4"/>
			<polygon class="st54" points="62.5,361.5 60.6,357.6 50,356.1 48.8,361.5 54.2,370.8 63.9,363.3 			"/>
			<path class="st55" d="M54.4,357.8l1,8.3c-2.3-1.4-4.5-3-6.5-4.8l1-4.3L54.4,357.8z"/>
			<path class="st56" d="M63.2,361.3c-2.7,0.2-5.2,1.2-7.3,2.9c-2.3,1.8-5.9-1.9-6.9-2.8c-0.2-0.2-0.5,0-0.6,0.3L47,374.1h34.1
				c0.5-0.1,0.8-0.5,0.7-0.9v-2.6c0-0.4-0.2-0.7-0.5-0.9L63.2,361.3z"/>
			<line class="st57" x1="65.9" y1="362.2" x2="60.4" y2="365.4"/>
			<line class="st57" x1="68.3" y1="363.4" x2="62.8" y2="366.6"/>
			<path class="st38" d="M104,82.8c2.4-3.8,3.2-9.4-1-11.9c-2.2-1.3-4.9-1-6.9,0.6c-0.9,0.8-1.6,1.7-2.1,2.7c-0.8-1.2-2.2-2-3.6-2
				c-1.6,0.2-3,1.1-3.8,2.4c-1.3-0.4-2.7-0.5-4-0.2c-2.9,0.7-3.4,4.6-1.8,6.8c-2,2.8-2.7,6.8,0.3,16.5v0.1l4,2.2l0.1-0.2l0,0
				l0.1-0.2L85,99.4l4-13c0.5-0.4,3.9-2.6,5.6-1.2s3.8,2.7,5.4,2.1c0.7-0.4,1.4-0.9,1.8-1.6C102.8,84.9,103.6,84,104,82.8z
				 M102.2,72.2c1.4,0.9,2.3,2.4,2.2,4.1c-0.6-2.9-3.4-4.7-6.3-4.1c-0.2,0-0.4,0.1-0.6,0.1C99,71.4,100.8,71.4,102.2,72.2
				L102.2,72.2z M82.4,97.8c0.7,0.2,1.3,0.6,1.8,1.1l-0.9-0.5L82.4,97.8z"/>
			<path class="st58" d="M116,212c0,0,4.4,52.5,4.8,67s-2.5,79.2-2.5,79.2l-18.3,0.3c0,0-12.8-108.5-30.5-143.5L116,212z"/>
			<path class="st57" d="M93.8,214.7c0,0,12.5,60.7,12.5,70s1.8,73.3,1.8,73.3"/>
			<line class="st57" x1="99.1" y1="351.5" x2="118.5" y2="351.5"/>
			<path class="st49" d="M116,212c0,0-10.2,43.8-20.5,74.8c-8.3,25-26.8,73-26.8,73l-20.5-0.5l17.8-71.7c1-3.7,1.5-7.6,1.8-11.4
				c0.9-14.5-2.1-43.9-3.3-62.8L116,212z"/>
			<path class="st59" d="M80.5,212.8c0,0,4.8,56.7,0.5,65.6S55.6,359,55.6,359"/>
			<line class="st59" x1="50.4" y1="352.7" x2="70.9" y2="352.7"/>
			<line class="st59" x1="97.7" y1="212.3" x2="82.4" y2="232.3"/>
			<path class="st54" d="M91.5,129.3c0,0-0.6-4.7,3.8-5.4s16.1-3.8,46,6.4c0,0,5.2-28.9,5.2-31.2c0.1-6.1,2.1-14,6.8-18.2
				c0.4-0.3,0.7,15.1,0.8,23.3c0,0,4,41.5-0.9,45.6S86.7,143.5,91.5,129.3z"/>
			<path class="st44" d="M100.3,122.2c0,0-16.8-2.8-16.3,10.3s33.3,22.1,42.2,19.9l-2.8-29.2L100.3,122.2z"/>
			<path class="st60" d="M126.1,152c-2.6,3.1-28.3-3.5-31.1-7.7c0,0-0.4-14.4,0.7-14.6C106.8,126.6,126.1,152,126.1,152z"/>
			<path class="st44" d="M76.3,120.7c0,0-22.9,2.3-24.3,21.3s10.4,71.6,10.4,71.6l57.4-1.8l-3.1-65.3c-0.2-4.8-1.7-9.5-4.3-13.6
				c-2.4-3.7-5.2-8-6.8-8.2l-25.7-6.6L76.3,120.7z"/>
			<path class="st61" d="M71.6,127.8c-13.9-5.6-18.9,4.7-19.6,14.2c-1.5,19,10.4,71.6,10.4,71.6l57.4-1.8"/>
			<path class="st18" d="M102,186.9c0.1,1,0,1.9-0.4,1.9s-0.7-0.7-0.8-1.7s0-1.8,0.3-1.9S101.8,185.9,102,186.9z"/>
			<path class="st54" d="M83.6,103.5l-1.3,12.9l13.3,11.1l2-5.8l-1-10.7l-10.7-9.7c-0.7,0.5-1.3,1-1.8,1.6
				C83.8,103.2,83.7,103.3,83.6,103.5z"/>
			<path class="st38" d="M85.7,101.4l10.7,9.7l0.8,6.3c0,0-9.7-2.7-10.1-10.7"/>
			<path class="st18" d="M97.5,135.8c0.1,1,0,1.8-0.3,1.9s-0.7-0.7-0.8-1.7s0-1.9,0.4-1.9S97.4,134.8,97.5,135.8z"/>
			<path class="st18" d="M98.4,146c0.1,1,0,1.9-0.4,1.9s-0.7-0.7-0.8-1.7s0-1.9,0.3-1.9S98.3,145,98.4,146z"/>
			<path class="st18" d="M99.3,156.2c0.1,1,0,1.9-0.4,1.9s-0.7-0.7-0.8-1.7s0-1.9,0.3-1.9S99.2,155.2,99.3,156.2z"/>
			<path class="st18" d="M100.2,166.4c0.1,1,0,1.9-0.3,1.9s-0.7-0.7-0.8-1.7s0-1.9,0.4-1.9S100.1,165.4,100.2,166.4z"/>
			<path class="st18" d="M101.1,176.7c0.1,1,0,1.9-0.3,1.9s-0.7-0.7-0.8-1.7s0-1.9,0.4-1.9S100.9,175.7,101.1,176.7z"/>
			<path class="st18" d="M102.9,197.1c0.1,1,0,1.9-0.4,1.9s-0.7-0.7-0.8-1.7s0-1.9,0.4-1.9S102.7,196.1,102.9,197.1z"/>
			<path class="st18" d="M103.8,207.3c0.1,1,0,1.9-0.3,1.9s-0.7-0.7-0.8-1.7s0-1.8,0.4-1.9S103.6,206.3,103.8,207.3z"/>
			<polygon class="st18" points="81.8,115.4 74.7,118.8 92.4,133.8 95.5,127.5 			"/>
			<path class="st18" d="M97.5,120.3c0.3,0.1,3.1,2,3.1,2l0.1,9.5l-5.2-4.4L97.5,120.3z"/>
			<path class="st62" d="M113.1,186.2l12.8-40.1c0.7-2.2,2.3-4,4.4-4.9l26.2-11.3c0.5-0.2,1.1,0.1,1.3,0.6c0.1,0.2,0.1,0.4,0,0.7
				l-12.9,39.3c-0.7,2.1-2.2,3.8-4.2,4.8l-26.2,12.3c-0.5,0.2-1.1,0-1.3-0.5C113,186.7,113,186.5,113.1,186.2z"/>
			<path class="st18" d="M115.3,188.6l12.7-40.1c0.7-2.2,2.3-4,4.4-4.9l26.2-11.3c0.5-0.2,1.1,0.1,1.3,0.6c0.1,0.2,0.1,0.4,0,0.7
				L147,172.8c-0.7,2.1-2.2,3.8-4.2,4.8l-26.2,12.3c-0.5,0.2-1.1,0-1.3-0.6C115.2,189,115.2,188.8,115.3,188.6z"/>
			<polygon class="st38" points="121.8,159.2 131.4,162.1 119.3,167 			"/>
			<line class="st63" x1="133.1" y1="150.6" x2="155.8" y2="141"/>
			<line class="st63" x1="133.1" y1="154.9" x2="151.9" y2="147.2"/>
			<polygon class="st0" points="123,179 147.2,168.4 145.6,173.5 121,184.6 			"/>
			<path class="st54" d="M131.6,166.3c-1.4,1.3-26.8,27.3-39,39.1c-2.7,2.7-7.1,2.6-9.8-0.1c-0.4-0.4-0.8-0.9-1.1-1.5l-21.4-35.9
				l20.3-15.7c0.1,0.2,10.7,18.2,13.2,27.3c0.8,3,2.2,2.7,4.6,1.3l18.5-11.4c0-1.5,0.1-3,0.4-4.4c0.8-2.3,4.5-5.4,4.5-5.4l-1.6,4.9
				c-0.3,0.8-1.2,1.4,0.3,1.6l11.8-8.7c0,0,1.1-0.1,0,1.1c-0.8,0.7-1.4,1.6-2,2.4c0.1,0.1,3.4-2.2,3.5-1.3s-2.6,2.9-2.5,3
				s3.1-2.4,3.3-1.6s-2.1,2.4-2.2,2.7s2.5-1.7,2.6-1.2S132.4,165.6,131.6,166.3z"/>
			<path class="st44" d="M75.2,136.2c0,0-5.8-16.2-16.9-9.4s-2.9,40.1,3.3,47l23.9-16.6L75.2,136.2z"/>
			<path class="st54" d="M84.7,97.8c-0.1,0.3-0.4,0.4-0.6,0.3c-0.1,0-0.1-0.1-0.2-0.1c-0.9-0.8-2.6-2-3.2,1.4
				c-0.8,4.6,4,3.8,4.4,4.5c0.8,1.3,3.3,5.5,7,7.2c2.7,1.3,5.9,0.8,8.1-1.2c2.5-2.4,3.6-0.8,2.6-26.3c0,0-1.1,2.2-2.8,2.8
				s-4.2-1.7-6.1-2.2c-1.5-0.4-4.5-1.5-6.2,3.7C86.8,90.2,85.4,95.8,84.7,97.8z"/>
			<path class="st64" d="M101.9,96.2c0,0-0.4-2.1-1.3,0.1"/>
			<path class="st64" d="M94.6,96.4L83,96.7c-1.2-0.1-2.4,0.6-2.8,1.7"/>
			<ellipse class="st65" cx="103.6" cy="95.2" rx="1.8" ry="4.1"/>
			<ellipse class="st64" cx="97.5" cy="95.7" rx="3" ry="4.9"/>
			<path class="st18" d="M102.7,101.8c0,0-1.5,0.7-5.2,0.4c0,0,2,2.7,3.4,2.2S102.7,101.8,102.7,101.8z"/>
			<path class="st55" d="M81.4,99l2.6,1.9C83.9,100.9,83,96.3,81.4,99z"/>
			<path class="st38" d="M99.7,96.4c0,0.6-0.2,1-0.5,1s-0.5-0.4-0.5-1s0.2-1,0.5-1S99.7,95.8,99.7,96.4z"/>
			<path class="st38" d="M102.9,95.9c0,0.6-0.2,1-0.5,1s-0.5-0.5-0.5-1s0.2-1,0.5-1S102.9,95.4,102.9,95.9z"/>
			<path class="st38" d="M95.5,92.1c-0.7,0.5,0.4-1.8,1.4-2.1c0.9-0.3,1.9,0.2,2.2,1.1c0,0,0,0,0,0C97.8,91,96.6,91.3,95.5,92.1z"/>
			<path class="st38" d="M103,91.8c-0.6-0.1-1.2-0.1-1.8,0c0.2-0.9,0.9-1.5,1.8-1.4"/>
			<path class="st55" d="M101.4,95.9l1.5,4.3c0,0.1,0,0.1-0.1,0.1c0,0,0,0,0,0l-1.8,0.1c-0.1,0-0.1,0-0.1-0.1l0.3-4.4
				c0-0.1,0-0.1,0.1-0.1S101.4,95.8,101.4,95.9z"/>
			<path class="st49" d="M70.6,68.3l-7.8-7.8H33.3c-6,0-10.8-4.9-10.8-10.8v-2.3c0-6,4.9-10.8,10.8-10.8h26.4
				c6,0,10.9,4.9,10.9,10.8V68.3z"/>
			<circle class="st52" cx="35.4" cy="48.2" r="2.7"/>
			<path class="st52" d="M48,48.2c0,1.5-1.2,2.7-2.7,2.7c-1.5,0-2.7-1.2-2.7-2.7c0-1.5,1.2-2.7,2.7-2.7c0,0,0,0,0,0
				C46.8,45.5,48,46.7,48,48.2z"/>
			<circle class="st52" cx="55.2" cy="48.2" r="2.7"/>
			
				<ellipse transform="matrix(0.5399 -0.8417 0.8417 0.5399 108.1399 607.7144)" class="st66" cx="610" cy="204.9" rx="23.2" ry="23.2"/>
			<path class="st53" d="M586.6,180.1h31.3c2.1,0,3.7,1.7,3.7,3.7v40.5c0,2.1-1.7,3.7-3.7,3.7h-31.3c-2.1,0-3.7-1.7-3.7-3.7v-40.5
				C582.9,181.8,584.6,180.1,586.6,180.1z"/>
			<path class="st67" d="M612.6,224.1h-23.4c-0.8,0-1.5-0.7-1.5-1.5v-37.2c0-0.8,0.7-1.5,1.5-1.5c0,0,0,0,0,0H616
				c0.8,0,1.5,0.7,1.5,1.5c0,0,0,0,0,0v34C616.9,220,613.2,223.5,612.6,224.1z"/>
			<path class="st68" d="M617,219.2l-4.8,4.8l-0.1-3.1c0-1,0.7-1.8,1.7-1.9c0,0,0.1,0,0.1,0L617,219.2z"/>
			<path class="st5" d="M591.8,185L591.8,185c-0.8,0-1.5-0.7-1.5-1.5v-4.6c0-0.8,0.7-1.5,1.5-1.5l0,0c0.8,0,1.5,0.7,1.5,1.5v4.6
				C593.3,184.3,592.6,185,591.8,185z"/>
			<path class="st69" d="M591.8,187L591.8,187c-0.8,0-1.5-0.7-1.5-1.5v-4.6c0-0.8,0.7-1.5,1.5-1.5l0,0c0.8,0,1.5,0.7,1.5,1.5v4.6
				C593.3,186.3,592.6,187,591.8,187z"/>
			<path class="st5" d="M601.5,185L601.5,185c-0.8,0-1.5-0.7-1.5-1.5v-4.6c0-0.8,0.7-1.5,1.5-1.5l0,0c0.8,0,1.5,0.7,1.5,1.5l0,0v4.6
				C603,184.3,602.3,185,601.5,185L601.5,185z"/>
			<path class="st69" d="M601.5,187L601.5,187c-0.8,0-1.5-0.7-1.5-1.5v-4.6c0-0.8,0.7-1.5,1.5-1.5l0,0c0.8,0,1.5,0.7,1.5,1.5
				c0,0,0,0,0,0v4.6C603,186.3,602.3,187,601.5,187L601.5,187z"/>
			<path class="st5" d="M611.1,185L611.1,185c-0.8,0-1.5-0.7-1.5-1.5v-4.6c0-0.8,0.7-1.5,1.5-1.5l0,0c0.8,0,1.5,0.7,1.5,1.5v4.6
				C612.6,184.3,611.9,185,611.1,185z"/>
			<path class="st69" d="M611.1,187L611.1,187c-0.8,0-1.5-0.7-1.5-1.5v-4.6c0-0.8,0.7-1.5,1.5-1.5l0,0c0.8,0,1.5,0.7,1.5,1.5v4.6
				C612.6,186.3,611.9,187,611.1,187z"/>
			<path class="st70" d="M593.9,203.8c0,0.9-0.7,1.6-1.6,1.6s-1.6-0.7-1.6-1.6c0-0.9,0.7-1.6,1.6-1.6c0,0,0,0,0,0
				C593.2,202.2,593.9,203,593.9,203.8z"/>
			<path class="st70" d="M593.9,210.7c0,0.9-0.7,1.6-1.6,1.6s-1.6-0.7-1.6-1.6c0-0.9,0.7-1.6,1.6-1.6c0,0,0,0,0,0
				C593.2,209.1,593.9,209.8,593.9,210.7z"/>
			<path class="st70" d="M593.9,217.5c0,0.9-0.7,1.6-1.6,1.6s-1.6-0.7-1.6-1.6c0-0.9,0.7-1.6,1.6-1.6c0,0,0,0,0,0
				C593.2,215.9,593.9,216.7,593.9,217.5z"/>
			<path class="st71" d="M597.9,203h12.9c0.4,0,0.7,0.3,0.7,0.6v0c0,0.4-0.3,0.6-0.7,0.6h-12.9c-0.4,0-0.7-0.3-0.7-0.6v0
				C597.2,203.3,597.5,203,597.9,203z"/>
			<path class="st71" d="M597.9,210.1h12.9c0.4,0,0.7,0.3,0.7,0.6v0c0,0.4-0.3,0.6-0.7,0.6h-12.9c-0.4,0-0.7-0.3-0.7-0.6v0
				C597.2,210.4,597.5,210.1,597.9,210.1z"/>
			<path class="st71" d="M597.9,217.1h12.9c0.4,0,0.7,0.3,0.7,0.6v0c0,0.4-0.3,0.6-0.7,0.6h-12.9c-0.4,0-0.7-0.3-0.7-0.6v0
				C597.2,217.4,597.5,217.1,597.9,217.1z"/>
			<path class="st72" d="M592.4,204.5c-0.1,0-0.2,0-0.3-0.1l-1.7-1.9c-0.1-0.2-0.1-0.4,0-0.6c0.1-0.2,0.3-0.2,0.5-0.1
				c0,0,0,0,0.1,0.1l1.4,1.6l2.4-2.8c0.1-0.2,0.3-0.2,0.5-0.1c0,0,0,0,0.1,0.1c0.1,0.2,0.1,0.4,0,0.6l-2.7,3.1
				C592.6,204.4,592.5,204.5,592.4,204.5z"/>
			<path class="st72" d="M592.4,211.4c-0.1,0-0.2,0-0.3-0.1l-1.7-1.9c-0.1-0.2-0.1-0.4,0-0.6c0.1-0.2,0.3-0.2,0.5-0.1
				c0,0,0,0,0.1,0.1l1.4,1.6l2.4-2.8c0.1-0.2,0.3-0.2,0.5-0.1c0,0,0,0,0.1,0.1c0.1,0.2,0.1,0.4,0,0.6l-2.7,3.1
				C592.6,211.3,592.5,211.4,592.4,211.4z"/>
			
				<ellipse transform="matrix(0.973 -0.2309 0.2309 0.973 -30.562 147.3909)" class="st73" cx="614.4" cy="204.3" rx="11.2" ry="11.2"/>
			
				<ellipse transform="matrix(0.973 -0.2309 0.2309 0.973 -30.562 147.3909)" class="st74" cx="614.4" cy="204.3" rx="11.2" ry="11.2"/>
			<line class="st75" x1="622.6" y1="212.7" x2="631.3" y2="220.6"/>
			<circle class="st76" cx="574.8" cy="117.8" r="17.4"/>
			<rect x="566.7" y="121.1" class="st77" width="6.3" height="6.3"/>
			<polyline class="st78" points="568,123.4 569.1,125.5 575.2,118.7 			"/>
			<rect x="566.7" y="108.6" class="st77" width="6.3" height="6.3"/>
			<polyline class="st78" points="568,110.9 569.1,112.9 575.2,106.2 			"/>
			<g class="st79">
				<g>
					<defs>
						<circle id="SVGID_9_" cx="574.8" cy="117.8" r="17.4"/>
					</defs>
					<clipPath id="SVGID_10_">
						<use xlink:href="#SVGID_9_"  style="overflow:visible;"/>
					</clipPath>
					<g class="st80">
						<path class="st81" d="M592.9,112.6h-14.7c-0.6,0-1.2-0.5-1.2-1.2c0,0,0,0,0,0l0,0c0-0.6,0.5-1.2,1.2-1.2h14.7
							c0.6,0,1.2,0.5,1.2,1.2l0,0C594,112.1,593.5,112.6,592.9,112.6z"/>
						<path class="st81" d="M594,125.1h-15.8c-0.7,0-1.2-0.5-1.2-1.2v0l0,0c0-0.7,0.5-1.2,1.2-1.2l0,0H594c0.7,0,1.2,0.5,1.2,1.2v0
							l0,0C595.2,124.6,594.7,125.1,594,125.1L594,125.1z"/>
					</g>
				</g>
			</g>
		</g>
	</g>
</g>
</svg>
