<svg id="Layer_1" enable-background="new 0 0 128 128" height="512" viewBox="0 0 128 128" width="512" xmlns="http://www.w3.org/2000/svg" xmlns:xlink="http://www.w3.org/1999/xlink"><linearGradient id="SVGID_1_" gradientTransform="matrix(1 0 0 -1 0 127.89)" gradientUnits="userSpaceOnUse" x1="115.263" x2="12.738" y1="17.337" y2="119.861"><stop offset="0" stop-color="#29bff8"/><stop offset="1" stop-color="#1e97f6"/></linearGradient><path d="m110.7 5.8v25.4c0 3.2-2.6 5.7-5.7 5.7h-6.7c-1 0-1.7-.8-1.7-1.7s.8-1.7 1.7-1.7h6.7c1.2 0 2.2-1 2.2-2.2v-25.5c0-1.2-1-2.2-2.2-2.2h-81.9c-1.2 0-2.2 1-2.2 2.2v25.4c0 1.2 1 2.2 2.2 2.2h32c.4 0 .8.2 1.2.4l7.7 6.8 7.7-6.8c.7-.7 1.8-.6 2.5.1s.6 1.9-.2 2.5l-8.9 7.9c-.7.6-1.7.6-2.3 0l-8.4-7.4h-31.3c-3.2 0-5.7-2.6-5.7-5.7v-25.4c0-3.2 2.6-5.7 5.7-5.7h81.8c3.2 0 5.7 2.5 5.8 5.7zm-27.9 27.6c-1 0-1.7.8-1.7 1.7s.8 1.7 1.7 1.7h5.5c1 0 1.7-.8 1.7-1.7s-.8-1.7-1.7-1.7zm-35-16.8-4.1 4 1 5.6c.2 1.4-1.3 2.5-2.5 1.8l-5.2-2.6-5 2.7c-1.3.7-2.8-.4-2.5-1.8l1-5.6-4.1-4c-1-1-.5-2.8 1-3l5.7-.8 2.5-5.1c.6-1.3 2.5-1.3 3.1 0l2.5 5.1 5.7.8c1.3.2 1.9 1.9.9 2.9zm-5 0-3.1-.4c-.6-.1-1.1-.4-1.3-1l-1.4-2.8-1.4 2.8c-.3.5-.7.9-1.3 1l-3.1.4 2.2 2.2c.4.4.6 1 .5 1.5l-.5 3 2.7-1.4c.5-.3 1.1-.3 1.6 0l2.7 1.4-.5-3c-.1-.6.1-1.1.5-1.5zm31.9 0-4.1 4 1 5.6c.2 1.4-1.3 2.5-2.5 1.8l-5.1-2.6-5.1 2.7c-1.3.7-2.8-.4-2.5-1.8l1-5.6-4.1-4c-1-1-.4-2.8 1-3l5.7-.8 2.5-5.1c.6-1.3 2.5-1.3 3.1 0l2.5 5.1 5.7.8c1.4.2 1.9 1.9.9 2.9zm-5 0-3.1-.4c-.6-.1-1.1-.4-1.3-1l-1.3-2.8-1.4 2.8c-.3.5-.7.9-1.3 1l-3.1.4 2.2 2.2c.4.4.6 1 .5 1.5l-.5 3 2.7-1.4c.5-.3 1.1-.3 1.6 0l2.7 1.4-.5-3c-.1-.6.1-1.1.5-1.5zm32 0-4.1 4 1 5.6c.2 1.4-1.3 2.5-2.5 1.8l-5.1-2.6-5.1 2.7c-1.3.7-2.8-.4-2.5-1.8l1-5.6-4.1-4c-1-1-.4-2.8 1-3l5.7-.8 2.5-5.1c.6-1.3 2.5-1.3 3.1 0l2.5 5.1 5.7.8c1.3.2 1.9 1.9.9 2.9zm-5 0-3.1-.4c-.6-.1-1.1-.4-1.3-1l-1.3-2.8-1.4 2.8c-.3.5-.7.9-1.3 1l-3.1.4 2.2 2.2c.4.4.6 1 .5 1.5l-.5 3 2.7-1.4c.5-.3 1.1-.3 1.6 0l2.7 1.4-.5-3c-.1-.6.1-1.1.5-1.5zm2.2 100.4v9.2c0 1-.8 1.7-1.7 1.7h-66.3c-1 0-1.7-.8-1.7-1.7v-9.2c0-6.8 4.6-12.8 11.1-14.6 3.7-.9 5.2-.8 10.7-1.2 1.6-.1 2.5-.8 2.9-2.3l.5-4c-1.8-1.5-3.2-3.5-4.1-5.7-.6-1.6-1.1-3.3-1.3-5-3.5.2-6.2-2.5-6.2-5.8 0-2.7 1.9-5.1 4.6-5.7v-5.3c0-1 .8-1.7 1.7-1.7 1 0 1.7.8 1.7 1.7v7.6c0 .8.1 1.6.3 2.4 0 0 .7 3.1.9 4.1.4 2.3.6 3.6 1.5 6.2 3.7 9.2 17.1 9.5 21 0 .8-2.2.6-2 2.4-10.3.2-.8.3-1.6.3-2.4v-7.8c0-7.3-5.9-13.2-13.2-13.2-3.7 0-7.1 1.5-9.6 4.2-.7.7-1.8.8-2.5.1s-.8-1.8-.1-2.5c3.2-3.4 7.6-5.3 12.2-5.3 9.2 0 16.6 7.5 16.7 16.7v5.3c3.1.7 5.1 3.9 4.3 7-.6 2.7-3.1 4.6-5.9 4.5-.3 1.7-.7 3.4-1.3 5-.9 2.2-2.3 4.2-4.1 5.7l.5 4.1c.2 1.6 1.5 2.1 3.1 2.2 4.3.5 6.9.3 10.5 1.2 6.5 2 11.1 8 11.1 14.8zm-18.3-40.7c-.1 1.6-.4 2.5-.8 4.2 2-.4 2.5-3 .8-4.2zm-33.2 0c-1.9 1.1-1.4 4 .8 4.3-.4-1.9-.7-2.9-.8-4.3zm19.8 32.7 6 3.2 3-7.6c-.8-.1-1.6-.4-2.3-.7zm-9.6-12.1c-.3 1.8-.1 2.7-1 4.4l7.4 5.7c.1-.1 7.8-6 7.3-5.6-.9-2.1-.5-2.1-1-4.5-4 1.9-8.6 1.9-12.7 0zm-5.8 7.7 3 7.5 6-3.2-6.6-5.1c-.8.5-1.6.7-2.4.8zm43.6 12.4c0-5.2-3.5-9.8-8.6-11.2-2.3-.6-3.7-.6-7-.8l-4.1 10.3c-.4 1-1.5 1.4-2.4.9l-9.4-4.9-9.4 4.9c-.9.5-2.1.1-2.4-.9l-4.1-10.3c-1.6.1-3.7.1-6.9.9-5.1 1.4-8.6 6-8.6 11.2v7.5h62.8v-7.6zm-29.7-39.8c4.2-1 6.8-5.1 5.8-9.3s-5.1-6.8-9.3-5.8c-3.5.8-6 4-6 7.6 0 1 .8 1.7 1.7 1.7 1 0 1.7-.8 1.7-1.7 0-2.4 1.9-4.3 4.3-4.3s4.3 1.9 4.3 4.3-1.9 4.3-4.3 4.3c-1 0-1.7.8-1.7 1.7v5.4c0 1 .8 1.7 1.7 1.7 1 0 1.7-.8 1.7-1.7v-3.9zm-1.7 7.6c-1 0-1.7.8-1.7 1.7v2.3c0 1 .8 1.7 1.7 1.7 1 0 1.7-.8 1.7-1.7v-2.3c0-.9-.7-1.7-1.7-1.7z" fill="url(#SVGID_1_)"/></svg>