<svg height="512" viewBox="0 0 128 128" width="512" xmlns="http://www.w3.org/2000/svg" xmlns:xlink="http://www.w3.org/1999/xlink"><linearGradient id="a" gradientUnits="userSpaceOnUse" x1="92.759" x2="25.598" y1="90.351" y2="23.19"><stop offset="0" stop-color="#29bff8"/><stop offset="1" stop-color="#1e97f6"/></linearGradient><path d="m98.03 0a29.97 29.97 0 1 0 29.97 29.967 30 30 0 0 0 -29.97-29.967zm0 56.439a26.47 26.47 0 1 1 26.47-26.472 26.5 26.5 0 0 1 -26.47 26.469zm19.57-12.41a1.751 1.751 0 0 1 -.963.931l-7.444 2.933a1.75 1.75 0 0 1 -2.269-.988 9.556 9.556 0 0 0 -17.78 0 1.75 1.75 0 0 1 -2.27.986l-7.443-2.934a1.748 1.748 0 0 1 -.987-2.269 20.942 20.942 0 0 1 19.59-13.334 1.75 1.75 0 1 1 0 3.5 17.447 17.447 0 0 0 -15.612 9.521l4.215 1.661a13.061 13.061 0 0 1 22.8 0l4.215-1.661a17.41 17.41 0 0 0 -5.9-6.618 1.75 1.75 0 0 1 1.934-2.918 20.97 20.97 0 0 1 7.945 9.85 1.75 1.75 0 0 1 -.031 1.34zm-31.1-14.675a5.757 5.757 0 0 0 5.75-5.75v-2.504a5.75 5.75 0 0 0 -11.5 0v2.5a5.757 5.757 0 0 0 5.75 5.754zm-2.25-8.25a2.25 2.25 0 0 1 4.5 0v2.5a2.25 2.25 0 0 1 -4.5 0zm25.313 8.25a5.757 5.757 0 0 0 5.75-5.75v-2.504a5.75 5.75 0 0 0 -11.5 0v2.5a5.757 5.757 0 0 0 5.749 5.754zm-2.25-8.25a2.25 2.25 0 0 1 4.5 0v2.5a2.25 2.25 0 0 1 -4.5 0zm-28.384 68.361a6.679 6.679 0 0 0 -2.871-4.613 6.667 6.667 0 0 0 1.529-5.222l-.293-2.144a6.683 6.683 0 0 0 -2.871-4.613 6.667 6.667 0 0 0 1.529-5.222l-.293-2.144a6.675 6.675 0 0 0 -2.871-4.607 6.667 6.667 0 0 0 -5.077-10.988h-7.8a1.75 1.75 0 1 0 0 3.5h7.805a3.168 3.168 0 0 1 0 6.335h-.619a1.75 1.75 0 0 0 0 3.5h1.961a3.177 3.177 0 0 1 3.132 2.733l.293 2.144a3.167 3.167 0 0 1 -3.137 3.6h-1.253a1.75 1.75 0 1 0 0 3.5h2.594a3.178 3.178 0 0 1 3.138 2.739l.293 2.145a3.166 3.166 0 0 1 -3.138 3.592h-1.886a1.75 1.75 0 0 0 0 3.5h3.228a3.179 3.179 0 0 1 3.138 2.739l.051.374a3.166 3.166 0 0 1 -3.138 3.595h-15a1.75 1.75 0 0 0 -1.73 2.015l3.126 20.438a5.255 5.255 0 0 1 -2.353 5.212l-3.181 2.043-3.546-9.2a32.768 32.768 0 0 0 -24.351-20.476 1.765 1.765 0 0 0 -.34-.033h-9.498v-33.415h7.726a10.135 10.135 0 0 0 8.268-4.283 6.632 6.632 0 0 1 5.409-2.8 1.75 1.75 0 1 0 0-3.5 10.135 10.135 0 0 0 -8.268 4.283 6.632 6.632 0 0 1 -5.409 2.8h-7.726v-7.479a1.75 1.75 0 0 0 -1.75-1.75h-12a1.75 1.75 0 0 0 -1.75 1.75v55.373a1.751 1.751 0 0 0 1.75 1.75h12a1.751 1.751 0 0 0 1.75-1.75v-7.479h9.325a29.286 29.286 0 0 1 21.6 18.265l4.318 11.2a1.75 1.75 0 0 0 2.578.843l4.988-3.2a8.759 8.759 0 0 0 3.922-8.686l-2.818-18.422h12.96a6.668 6.668 0 0 0 6.606-7.568zm-66.929 13.671h-8.5v-51.873h8.5zm32.81-51.479a1.75 1.75 0 0 1 1.75-1.75h3.69a1.75 1.75 0 0 1 0 3.5h-3.69a1.75 1.75 0 0 1 -1.75-1.75z" fill="url(#a)"/></svg>