<?xml version="1.0" encoding="UTF-8"?>
<svg xmlns="http://www.w3.org/2000/svg" xmlns:xlink="http://www.w3.org/1999/xlink" width="512" height="512" viewBox="0 0 128 128"><defs><linearGradient id="a" x1="121.65" y1="119.61" x2="6.35" y2="4.309" gradientUnits="userSpaceOnUse"><stop offset="0" stop-color="#29bff8"/><stop offset="1" stop-color="#1e97f6"/></linearGradient></defs><path d="M60.364,37.878a1.75,1.75,0,1,1,0-3.5h5.272a1.75,1.75,0,0,1,0,3.5Zm56.886-3.5H92V15.1A10.762,10.762,0,0,0,81.25,4.354H24.812a1.75,1.75,0,0,0,0,3.5H81.25A7.258,7.258,0,0,1,88.5,15.1V34.378H79.25a1.75,1.75,0,0,0,0,3.5h38a7.258,7.258,0,0,1,7.25,7.25V94.4a7.258,7.258,0,0,1-7.25,7.25h-.36a1.749,1.749,0,0,0-1.75,1.75v14.918l-20.917-16.3a1.746,1.746,0,0,0-1.076-.369H46.75A7.258,7.258,0,0,1,39.5,94.4V45.128a7.258,7.258,0,0,1,7.25-7.25,1.75,1.75,0,0,0,0-3.5A10.762,10.762,0,0,0,36,45.128V71.622H34.852a1.752,1.752,0,0,0-1.075.369L12.86,88.29V73.372a1.749,1.749,0,0,0-1.75-1.75h-.36a7.258,7.258,0,0,1-7.25-7.25V15.1a7.258,7.258,0,0,1,7.25-7.25,1.75,1.75,0,0,0,0-3.5A10.762,10.762,0,0,0,0,15.1V64.372a10.764,10.764,0,0,0,9.36,10.66v16.84a1.75,1.75,0,0,0,2.825,1.381L35.454,75.122H36V94.4a10.762,10.762,0,0,0,10.75,10.75h45.8l23.268,18.13a1.75,1.75,0,0,0,2.826-1.38v-16.84A10.765,10.765,0,0,0,128,94.4V45.128A10.762,10.762,0,0,0,117.25,34.378ZM93.175,56.893a1.748,1.748,0,0,1-.443,1.793l-4.1,3.995.966,5.637a1.75,1.75,0,0,1-2.539,1.845L82,67.5l-5.064,2.661A1.75,1.75,0,0,1,74.4,68.318l.967-5.637-4.1-3.995a1.749,1.749,0,0,1,.969-2.984l5.662-.823,2.532-5.129a1.749,1.749,0,0,1,3.138,0L86.1,54.879l5.662.823A1.749,1.749,0,0,1,93.175,56.893ZM87.75,58.655l-3.064-.445a1.747,1.747,0,0,1-1.317-.957L82,54.478l-1.369,2.775a1.747,1.747,0,0,1-1.318.957l-3.063.445,2.217,2.161a1.753,1.753,0,0,1,.5,1.549l-.524,3.05,2.739-1.439a1.743,1.743,0,0,1,1.629,0l2.74,1.439-.524-3.05a1.753,1.753,0,0,1,.5-1.549ZM55.873,76.088l5.661-.823,2.532-5.129a1.75,1.75,0,0,1,3.139,0l2.531,5.129,5.662.823a1.75,1.75,0,0,1,.97,2.984l-4.1,3.994.967,5.638A1.75,1.75,0,0,1,70.7,90.549l-5.063-2.661-5.064,2.661A1.75,1.75,0,0,1,58.033,88.7L59,83.066l-4.1-3.994a1.75,1.75,0,0,1,.97-2.984Zm4.012,2.953L62.1,81.2a1.749,1.749,0,0,1,.5,1.549L62.082,85.8l2.739-1.441a1.757,1.757,0,0,1,1.629,0l2.739,1.44-.523-3.05a1.749,1.749,0,0,1,.5-1.549l2.217-2.161L68.322,78.6a1.75,1.75,0,0,1-1.317-.957l-1.369-2.775-1.37,2.775a1.75,1.75,0,0,1-1.318.957Zm49.212.031L105,83.066l.967,5.638a1.75,1.75,0,0,1-2.539,1.845l-5.064-2.661L93.3,90.549A1.75,1.75,0,0,1,90.762,88.7l.966-5.638-4.1-3.994a1.749,1.749,0,0,1,.97-2.984l5.662-.823L96.8,70.136a1.75,1.75,0,0,1,3.139,0l2.532,5.129,5.661.823a1.75,1.75,0,0,1,.97,2.984Zm-4.982-.031-3.063-.445a1.75,1.75,0,0,1-1.318-.957l-1.37-2.775L97,77.639a1.75,1.75,0,0,1-1.317.957l-3.064.445L94.831,81.2a1.749,1.749,0,0,1,.5,1.549L94.81,85.8l2.74-1.44a1.751,1.751,0,0,1,1.629,0l2.739,1.441-.523-3.051a1.753,1.753,0,0,1,.5-1.549Z" fill="url(#a)"/></svg>
