<svg height="512" viewBox="0 0 128 128" width="512" xmlns="http://www.w3.org/2000/svg" xmlns:xlink="http://www.w3.org/1999/xlink"><linearGradient id="a" gradientUnits="userSpaceOnUse" x1="119.631" x2="18.154" y1="125.643" y2="24.166"><stop offset="0" stop-color="#29bff8"/><stop offset="1" stop-color="#1e97f6"/></linearGradient><path d="m126.25 103.8h-6.125v-64.251a1.75 1.75 0 0 0 -1.75-1.75h-13.5a1.75 1.75 0 0 0 -1.75 1.75v64.251h-14.75v-44.681a1.749 1.749 0 0 0 -1.75-1.75h-13.5a1.749 1.749 0 0 0 -1.75 1.75v44.681h-14.75v-5.236a1.75 1.75 0 0 0 -3.5 0v5.236h-10v-62.5h10v33.075a1.75 1.75 0 0 0 3.5 0v-34.826a1.751 1.751 0 0 0 -1.75-1.75h-13.5a1.751 1.751 0 0 0 -1.75 1.75v64.251h-14.75v-44.681a1.75 1.75 0 0 0 -1.75-1.75h-13.5a1.75 1.75 0 0 0 -1.75 1.75v44.681h-6.125a1.751 1.751 0 0 0 -1.75 1.749v11a1.75 1.75 0 0 0 1.75 1.75h124.5a1.749 1.749 0 0 0 1.75-1.75v-11a1.75 1.75 0 0 0 -1.75-1.749zm-19.625-62.5h10v62.5h-10zm-31.75 19.57h10v42.93h-10zm-63.5 0h10v42.93h-10zm113.125 53.93h-121v-7.5h121zm-67.875-29.925v3.189a1.75 1.75 0 0 1 -3.5 0v-3.189a1.75 1.75 0 0 1 3.5 0zm-46.886-41.699-.967 5.639a1.75 1.75 0 0 0 2.539 1.844l5.064-2.659 5.063 2.661a1.749 1.749 0 0 0 2.539-1.844l-.966-5.639 4.1-3.993a1.75 1.75 0 0 0 -.97-2.985l-5.661-.822-2.532-5.13a1.749 1.749 0 0 0 -3.138 0l-2.532 5.13-5.665.822a1.75 1.75 0 0 0 -.97 2.985zm3.948-4.469a1.749 1.749 0 0 0 1.318-.958l1.37-2.774 1.37 2.774a1.747 1.747 0 0 0 1.317.958l3.063.445-2.216 2.161a1.746 1.746 0 0 0 -.5 1.548l.523 3.051-2.74-1.44a1.743 1.743 0 0 0 -1.629 0l-2.739 1.44.523-3.051a1.746 1.746 0 0 0 -.5-1.548l-2.216-2.161zm27.8-15.1-.967 5.638a1.75 1.75 0 0 0 2.539 1.845l5.064-2.662 5.063 2.662a1.749 1.749 0 0 0 2.539-1.845l-.966-5.638 4.1-3.993a1.75 1.75 0 0 0 -.97-2.985l-5.661-.823-2.532-5.13a1.75 1.75 0 0 0 -3.138 0l-2.532 5.13-5.661.823a1.75 1.75 0 0 0 -.97 2.985zm3.948-4.469a1.749 1.749 0 0 0 1.318-.958l1.37-2.775 1.377 2.775a1.747 1.747 0 0 0 1.317.958l3.063.445-2.216 2.16a1.749 1.749 0 0 0 -.5 1.549l.523 3.05-2.74-1.44a1.751 1.751 0 0 0 -1.629 0l-2.739 1.44.523-3.05a1.749 1.749 0 0 0 -.5-1.549l-2.216-2.16zm54.946-.526a1.749 1.749 0 0 1 1.479-1.983l5.662-.823 2.532-5.13a1.75 1.75 0 0 1 3.138 0l2.532 5.13 5.662.823a1.75 1.75 0 0 1 .969 2.985l-4.1 3.993.966 5.638a1.75 1.75 0 0 1 -2.539 1.845l-5.063-2.662-5.064 2.662a1.75 1.75 0 1 1 -1.628-3.1l5.877-3.09a1.745 1.745 0 0 1 1.629 0l2.74 1.44-.524-3.05a1.752 1.752 0 0 1 .5-1.549l2.217-2.16-3.064-.445a1.751 1.751 0 0 1 -1.317-.958l-1.369-2.775-1.369 2.775a1.751 1.751 0 0 1 -1.318.958l-6.572.955a1.744 1.744 0 0 1 -1.974-1.479zm-27.142 24.564-.967 5.639a1.75 1.75 0 0 0 2.539 1.844l5.064-2.659 5.063 2.661a1.75 1.75 0 0 0 2.539-1.844l-.966-5.639 4.1-3.992a1.751 1.751 0 0 0 -.969-2.986l-5.662-.822-2.532-5.13a1.749 1.749 0 0 0 -3.138 0l-2.532 5.13-5.662.822a1.751 1.751 0 0 0 -.969 2.986zm3.949-4.469a1.751 1.751 0 0 0 1.318-.958l1.369-2.774 1.369 2.774a1.751 1.751 0 0 0 1.317.958l3.064.445-2.217 2.16a1.752 1.752 0 0 0 -.5 1.549l.524 3.051-2.74-1.44a1.743 1.743 0 0 0 -1.629 0l-2.739 1.44.524-3.051a1.752 1.752 0 0 0 -.5-1.549l-2.217-2.16z" fill="url(#a)"/></svg>