<svg height="512" viewBox="0 0 128 128" width="512" xmlns="http://www.w3.org/2000/svg" xmlns:xlink="http://www.w3.org/1999/xlink"><linearGradient id="a" gradientUnits="userSpaceOnUse" x1="121.65" x2="6.35" y1="119.61" y2="4.309"><stop offset="0" stop-color="#29bff8"/><stop offset="1" stop-color="#1e97f6"/></linearGradient><path d="m117.25 34.378h-25.25v-19.273a10.762 10.762 0 0 0 -10.75-10.75h-59a1.75 1.75 0 0 0 0 3.5h59a7.258 7.258 0 0 1 7.25 7.25v19.273h-41.75a10.762 10.762 0 0 0 -10.75 10.75v26.494h-1.148a1.752 1.752 0 0 0 -1.075.369l-20.917 16.299v-14.918a1.749 1.749 0 0 0 -1.75-1.75h-.36a7.258 7.258 0 0 1 -7.25-7.25v-49.267a7.258 7.258 0 0 1 7.25-7.25 1.75 1.75 0 0 0 0-3.5 10.762 10.762 0 0 0 -10.75 10.75v49.267a10.764 10.764 0 0 0 9.36 10.66v16.84a1.75 1.75 0 0 0 2.826 1.38l23.268-18.13h.546v19.278a10.762 10.762 0 0 0 10.75 10.75h45.8l23.268 18.13a1.75 1.75 0 0 0 2.826-1.38v-16.84a10.765 10.765 0 0 0 9.356-10.66v-49.272a10.762 10.762 0 0 0 -10.75-10.75zm7.25 60.022a7.258 7.258 0 0 1 -7.25 7.25h-.36a1.749 1.749 0 0 0 -1.75 1.75v14.918l-20.917-16.3a1.748 1.748 0 0 0 -1.076-.369h-46.397a7.258 7.258 0 0 1 -7.25-7.249v-49.272a7.258 7.258 0 0 1 7.25-7.25h70.5a7.258 7.258 0 0 1 7.25 7.25zm-6-45.886v7.467a1.751 1.751 0 0 1 -1.75 1.75h-69.5a1.751 1.751 0 0 1 -1.75-1.75v-7.471a1.751 1.751 0 0 1 1.75-1.75h8.875a1.75 1.75 0 0 1 0 3.5h-7.125v3.967h66v-3.967h-33a1.75 1.75 0 0 1 0-3.5h34.75a1.751 1.751 0 0 1 1.75 1.75zm-54 0a1.751 1.751 0 0 1 1.75-1.75h5.625a1.75 1.75 0 0 1 0 3.5h-5.625a1.75 1.75 0 0 1 -1.75-1.754zm52.25 15.769h-69.5a1.751 1.751 0 0 0 -1.75 1.75v7.467a1.751 1.751 0 0 0 1.75 1.75h69.5a1.751 1.751 0 0 0 1.75-1.75v-7.471a1.751 1.751 0 0 0 -1.75-1.75zm-1.75 7.463h-66v-3.967h66zm1.75 10.054h-69.5a1.751 1.751 0 0 0 -1.75 1.75v7.467a1.751 1.751 0 0 0 1.75 1.75h69.5a1.751 1.751 0 0 0 1.75-1.75v-7.47a1.751 1.751 0 0 0 -1.75-1.747zm-1.75 7.464h-66v-3.964h66z" fill="url(#a)"/></svg>