<svg height="512" viewBox="0 0 128 128" width="512" xmlns="http://www.w3.org/2000/svg" xmlns:xlink="http://www.w3.org/1999/xlink"><linearGradient id="a" gradientUnits="userSpaceOnUse" x1="109.234" x2="18.766" y1="109.231" y2="18.763"><stop offset="0" stop-color="#29bff8"/><stop offset="1" stop-color="#1e97f6"/></linearGradient><path d="m64 0a64 64 0 1 0 64 64 64.072 64.072 0 0 0 -64-64zm0 124.5a60.5 60.5 0 1 1 60.5-60.5 60.569 60.569 0 0 1 -60.5 60.5zm56-60.5a56 56 0 1 1 -56-56 1.75 1.75 0 0 1 0 3.5 52.472 52.472 0 1 0 13.048 1.641 1.751 1.751 0 1 1 .871-3.391 55.99 55.99 0 0 1 42.081 54.25zm-24.451-19.142-39.344 39.342a1.749 1.749 0 0 1 -2.475 0l-22.374-22.373a1.75 1.75 0 0 1 2.475-2.474l21.137 21.137 38.106-38.106a1.75 1.75 0 0 1 2.475 2.474zm-20.525 32.192a1.748 1.748 0 0 1 0 2.474l-3 3a1.749 1.749 0 0 1 -2.474-2.474l3-3a1.748 1.748 0 0 1 2.474 0zm4.526-4.526a1.748 1.748 0 0 1 0-2.474l25.014-25.015-11.664-11.668-36.695 36.693a1.8 1.8 0 0 1 -2.475 0l-19.722-19.724-11.668 11.664 32.628 32.633 7.582-7.583a1.749 1.749 0 0 1 2.474 2.474l-8.819 8.821a1.752 1.752 0 0 1 -2.475 0l-35.1-35.1a1.748 1.748 0 0 1 0-2.474l14.14-14.147a1.8 1.8 0 0 1 2.475 0l19.723 19.724 36.691-36.693a1.8 1.8 0 0 1 2.475 0l14.142 14.145a1.748 1.748 0 0 1 0 2.474l-26.252 26.25a1.748 1.748 0 0 1 -2.474 0z" fill="url(#a)"/></svg>