<svg id="Layer_1" enable-background="new 0 0 128 128" height="512" viewBox="0 0 128 128" width="512" xmlns="http://www.w3.org/2000/svg" xmlns:xlink="http://www.w3.org/1999/xlink"><linearGradient id="SVGID_1_" gradientTransform="matrix(1 0 0 -1 0 127.89)" gradientUnits="userSpaceOnUse" x1="115.132" x2="12.862" y1="17.163" y2="119.434"><stop offset="0" stop-color="#29bff8"/><stop offset="1" stop-color="#1e97f6"/></linearGradient><path d="m61.4 80.2.4-2.8c.1-1 1-1.6 2-1.5s1.6 1 1.5 2v.1l-.3 1.9h.3c1 0 1.7.8 1.7 1.7s-.8 1.7-1.7 1.7h-1.2c-1.6.1-2.9-1.4-2.7-3.1zm9.2-2.1c1.8 0 3.2-1.4 3.2-3.2s-1.4-3.2-3.2-3.2-3.2 1.4-3.2 3.2c0 1.8 1.4 3.2 3.2 3.2zm-11.8 6.6c-.7.6-.9 1.7-.2 2.5 2.9 3 7.8 3 10.7 0 .6-.7.5-1.8-.2-2.5-.8-.6-1.8-.4-2.5.2-1.4 1.3-3.8 1.3-5.3 0-.6-.7-1.7-.8-2.5-.2zm1.8-9.7c0-1.8-1.4-3.2-3.2-3.2s-3.2 1.4-3.2 3.2 1.4 3.2 3.2 3.2c1.8-.1 3.2-1.5 3.2-3.2zm38.3 42v9.2c0 1-.8 1.7-1.7 1.7h-66.4c-1 0-1.7-.8-1.7-1.7v-9.2c0-3.2 1-6.2 2.8-8.8.6-.8 1.7-1 2.4-.4s1 1.7.4 2.4c-1.4 2-2.2 4.3-2.2 6.8v7.5h62.8v-7.5c0-5.2-3.5-9.8-8.6-11.2-2.1-.5-3.2-.5-7-.8l-4.1 10.3c-.4 1-1.5 1.4-2.4.9l-9.4-4.9-9.4 4.9c-.9.5-2.1.1-2.4-.9l-4.1-10.3c-1.7.1-3.7.1-6.9.9-.9.2-1.9-.3-2.1-1.3-.2-.9.3-1.8 1.2-2.1 3.2-.8 5.1-.9 10.7-1.2 1.5-.1 2.5-.7 2.9-2.3l.5-4c-3.3-2.8-4.7-6.3-5.5-10.7-3.4.2-6.2-2.5-6.2-5.8 0-2.7 1.9-5.1 4.6-5.7v-5.3c0-9.2 7.5-16.7 16.7-16.7 9.2 0 16.6 7.5 16.7 16.7v5.4c3.1.7 5.1 3.9 4.3 7-.6 2.7-3.1 4.6-5.9 4.5-.3 1.7-.7 3.4-1.3 5-.9 2.2-2.3 4.2-4.1 5.7l.5 4.1c.2 1.5 1.4 2 3.1 2.2 4.3.5 6.9.3 10.5 1.2 6.7 1.6 11.3 7.6 11.3 14.4zm-22.6-12.4c-.8-.1-1.6-.4-2.3-.7l-6.7 5.1 6 3.2zm4.3-28.2c-.2 1.4-.5 2.8-.8 4.2 2.1-.5 2.5-3.1.8-4.2zm-29.8-8.4h1.6c1.7 0 3.3-.8 4.3-2.2l1.9-2.7c.7-1 2.2-1 2.9 0l1.9 2.7c1 1.4 2.6 2.2 4.3 2.2h9.6v-.7c0-7.3-5.9-13.2-13.2-13.2-7.3 0-13.2 5.9-13.2 13.2v.7zm-2.6 12.6c-.4-1.4-.6-2.9-.8-4.3-2 1.1-1.4 4 .8 4.3zm5.3 7.2c2.4 5.8 9 8.6 14.8 6.2 2.8-1.2 5.1-3.4 6.2-6.2.5-1.5.9-3 1.2-4.6.4-2.7 1.6-6.2 1.5-9v-2.8h-9.6c-2.9 0-5.5-1.4-7.2-3.7l-.4-.6-.5.7c-1.6 2.3-4.3 3.7-7.2 3.7h-1.6v3.5c0 .8.1 1.6.3 2.4 1.9 8.8 1.8 8.4 2.5 10.4zm4.1 9.1c-.3 1.9-.1 2.7-1 4.4l7.4 5.7 7.3-5.6c-1-2.1-.5-2.1-1-4.5-4 1.9-8.6 1.9-12.7 0zm-5.8 7.7 3 7.5 6-3.2-6.6-5.1c-.8.5-1.6.7-2.4.8zm-20.5-56.5c-13.3 0-24.1-10.7-24.1-24s10.8-24.1 24.1-24.1 24.1 10.8 24.1 24.1c-.1 13.3-10.9 24-24.1 24zm0-3.5c11.4 0 20.6-9.2 20.6-20.6s-9.3-20.5-20.6-20.5-20.6 9.2-20.6 20.6c0 11.3 9.2 20.5 20.6 20.5zm65.4-44.6c-13.3 0-24 10.8-24 24.1s10.8 24.1 24.1 24.1c1 0 1.7-.8 1.7-1.7 0-1-.8-1.7-1.7-1.7-11.3 0-20.5-9.2-20.5-20.6s9.1-20.6 20.5-20.6c11.3 0 20.5 9.2 20.5 20.6 0 2-.3 4-.9 5.9-.3.9.2 1.9 1.2 2.2.9.3 1.9-.2 2.2-1.2 3.9-12.7-3.3-26.2-16-30-2.3-.7-4.7-1.1-7.1-1.1zm13.1 40c-.9.8-1.9 1.4-2.9 2-.8.5-1.1 1.5-.7 2.4.5.9 1.6 1.1 2.4.7 1.2-.7 2.4-1.5 3.4-2.3.7-.6.9-1.7.3-2.5-.7-.8-1.8-.9-2.5-.3zm-83.4-14.2v7.4c0 1-.8 1.7-1.7 1.7-1 0-1.7-.8-1.7-1.7v-14.3c0-3.2 2.6-5.7 5.7-5.7h5.1c3.2 0 5.7 2.6 5.7 5.7v14.4c0 1-.8 1.7-1.7 1.7-1 0-1.7-.8-1.7-1.7v-7.4h-9.7zm0-6.9v3.4h9.6v-3.4c0-1.2-1-2.2-2.2-2.2h-5.1c-1.2-.1-2.3 1-2.3 2.2zm78.6 0v1.2c0 1.5-.6 2.9-1.6 4 1 1.1 1.6 2.5 1.6 4v1.2c0 3.2-2.6 5.7-5.7 5.7h-9.1c-1 0-1.7-.8-1.7-1.7v-18.4c0-1 .8-1.7 1.7-1.7h9.1c3.2-.1 5.7 2.5 5.7 5.7zm-13.1 3.4h7.4c1.2 0 2.2-1 2.2-2.2v-1.2c0-1.2-1-2.2-2.2-2.2h-7.4zm9.6 5.8c0-1.2-1-2.2-2.2-2.2h-7.4v5.7h7.4c1.2 0 2.2-1 2.2-2.2z" fill="url(#SVGID_1_)"/></svg>