<svg height="512" viewBox="0 0 128 128" width="512" xmlns="http://www.w3.org/2000/svg" xmlns:xlink="http://www.w3.org/1999/xlink"><linearGradient id="a" gradientUnits="userSpaceOnUse" x1="116.551" x2="11.449" y1="120.552" y2="15.45"><stop offset="0" stop-color="#29bff8"/><stop offset="1" stop-color="#1e97f6"/></linearGradient><path d="m106.312 8h-14.687v-1.25a6.758 6.758 0 0 0 -6.75-6.75h-41.75a6.758 6.758 0 0 0 -6.75 6.75v1.25h-14.688a6.758 6.758 0 0 0 -6.75 6.75v106.5a6.758 6.758 0 0 0 6.75 6.75h84.625a6.758 6.758 0 0 0 6.75-6.75v-106.498a6.758 6.758 0 0 0 -6.75-6.752zm-66.437-1.25a3.254 3.254 0 0 1 3.25-3.25h41.75a3.254 3.254 0 0 1 3.25 3.25v12.255h-4.5v-9.255a1.749 1.749 0 0 0 -1.75-1.75h-26.813a1.75 1.75 0 0 0 0 3.5h25.063v7.5h-32.25v-9.25a1.75 1.75 0 0 0 -3.5 0v9.255h-4.5zm69.687 114.5a3.254 3.254 0 0 1 -3.25 3.25h-84.625a3.254 3.254 0 0 1 -3.25-3.25v-106.498a3.254 3.254 0 0 1 3.25-3.25h14.688v7.5h-11.688a1.75 1.75 0 0 0 -1.75 1.75v97.5a1.75 1.75 0 0 0 1.75 1.75h78.625a1.749 1.749 0 0 0 1.75-1.75v-60.502a1.75 1.75 0 0 0 -3.5 0v58.75h-75.125v-93.995h75.125v9.245a1.75 1.75 0 1 0 3.5 0v-10.995a1.749 1.749 0 0 0 -1.75-1.75h-11.687v-7.505h14.687a3.254 3.254 0 0 1 3.25 3.25zm-4.5-78.5v4a1.75 1.75 0 1 1 -3.5 0v-4a1.75 1.75 0 0 1 3.5 0zm-34.156 21.522a1.748 1.748 0 0 0 .7-1.712l-.966-5.639 4.1-3.993a1.75 1.75 0 0 0 -.969-2.985l-5.671-.823-2.532-5.13a1.75 1.75 0 0 0 -3.138 0l-2.53 5.13-5.662.823a1.75 1.75 0 0 0 -.969 2.985l4.1 3.993-.969 5.639a1.749 1.749 0 0 0 2.536 1.84l5.064-2.658 5.063 2.658a1.753 1.753 0 0 0 1.843-.132zm-3.373-9.215a1.75 1.75 0 0 0 -.5 1.548l.524 3.051-2.74-1.44a1.751 1.751 0 0 0 -1.629 0l-2.739 1.44.524-3.051a1.75 1.75 0 0 0 -.5-1.548l-2.223-2.157 3.063-.446a1.747 1.747 0 0 0 1.318-.957l1.369-2.777 1.369 2.774a1.747 1.747 0 0 0 1.317.957l3.064.446zm-10.133 15.272-5.662-.823-2.531-5.13a1.75 1.75 0 0 0 -3.139 0l-2.532 5.13-5.661.823a1.751 1.751 0 0 0 -.97 2.985l4.095 3.994-.967 5.637a1.75 1.75 0 0 0 2.539 1.845l5.064-2.662 5.064 2.662a1.75 1.75 0 0 0 2.539-1.845l-.967-5.637 4.1-3.994a1.751 1.751 0 0 0 -.97-2.985zm-6.229 5.114a1.75 1.75 0 0 0 -.5 1.549l.523 3.05-2.744-1.442a1.751 1.751 0 0 0 -1.629 0l-2.739 1.44.522-3.05a1.75 1.75 0 0 0 -.5-1.549l-2.217-2.161 3.063-.445a1.747 1.747 0 0 0 1.318-.957l1.37-2.776 1.369 2.776a1.747 1.747 0 0 0 1.317.957l3.064.445zm38.958-5.114-5.661-.823-2.532-5.13a1.75 1.75 0 0 0 -3.139 0l-2.531 5.13-5.662.823a1.75 1.75 0 0 0 -.97 2.985l4.1 3.994-.966 5.637a1.75 1.75 0 0 0 2.532 1.845l5.063-2.662 5.064 2.662a1.75 1.75 0 0 0 2.539-1.845l-.966-5.637 4.1-3.994a1.751 1.751 0 0 0 -.97-2.985zm-6.229 5.114a1.754 1.754 0 0 0 -.5 1.549l.523 3.05-2.744-1.442a1.743 1.743 0 0 0 -1.629 0l-2.74 1.44.524-3.05a1.75 1.75 0 0 0 -.5-1.549l-2.217-2.161 3.064-.445a1.747 1.747 0 0 0 1.319-.955l1.364-2.78 1.37 2.776a1.747 1.747 0 0 0 1.318.957l3.063.445z" fill="url(#a)"/></svg>