<svg id="Layer_1" enable-background="new 0 0 128 128" height="512" viewBox="0 0 128 128" width="512" xmlns="http://www.w3.org/2000/svg" xmlns:xlink="http://www.w3.org/1999/xlink"><linearGradient id="SVGID_1_" gradientTransform="matrix(1 0 0 -1 0 127.89)" gradientUnits="userSpaceOnUse" x1="95.509" x2="34.595" y1="30.915" y2="91.829"><stop offset="0" stop-color="#29bff8"/><stop offset="1" stop-color="#1e97f6"/></linearGradient><path d="m62.4 35.2v-4.1c0-1 .8-1.7 1.7-1.7s1.7.8 1.7 1.7v4.1c0 1-.8 1.7-1.7 1.7s-1.7-.7-1.7-1.7zm58.8-30.9h-52.1c-3.7 0-6.7 3-6.7 6.7v9.6c0 1 .8 1.7 1.7 1.7s1.7-.8 1.7-1.7v-9.6c0-1.8 1.5-3.2 3.2-3.2h52.1c1.8 0 3.2 1.5 3.2 3.2v34.6c0 1.8-1.5 3.2-3.2 3.2h-16.5c-.4 0-.7.1-1 .3l-16.2 12.3v-10.7c0-1-.8-1.7-1.7-1.7h-16.6c-1.8 0-3.2-1.5-3.2-3.2 0-1-.8-1.7-1.7-1.7s-1.7.8-1.7 1.7c0 3.7 3 6.7 6.7 6.7h14.7v12.5c0 1.4 1.7 2.2 2.8 1.4l18.6-13.9h15.9c3.7 0 6.7-3 6.7-6.7v-34.7c.1-3.8-3-6.8-6.7-6.8zm-49.2 12.4h46.2c1 0 1.7-.8 1.7-1.7s-.8-1.7-1.7-1.7h-46.2c-1 0-1.7.8-1.7 1.7s.7 1.7 1.7 1.7zm0 8.9h46.2c1 0 1.7-.8 1.7-1.7s-.8-1.7-1.7-1.7h-46.2c-1 0-1.7.8-1.7 1.7s.7 1.7 1.7 1.7zm0 9h46.2c1 0 1.7-.8 1.7-1.7s-.8-1.7-1.7-1.7h-46.2c-1 0-1.7.8-1.7 1.7s.7 1.7 1.7 1.7zm0 9h32.1c1 0 1.7-.8 1.7-1.7 0-1-.8-1.7-1.7-1.7h-32.1c-1 0-1.7.8-1.7 1.7-.1.9.7 1.7 1.7 1.7zm-36.9 35.5h1.2c1 0 1.7-.8 1.7-1.7 0-1-.8-1.7-1.7-1.7h-.3l.3-1.9c.2-1-.5-1.9-1.4-2s-1.9.5-2 1.4v.1l-.5 2.7c-.3 1.6 1 3.1 2.7 3.1zm6.4-5.2c1.8 0 3.2-1.4 3.2-3.2s-1.4-3.2-3.2-3.2-3.2 1.4-3.2 3.2c0 1.7 1.4 3.2 3.2 3.2zm-11.7 6.5c-.7.6-.9 1.7-.2 2.5 1.4 1.5 3.3 2.3 5.3 2.3 2 .1 4-.8 5.3-2.3.6-.8.4-1.9-.3-2.5s-1.8-.5-2.4.2c-.7.7-1.7 1-2.6 1-1 .1-1.9-.3-2.6-1s-1.8-.8-2.5-.2zm1.8-9.7c0-1.8-1.4-3.2-3.2-3.2s-3.2 1.4-3.2 3.2 1.4 3.2 3.2 3.2c1.7 0 3.2-1.5 3.2-3.2zm37.7 37.9c.4 1.3.6 2.7.6 4.1v9.2c0 1-.8 1.7-1.7 1.7h-66.4c-1 0-1.7-.8-1.7-1.7v-9.2c0-6.8 4.6-12.8 11.1-14.6 3.1-.7 5.5-.9 10.7-1.2 1.6-.1 2.5-.8 2.9-2.3l.5-4c-3.3-2.8-4.7-6.3-5.5-10.7-3.5.2-6.2-2.5-6.2-5.8 0-2.8 1.9-5.1 4.6-5.7v-5.4c0-9.2 7.5-16.7 16.7-16.7 9.2 0 16.6 7.5 16.7 16.7v5.3c3.1.7 5.1 3.9 4.3 7-.6 2.6-3 4.6-5.9 4.5-.7 4.3-2.1 7.9-5.5 10.7l.5 4.1c.2 1.5 1.4 2 3.1 2.2 4.8.5 6.9.3 10.5 1.2.9.3 1.5 1.2 1.2 2.1s-1.2 1.5-2.1 1.2c-2.2-.5-3.2-.5-7-.8l-4 10.5c-.4 1-1.5 1.4-2.4.9l-9.4-4.9-9.4 4.9c-.9.5-2.1.1-2.4-.9l-4.1-10.4c-1.8.1-3.8.1-6.9.9-5.1 1.4-8.6 6-8.6 11.2v7.5h62.8v-7.5c0-1.1-.1-2.1-.4-3.1-.3-.9.3-1.9 1.2-2.2.9-.2 1.9.3 2.2 1.2zm-22.1-8.3c-.8-.1-1.6-.4-2.3-.7l-6.7 5.1 6 3.2zm4.4-28.2c-.1 1.6-.4 2.5-.8 4.2 2-.5 2.5-3.1.8-4.2zm-29.9-9.1v.7h1.6c1.7 0 3.3-.8 4.3-2.2l1.9-2.7c.7-1 2.2-1 2.9 0l1.9 2.7c1 1.4 2.6 2.2 4.3 2.2h9.6v-.7c0-7.3-5.9-13.2-13.2-13.2-7.4 0-13.3 5.9-13.3 13.2zm-2.6 13.3c-.3-1.7-.7-2.7-.8-4.3-1.9 1.1-1.4 4 .8 4.3zm5.3 7.2c3.8 9.4 17.2 9.4 21 0 1.1-3 1.6-7.1 2.4-10.3.2-.8.3-1.6.3-2.4v-3.6h-9.6c-2.9 0-5.5-1.4-7.2-3.7l-.5-.7-.5.7c-1.6 2.3-4.3 3.7-7.2 3.7h-1.6v3.6c0 .8.1 1.6.3 2.4 2.1 8.6 1.9 8.3 2.6 10.3zm4.2 9.2c-.3 1.8-.1 2.7-1 4.4l7.4 5.7c.1-.1 7.8-6 7.3-5.6-.9-2-.5-2-1-4.5-4 1.9-8.7 1.9-12.7 0zm-5.9 7.7 3 7.5 6-3.2-6.6-5.1c-.8.4-1.6.7-2.4.8z" fill="url(#SVGID_1_)"/></svg>