<svg height="512" viewBox="0 0 128 128" width="512" xmlns="http://www.w3.org/2000/svg" xmlns:xlink="http://www.w3.org/1999/xlink"><linearGradient id="a" gradientUnits="userSpaceOnUse" x1="115.093" x2="12.907" y1="97.119" y2="-5.068"><stop offset="0" stop-color="#29bff8"/><stop offset="1" stop-color="#1e97f6"/></linearGradient><linearGradient id="b" x1="71.88" x2="56.12" xlink:href="#a" y1="40.642" y2="24.883"/><linearGradient id="c" x1="55.515" x2="39.756" xlink:href="#a" y1="61.028" y2="45.268"/><linearGradient id="d" x1="88.244" x2="72.485" xlink:href="#a" y1="61.028" y2="45.268"/><path d="m126.25 6.814h-82.625a1.75 1.75 0 0 0 0 3.5h80.875v62.005h-10.407a1.75 1.75 0 0 0 0 3.5h10.407v5.188a4.255 4.255 0 0 1 -4.25 4.25h-112.5a4.255 4.255 0 0 1 -4.25-4.25v-5.188h98.148a1.75 1.75 0 0 0 0-3.5h-98.148v-62h9.188a1.75 1.75 0 1 0 0-3.5h-10.938a1.75 1.75 0 0 0 -1.75 1.745v72.443a7.759 7.759 0 0 0 7.75 7.75h37.344v16.682h-4.783a7.874 7.874 0 0 0 0 15.747h47.378a7.874 7.874 0 1 0 0-15.747h-4.783v-16.682h37.344a7.759 7.759 0 0 0 7.75-7.75v-72.443a1.75 1.75 0 0 0 -1.75-1.75zm-34.187 106.5a4.378 4.378 0 0 1 -4.374 4.373h-47.378a4.374 4.374 0 0 1 0-8.747h47.378a4.378 4.378 0 0 1 4.374 4.373zm-12.657-7.874h-30.812v-16.683h30.812zm-56.656-96.876a1.75 1.75 0 0 1 1.75-1.75h7.313a1.75 1.75 0 1 1 0 3.5h-7.313a1.751 1.751 0 0 1 -1.75-1.75z" fill="url(#a)"/><path d="m57.364 34.235-.964 5.638a1.749 1.749 0 0 0 2.538 1.845l5.062-2.661 5.064 2.661a1.749 1.749 0 0 0 2.536-1.845l-.966-5.638 4.1-3.994a1.749 1.749 0 0 0 -.97-2.984l-5.664-.823-2.532-5.129a1.749 1.749 0 0 0 -3.138 0l-2.53 5.129-5.661.823a1.749 1.749 0 0 0 -.97 2.984zm3.949-4.47a1.746 1.746 0 0 0 1.317-.957l1.37-2.775 1.37 2.775a1.746 1.746 0 0 0 1.318.957l3.063.445-2.217 2.161a1.75 1.75 0 0 0 -.5 1.549l.523 3.05-2.739-1.44a1.753 1.753 0 0 0 -1.63 0l-2.739 1.44.523-3.05a1.75 1.75 0 0 0 -.5-1.549l-2.223-2.161z" fill="url(#b)"/><path d="m41 54.621-.967 5.638a1.749 1.749 0 0 0 2.539 1.841l5.064-2.661 5.064 2.661a1.749 1.749 0 0 0 2.539-1.844l-.967-5.638 4.1-3.994a1.75 1.75 0 0 0 -.97-2.984l-5.661-.823-2.532-5.13a1.751 1.751 0 0 0 -3.139 0l-2.531 5.13-5.662.823a1.749 1.749 0 0 0 -.97 2.984zm3.948-4.47a1.747 1.747 0 0 0 1.318-.957l1.37-2.775 1.369 2.775a1.747 1.747 0 0 0 1.318.957l3.062.446-2.216 2.16a1.749 1.749 0 0 0 -.5 1.549l.523 3.049-2.742-1.439a1.751 1.751 0 0 0 -1.629 0l-2.739 1.439.523-3.049a1.749 1.749 0 0 0 -.5-1.549l-2.219-2.157z" fill="url(#c)"/><path d="m69.19 48.833a1.749 1.749 0 0 0 .442 1.794l4.1 3.994-.967 5.638a1.749 1.749 0 0 0 2.535 1.841l5.063-2.661 5.065 2.661a1.749 1.749 0 0 0 2.539-1.844l-.967-5.635 4.1-3.994a1.749 1.749 0 0 0 -.97-2.984l-5.662-.823-2.531-5.13a1.751 1.751 0 0 0 -3.139 0l-2.532 5.13-5.661.823a1.745 1.745 0 0 0 -1.415 1.19zm8.487 1.318a1.747 1.747 0 0 0 1.323-.957l1.369-2.775 1.37 2.775a1.747 1.747 0 0 0 1.318.957l3.062.446-2.219 2.16a1.749 1.749 0 0 0 -.5 1.549l.523 3.049-2.739-1.439a1.751 1.751 0 0 0 -1.629 0l-2.739 1.439.523-3.049a1.749 1.749 0 0 0 -.5-1.549l-2.224-2.157z" fill="url(#d)"/></svg>