<svg height="512" viewBox="0 0 128 128" width="512" xmlns="http://www.w3.org/2000/svg" xmlns:xlink="http://www.w3.org/1999/xlink"><linearGradient id="a" gradientUnits="userSpaceOnUse" x1="109.234" x2="18.766" y1="109.231" y2="18.763"><stop offset="0" stop-color="#29bff8"/><stop offset="1" stop-color="#1e97f6"/></linearGradient><path d="m64 0a64 64 0 1 0 64 64 64.072 64.072 0 0 0 -64-64zm0 124.5a60.5 60.5 0 1 1 60.5-60.5 60.569 60.569 0 0 1 -60.5 60.5zm56-60.5a56 56 0 1 1 -74.111-53 1.75 1.75 0 0 1 1.135 3.311 52.511 52.511 0 1 0 16.976-2.811 1.75 1.75 0 0 1 0-3.5 56.063 56.063 0 0 1 56 56zm-53.525 0 20.262 20.263a1.749 1.749 0 1 1 -2.474 2.474l-20.263-20.262-20.263 20.262a1.749 1.749 0 0 1 -2.474-2.474l20.262-20.263-20.262-20.263a1.749 1.749 0 0 1 2.474-2.474l20.263 20.262 20.263-20.262a1.749 1.749 0 1 1 2.474 2.474zm21.484 12.291-3.429-3.429a1.75 1.75 0 0 1 2.475-2.474l3.429 3.428a1.75 1.75 0 1 1 -2.475 2.475zm13.606-33.239-22.185 22.185a1.75 1.75 0 1 1 -2.475-2.474l20.947-20.948-11.667-11.668-20.948 20.953a1.8 1.8 0 0 1 -2.474 0l-20.948-20.953-11.668 11.668 20.953 20.948a1.75 1.75 0 0 1 0 2.474l-20.953 20.948 11.668 11.668 20.948-20.948a1.8 1.8 0 0 1 2.474 0l20.948 20.948 11.668-11.668-2.269-2.269a1.75 1.75 0 0 1 2.475-2.475l3.506 3.507a1.751 1.751 0 0 1 0 2.475l-14.143 14.142a1.748 1.748 0 0 1 -2.474 0l-20.948-20.948-20.948 20.948a1.8 1.8 0 0 1 -2.474 0l-14.143-14.142a1.749 1.749 0 0 1 0-2.475l20.948-20.948-20.948-20.948a1.749 1.749 0 0 1 0-2.475l14.143-14.142a1.748 1.748 0 0 1 2.474 0l20.948 20.948 20.948-20.948a1.8 1.8 0 0 1 2.474 0l14.143 14.142a1.751 1.751 0 0 1 0 2.475z" fill="url(#a)"/></svg>