<svg id="Layer_1" enable-background="new 0 0 128 128" height="512" viewBox="0 0 128 128" width="512" xmlns="http://www.w3.org/2000/svg" xmlns:xlink="http://www.w3.org/1999/xlink"><linearGradient id="SVGID_1_" gradientTransform="matrix(1 0 0 -1 0 127.89)" gradientUnits="userSpaceOnUse" x1="112.896" x2="15.104" y1="14.988" y2="112.781"><stop offset="0" stop-color="#29bff8"/><stop offset="1" stop-color="#1e97f6"/></linearGradient><path d="m61.4 80.2.4-2.8c.1-1 1-1.6 2-1.5s1.6 1 1.5 2v.1l-.3 1.9h.3c1 0 1.7.8 1.7 1.7s-.8 1.7-1.7 1.7h-1.2c-1.6.1-2.9-1.4-2.7-3.1zm9.2-2.1c1.8 0 3.2-1.4 3.2-3.2s-1.4-3.2-3.2-3.2-3.2 1.4-3.2 3.2 1.4 3.2 3.2 3.2zm-11.8 6.6c-.7.6-.9 1.7-.2 2.5 2.9 3 7.9 3.1 10.7 0 .7-.7.5-1.8-.2-2.5-.7-.6-1.8-.5-2.5.2-1.1 1.1-3.6 1.6-5.3.1-.6-.8-1.7-.9-2.5-.3zm1.8-9.8c0-1.8-1.4-3.2-3.2-3.2s-3.2 1.4-3.2 3.2 1.4 3.2 3.2 3.2 3.2-1.4 3.2-3.2zm14-20.5c-.7-.6-1.8-.5-2.5.2-.6.7-.5 1.8.2 2.5.6.5 1.1 1 1.6 1.6.6.7 1.7.8 2.5.2.7-.6.8-1.7.2-2.5-.5-.7-1.2-1.4-2-2zm24.3 62.6v9.2c0 1-.8 1.7-1.7 1.7h-66.3c-1 0-1.7-.8-1.7-1.7v-9.2c0-6.8 4.6-12.8 11.1-14.6 3.2-.8 5.5-.9 10.7-1.2 1.5-.1 2.5-.7 2.9-2.3l.5-4c-3.3-2.8-4.7-6.3-5.5-10.7-3.5.2-6.2-2.5-6.2-5.8 0-2.8 1.9-5.1 4.6-5.7v-5.3c0-9.2 7.5-16.7 16.7-16.7 1 0 1.7.8 1.7 1.7s-.7 1.7-1.7 1.7c-7.3 0-13.2 5.9-13.2 13.2v.7h1.6c1.7 0 3.3-.8 4.3-2.2l1.9-2.7c.7-1 2.2-1 2.9 0l1.9 2.7c1 1.4 2.6 2.2 4.3 2.2h9.5v-.7c0-1 .8-1.7 1.7-1.7 1 0 1.7.8 1.7 1.7v5.3c3.1.7 5.1 3.9 4.3 7-.6 2.7-3.1 4.6-5.9 4.5-.7 4.4-2.1 7.9-5.5 10.7l.5 4.1c.2 1.5 1.4 2 3.1 2.2 4.2.5 6.9.3 10.5 1.2 6.7 1.9 11.3 7.9 11.3 14.7zm-22.6-12.4c-.8-.1-1.6-.4-2.3-.7l-6.7 5.1 6 3.2zm4.3-28.2c-.2 1.4-.5 2.8-.8 4.2 2.1-.5 2.5-3.1.8-4.2zm-32.4 4.2c-.4-1.4-.6-2.9-.8-4.3-1.9 1.1-1.4 4 .8 4.3zm5.3 7.2c3.8 9.4 17.2 9.4 21 0 1.1-3 1.6-7.2 2.4-10.3.2-.8.3-1.6.3-2.4v-3.6h-9.6c-2.8 0-5.5-1.4-7.2-3.7l-.4-.7-.5.7c-1.6 2.3-4.3 3.7-7.2 3.7h-1.6v3.5c0 .6.1 1.2.2 1.8.3 1.4 2.1 9.5 2.6 11zm4.1 9.1c-.3 1.8-.1 2.7-1 4.4l7.4 5.7 7.3-5.6c-.9-2-.5-2.1-1-4.5-4 1.9-8.6 1.9-12.7 0zm-5.8 7.7 3 7.5 6-3.2-6.6-5.1c-.8.5-1.6.7-2.4.8zm43.6 12.4c0-5.2-3.5-9.8-8.6-11.2-2.3-.6-3.5-.6-7-.8l-4.1 10.3c-.4 1-1.5 1.4-2.4.9l-9.4-4.9-9.4 4.9c-.9.5-2.1.1-2.4-.9l-4.1-10.3c-1.7.1-3.7.1-6.9.9-5.1 1.4-8.6 6-8.6 11.2v7.5h62.8v-7.6zm-53.5-98.7c-1-1-.4-2.8 1-3l13.5-2 6-12.3c.6-1.3 2.5-1.3 3.1 0l6.1 12.3 13.5 2c1.4.2 2 2 1 3l-9.8 9.6 2.3 13.5c.2 1.4-1.3 2.5-2.5 1.8l-12.1-6.4-12.1 6.4c-1.3.7-2.8-.4-2.5-1.8l2.3-13.5zm4.9-.1 7.9 7.7c.4.4.6 1 .5 1.5l-1.9 10.9 9.8-5.1c.5-.3 1.1-.3 1.6 0l9.8 5.1-1.9-10.9c-.1-.6.1-1.1.5-1.5l7.9-7.7-10.9-1.6c-.6-.1-1.1-.4-1.3-1l-4.8-9.8-4.9 9.9c-.3.5-.7.9-1.3 1zm80.6 13.9-7.8 7.6 1.8 10.7c.3 1.4-1.3 2.5-2.5 1.8l-9.6-5-9.6 5c-1.3.7-2.8-.4-2.5-1.8l1.8-10.7-7.8-7.6c-1-1-.4-2.8 1-3l10.7-1.6 4.8-9.7c.6-1.3 2.5-1.3 3.1 0l4.8 9.7 10.7 1.6c1.6.3 2.1 2 1.1 3zm-5 0-8.1-1.2c-.6-.1-1.1-.4-1.3-1l-3.6-7.4-3.6 7.4c-.3.5-.7.9-1.3 1l-8.1 1.2 5.9 5.7c.4.4.6 1 .5 1.5l-1.4 8.1 7.3-3.8c.5-.3 1.1-.3 1.6 0l7.3 3.8-1.4-8.1c-.1-.6.1-1.1.5-1.5zm-91.6 18.3-1.8-10.7 7.8-7.6c1-1 .4-2.8-1-3l-10.8-1.5-4.8-9.7c-.4-.9-1.5-1.2-2.3-.8-.9.4-1.2 1.5-.8 2.3l5.2 10.6c.3.5.7.9 1.3 1l8.1 1.2-5.9 5.7c-.4.4-.6 1-.5 1.5l1.4 8.1-7.3-3.8c-.5-.3-1.1-.3-1.6 0l-7.3 3.8 1.4-8.1c.1-.6-.1-1.1-.5-1.5l-5.9-5.7 8.1-1.2c1-.2 1.6-1.1 1.4-2s-1-1.6-1.9-1.4l-11.5 1.5c-1.4.2-2 2-1 3l7.8 7.6-1.9 10.7c-.3 1.4 1.3 2.5 2.5 1.8l9.6-5 9.6 5c1.3.7 2.8-.4 2.6-1.8z" fill="url(#SVGID_1_)"/></svg>