<svg height="512" viewBox="0 0 128 128" width="512" xmlns="http://www.w3.org/2000/svg" xmlns:xlink="http://www.w3.org/1999/xlink"><linearGradient id="a" gradientUnits="userSpaceOnUse" x1="112.914" x2="5.002" y1="103.935" y2="-3.978"><stop offset="0" stop-color="#29bff8"/><stop offset="1" stop-color="#1e97f6"/></linearGradient><path d="m15.471 85.342a7.479 7.479 0 0 0 7.471-7.471v-6.41a7.471 7.471 0 1 0 -14.942 0v6.41a7.48 7.48 0 0 0 7.471 7.471zm-3.971-13.881a3.971 3.971 0 1 1 7.942 0v6.41a3.971 3.971 0 0 1 -7.942 0zm47.808 13.071a1.748 1.748 0 0 1 -2.416.535c-1.294-.824-2.64-1.595-4-2.293a1.75 1.75 0 0 1 1.595-3.115c1.459.747 2.9 1.573 4.287 2.457a1.75 1.75 0 0 1 .534 2.416zm65.326-9.5a9.726 9.726 0 0 1 -7.33 3.332h-22.3l4.763 31.148a13.113 13.113 0 0 1 -5.867 13.015l-8.092 5.2a1.753 1.753 0 0 1 -.946.277 1.75 1.75 0 0 1 -1.632-1.121l-7-18.18a48.759 48.759 0 0 0 -8.377-14.091 1.75 1.75 0 0 1 2.666-2.267 52.237 52.237 0 0 1 8.976 15.1l6.234 16.176 6.286-4.036a9.615 9.615 0 0 0 4.306-9.537l-5.082-33.165a1.75 1.75 0 0 1 1.73-2.015h24.331a6.227 6.227 0 0 0 6.171-7.07l-.082-.605a6.252 6.252 0 0 0 -6.171-5.386h-5.24a1.75 1.75 0 0 1 0-3.5h3.062a6.229 6.229 0 0 0 6.171-7.072l-.475-3.478a6.251 6.251 0 0 0 -6.171-5.387h-4.21a1.75 1.75 0 0 1 0-3.5h2.033a6.226 6.226 0 0 0 6.169-7.069l-.474-3.481a6.249 6.249 0 0 0 -6.171-5.385h-3.181a1.75 1.75 0 1 1 0-3.5h1a6.229 6.229 0 0 0 0-12.457h-49.978a11.855 11.855 0 0 0 -9.667 5.006 15.353 15.353 0 0 1 -12.525 6.489h-6.619v56.4h9.495a1.75 1.75 0 0 1 0 3.5h-9.495v13.219a1.75 1.75 0 0 1 -1.75 1.75h-27.442a1.75 1.75 0 0 1 -1.75-1.75v-89.843a1.75 1.75 0 0 1 3.5 0v88.093h23.942v-86.342h-15.63a1.75 1.75 0 0 1 0-3.5h17.38a1.75 1.75 0 0 1 1.75 1.75v13.223h6.619a11.851 11.851 0 0 0 9.667-5.008 15.352 15.352 0 0 1 12.525-6.487h49.986a9.728 9.728 0 0 1 7.329 16.122 9.6 9.6 0 0 1 -.838.849 9.763 9.763 0 0 1 5.326 7.4l.474 3.479a9.739 9.739 0 0 1 -3.147 8.561 9.758 9.758 0 0 1 5.325 7.4l.475 3.479a9.733 9.733 0 0 1 -2.31 7.714 9.868 9.868 0 0 1 -.838.848 9.757 9.757 0 0 1 5.325 7.4l.082.6a9.723 9.723 0 0 1 -2.308 7.706z" fill="url(#a)"/></svg>