<?xml version="1.0" encoding="UTF-8"?>
<svg xmlns="http://www.w3.org/2000/svg" xmlns:xlink="http://www.w3.org/1999/xlink" width="512" height="512" viewBox="0 0 128 128"><defs><linearGradient id="a" x1="115.742" y1="106.18" x2="12.258" y2="2.695" gradientUnits="userSpaceOnUse"><stop offset="0" stop-color="#29bff8"/><stop offset="1" stop-color="#1e97f6"/></linearGradient></defs><path d="M44.521,23.688h-9.07a1.749,1.749,0,0,0-1.75,1.75V67.292a1.75,1.75,0,0,0,1.75,1.75h9.07a1.751,1.751,0,0,0,1.75-1.75V62.066h6.578A21.712,21.712,0,0,1,68.82,75.6l3.264,8.469a1.748,1.748,0,0,0,2.578.843l3.77-2.421A7.046,7.046,0,0,0,81.588,75.5L79.533,62.066h9.3a5.468,5.468,0,0,0,5.417-6.206,1.751,1.751,0,0,0-3.469.473,1.968,1.968,0,0,1-1.948,2.233H77.5a1.748,1.748,0,0,0-1.729,2.015l2.363,15.448a3.547,3.547,0,0,1-1.588,3.515l-1.963,1.261-2.492-6.466A25.2,25.2,0,0,0,53.363,58.6a1.765,1.765,0,0,0-.34-.033H46.271v-24.4h5.413a8.09,8.09,0,0,0,6.6-3.417,4.583,4.583,0,0,1,3.739-1.938H85.308a1.973,1.973,0,0,1,1.948,1.7,1.968,1.968,0,0,1-1.948,2.233H84.84a1.75,1.75,0,0,0,0,3.5h1.482a1.972,1.972,0,0,1,1.948,1.7l.221,1.623A1.965,1.965,0,0,1,86.543,41.8H85.6a1.75,1.75,0,0,0,0,3.5h1.961A1.973,1.973,0,0,1,89.506,47a1.751,1.751,0,0,0,3.469-.473,5.464,5.464,0,0,0-1.988-3.51,5.47,5.47,0,0,0,.973-3.923l-.222-1.623a5.461,5.461,0,0,0-1.987-3.509,5.466,5.466,0,0,0-4.443-8.651H62.021a8.09,8.09,0,0,0-6.6,3.418,4.585,4.585,0,0,1-3.739,1.937H46.271V25.438A1.75,1.75,0,0,0,44.521,23.688Zm-1.75,41.854H37.2V27.188h5.57V65.542ZM0,69.372V64a1.75,1.75,0,0,1,3.5,0v5.375a1.75,1.75,0,0,1-3.5,0ZM128,19.813v69.25a11.764,11.764,0,0,1-11.75,11.75H84.672L65.21,119.451a1.747,1.747,0,0,1-2.42,0L43.329,100.813H11.75A11.763,11.763,0,0,1,0,89.063V81.125a1.75,1.75,0,0,1,3.5,0v7.938a8.26,8.26,0,0,0,8.25,8.25H44.031a1.752,1.752,0,0,1,1.211.486L64,115.764,82.758,97.8a1.752,1.752,0,0,1,1.211-.486H116.25a8.26,8.26,0,0,0,8.25-8.25V19.813a8.259,8.259,0,0,0-8.25-8.25H11.75a8.259,8.259,0,0,0-8.25,8.25V52.244a1.75,1.75,0,0,1-3.5,0V19.813A11.763,11.763,0,0,1,11.75,8.063h104.5A11.763,11.763,0,0,1,128,19.813Z" fill="url(#a)"/></svg>
