<svg id="Layer_1" enable-background="new 0 0 128 128" height="512" viewBox="0 0 128 128" width="512" xmlns="http://www.w3.org/2000/svg" xmlns:xlink="http://www.w3.org/1999/xlink"><linearGradient id="SVGID_1_" gradientTransform="matrix(1 0 0 -1 0 127.89)" gradientUnits="userSpaceOnUse" x1="122.348" x2="5.656" y1="-4.6" y2="112.092"><stop offset="0" stop-color="#29bff8"/><stop offset="1" stop-color="#1e97f6"/></linearGradient><path d="m101.2 95.7c.6.7.5 1.8-.2 2.5-.7.6-1.8.5-2.4-.1l-2-2.2c-.6-.7-.5-1.8.2-2.5.7-.6 1.8-.5 2.4.1zm26.7 30.5c0 1-.8 1.7-1.7 1.7h-124.4c-.9 0-1.7-.7-1.7-1.6v-.1-71.2c0-.5.3-1 .7-1.4l19.6-15.5v-36.3c0-1 .8-1.7 1.7-1.7h83.8c1 0 1.7.8 1.7 1.7v36.4l19.6 15.5c.4.3.6.8.7 1.4zm-20.3-83.6v22.2l15.5-10zm-83.7-3.6v28l18.3 11.7 20.6-22.9c.7-.8 1.9-.8 2.6 0l20.6 22.9 18.3-11.7v-63.4h-80.4zm-20.3 19.2v63.4l36.2-40.2zm1.2-3.3 15.5 10v-22.3zm117.5 69.5-17.5-19.4c-.6-.7-.5-1.8.2-2.5.7-.6 1.8-.5 2.4.1l17 18.9v-63.3l-36.2 23.2 4.6 5.2c.6.7.5 1.8-.2 2.5-.7.6-1.8.5-2.4-.1l-26.2-29.3-58.3 64.7zm-88.2-104.1-.8 4.9c-.2 1.4 1.3 2.5 2.5 1.8l4.4-2.3 4.4 2.3c1.3.7 2.8-.4 2.5-1.8l-.8-4.9 3.5-3.5c.7-.7.7-1.8.1-2.5-.7-.7-1.8-.7-2.5-.1l-4.2 4.1c-.4.4-.6 1-.5 1.5l.4 2.3-2.1-.9c-.5-.3-1.1-.3-1.6 0l-2.1 1.1.4-2.3c.1-.6-.1-1.1-.5-1.5l-1.7-1.6 2.3-.3c.6-.1 1.1-.4 1.3-1l2.6-5.3c.4-.9.1-1.9-.8-2.3s-1.9-.1-2.3.8l-2.2 4.4-4.9.7c-1.4.2-2 2-1 3zm20.3-3.4c-1-1-.4-2.8 1-3l4.9-.7 2.2-4.4c.6-1.3 2.5-1.3 3.1 0l2.2 4.4 4.9.7c1.4.2 2 2 1 3l-3.5 3.5.8 4.9c.2 1.4-1.3 2.5-2.5 1.8l-4.5-2.3-4.4 2.3c-1.3.7-2.8-.4-2.5-1.8l.8-4.9zm5 0 1.7 1.6c.4.4.6 1 .5 1.5l-.4 2.3 2.1-1.1c.5-.3 1.1-.3 1.6 0l2.1 1.1-.5-2.3c-.1-.6.1-1.1.5-1.5l1.7-1.6-2.3-.3c-.6-.1-1.1-.4-1.3-1l-1-2.1-1 2.1c-.3.5-.7.9-1.3 1zm18.8 0c-1-1-.4-2.8 1-3l4.9-.7 2.2-4.4c.6-1.3 2.5-1.3 3.1 0l2.2 4.4 4.9.7c1.4.2 2 2 1 3l-3.5 3.5.8 4.9c.2 1.4-1.3 2.5-2.5 1.8l-4.4-2.3-4.4 2.3c-1.3.7-2.8-.4-2.5-1.8l.8-4.9zm5 0 1.7 1.6c.4.4.6 1 .5 1.5l-.4 2.3 2.1-1.1c.5-.3 1.1-.3 1.6 0l2.1 1.1-.5-2.3c-.1-.6.1-1.1.5-1.5l1.7-1.6-2.3-.3c-.6-.1-1.1-.4-1.3-1l-1-2.1-1 2.1c-.3.5-.7.9-1.3 1zm-51.4 20.9h64.5c1 0 1.7-.8 1.7-1.7s-.8-1.7-1.7-1.7h-64.5c-1 0-1.7.8-1.7 1.7s.7 1.7 1.7 1.7zm57.9 7.2h-51.4c-1 0-1.7.8-1.7 1.7s.8 1.7 1.7 1.7h51.3c1 0 1.7-.8 1.7-1.7s-.7-1.7-1.6-1.7z" fill="url(#SVGID_1_)"/></svg>