<svg id="Layer_1" enable-background="new 0 0 128 128" height="512" viewBox="0 0 128 128" width="512" xmlns="http://www.w3.org/2000/svg" xmlns:xlink="http://www.w3.org/1999/xlink"><linearGradient id="SVGID_1_" gradientTransform="matrix(1 0 0 -1 0 127.89)" gradientUnits="userSpaceOnUse" x1="109.641" x2="18.362" y1="19.169" y2="110.447"><stop offset="0" stop-color="#29bff8"/><stop offset="1" stop-color="#1e97f6"/></linearGradient><path d="m127.5 88.4c-1.1-1.3-27.9-30.1-61.8-31.5-1.5-.1-2-.1-3.5 0-33.8 1.5-60.6 30.3-61.7 31.5-.6.7-.6 1.7 0 2.3 1.1 1.3 27.9 30.1 61.8 31.5 1.5.1 1.9.1 3.5 0 33.9-1.4 60.6-30.2 61.8-31.5.5-.6.5-1.6-.1-2.3zm-123.3 1.2c4.2-4.2 19.5-18.9 39.6-25.7-14.2 11.1-16.7 31.7-5.5 45.9 1.6 2.1 3.5 3.9 5.5 5.5-20.1-6.8-35.4-21.4-39.6-25.7zm59.8-29.2c16.1 0 29.2 13.1 29.2 29.2s-13.1 29.2-29.2 29.2-29.2-13.1-29.2-29.2 13.1-29.2 29.2-29.2zm20.2 54.9c14.2-11.1 16.7-31.7 5.5-45.9-1.6-2.1-3.5-3.9-5.5-5.5 20 6.8 35.4 21.4 39.6 25.7-4.2 4.3-19.5 18.9-39.6 25.7zm-44.9-25.7c0-13.6 11-24.7 24.7-24.7 1 0 1.7.8 1.7 1.7s-.7 1.8-1.7 1.8c-11.7 0-21.2 9.5-21.2 21.2s9.5 21.2 21.2 21.2 21.2-9.5 21.2-21.2c0-2.6-.5-5.2-1.4-7.7-.4-.9.1-1.9 1-2.3s1.9.1 2.3 1v.1c4.9 12.7-1.4 27.1-14.1 32s-27.1-1.4-32-14.1c-1.2-2.9-1.7-5.9-1.7-9zm33.3-21.4c.4-.9 1.5-1.2 2.3-.8 1.4.7 2.7 1.5 3.9 2.4.8.6.9 1.7.3 2.4-.6.8-1.7.9-2.4.3-1-.8-2.2-1.5-3.3-2.1-.9-.2-1.2-1.3-.8-2.2zm-20.9-34.8-2.3 13.5c-.2 1.4 1.3 2.5 2.5 1.8l12.1-6.3 12.1 6.4c1.3.7 2.8-.4 2.5-1.8l-2.3-13.5 9.8-9.6c1-1 .4-2.8-1-3l-13.5-2-6-12.3c-.6-1.3-2.5-1.3-3.1 0l-6.1 12.3-13.5 2c-1.4.2-2 2-1 3zm6.1-11.2c.6-.1 1.1-.4 1.3-1l4.9-9.9 4.9 9.9c.3.5.7.9 1.3 1l10.9 1.6-7.9 7.7c-.4.4-.6 1-.5 1.5l1.9 11-9.8-5.1c-.5-.3-1.1-.3-1.6 0l-9.8 5.1 1.9-10.9c.1-.6-.1-1.1-.5-1.5l-7.9-7.7zm41.3 23.1-1.9 10.7c-.2 1.4 1.3 2.5 2.5 1.8l9.6-5 9.6 5c1.3.7 2.8-.4 2.5-1.8l-1.8-10.7 7.8-7.6c1-1 .4-2.8-1-3l-10.7-1.6-4.8-9.7c-.6-1.3-2.5-1.3-3.1 0l-4.8 9.7-10.7 1.6c-1.4.2-2 2-1 3zm5.3-8.8c.6-.1 1.1-.4 1.3-1l3.6-7.4 3.6 7.4c.3.5.7.9 1.3 1l8.1 1.2-5.9 5.7c-.4.4-.6 1-.5 1.5l1.4 8.1-7.3-3.8c-.5-.3-1.1-.3-1.6 0l-7.3 3.8 1.4-8.1c.1-.6-.1-1.1-.5-1.5l-5.9-5.7zm-103.8 1.2c-1-1-.4-2.8 1-3l10.7-1.6 4.8-9.7c.6-1.3 2.5-1.3 3.1 0l4.8 9.7 10.7 1.6c1 .1 1.6 1 1.5 1.9-.1 1-1 1.7-2 1.5l-11.6-1.7c-.6-.1-1.1-.4-1.3-1l-3.6-7.4-3.7 7.6c-.3.5-.7.9-1.3 1l-8.1 1.2 5.9 5.7c.4.4.6 1 .5 1.5l-1.4 8.1 7.3-3.8c.5-.3 1.1-.3 1.6 0l7.3 3.8-1.5-8.1c-.2-.9.4-1.9 1.4-2 .9-.2 1.9.4 2 1.4v.1l2 11.6c.2 1.4-1.3 2.5-2.5 1.8l-9.6-5-9.6 5c-1.3.7-2.8-.4-2.5-1.8l1.8-10.7z" fill="url(#SVGID_1_)"/></svg>