<?xml version="1.0" encoding="UTF-8"?>
<svg xmlns="http://www.w3.org/2000/svg" xmlns:xlink="http://www.w3.org/1999/xlink" width="512" height="512" viewBox="0 0 128 128"><defs><linearGradient id="a" x1="121.144" y1="121.143" x2="6.856" y2="6.854" gradientUnits="userSpaceOnUse"><stop offset="0" stop-color="#29bff8"/><stop offset="1" stop-color="#1e97f6"/></linearGradient></defs><path d="M113.562,0H14.437a1.751,1.751,0,0,0-1.75,1.75v124.5a1.751,1.751,0,0,0,2.406,1.623L64,108.121l48.907,19.752a1.75,1.75,0,0,0,2.405-1.623V1.747A1.75,1.75,0,0,0,113.562,0Zm-1.75,123.659L64.655,104.611a1.753,1.753,0,0,0-1.31,0L16.187,123.656V3.5h4.5v110.9a1.751,1.751,0,0,0,2.406,1.622L64,99.493l40.907,16.521a1.75,1.75,0,0,0,2.405-1.622V25.854a1.75,1.75,0,0,0-3.5,0V111.8L64.655,95.983a1.756,1.756,0,0,0-1.31,0L24.187,111.8V3.5h79.625V13.875a1.75,1.75,0,0,0,3.5,0V3.5h4.5Zm-11.56-79.4a5.486,5.486,0,0,1-1.4,5.658L85.432,63,88.6,81.478A5.512,5.512,0,0,1,80.593,87.3L64,78.573,47.407,87.3A5.519,5.519,0,0,1,39.4,81.478L42.724,62.1a1.75,1.75,0,1,1,3.449.591L42.849,82.07A2.018,2.018,0,0,0,45.778,84.2l17.407-9.151a1.745,1.745,0,0,1,1.629,0L82.222,84.2a2.018,2.018,0,0,0,2.929-2.128L81.827,62.686a1.748,1.748,0,0,1,.5-1.548L96.413,47.41a2.019,2.019,0,0,0-1.119-3.444L75.831,41.138a1.752,1.752,0,0,1-1.317-.957l-8.7-17.636a2.019,2.019,0,0,0-3.621,0l-8.7,17.636a1.752,1.752,0,0,1-1.317.957L32.706,43.966a2.019,2.019,0,0,0-1.119,3.444,1.75,1.75,0,0,1-2.443,2.506A5.52,5.52,0,0,1,32.2,40.5l18.553-2.695L59.051,21a5.518,5.518,0,0,1,9.9,0l8.3,16.811L95.8,40.5A5.484,5.484,0,0,1,100.252,44.258ZM39.745,57.807a1.751,1.751,0,0,1-2.475.031L35.1,55.722a1.75,1.75,0,1,1,2.443-2.506l2.171,2.116A1.75,1.75,0,0,1,39.745,57.807Zm47.83-9.429a1.749,1.749,0,0,0-1.412-1.192L71.934,45.119,65.569,32.225a1.749,1.749,0,0,0-3.138,0L56.066,45.119,41.837,47.186a1.751,1.751,0,0,0-.97,2.985l10.3,10.037L48.733,74.381a1.751,1.751,0,0,0,2.539,1.845L64,69.535l12.727,6.691a1.751,1.751,0,0,0,2.54-1.845L76.836,60.208l10.3-10.037A1.75,1.75,0,0,0,87.575,48.378ZM73.733,58.345a1.752,1.752,0,0,0-.5,1.549l1.988,11.583-10.4-5.468a1.751,1.751,0,0,0-1.629,0l-10.4,5.468,1.987-11.583a1.748,1.748,0,0,0-.5-1.549l-8.417-8.2,11.63-1.69a1.752,1.752,0,0,0,1.318-.957L64,36.953l5.2,10.54a1.752,1.752,0,0,0,1.317.957L82.15,50.14Z" fill="url(#a)"/></svg>
