<?xml version="1.0" encoding="UTF-8"?>
<svg xmlns="http://www.w3.org/2000/svg" xmlns:xlink="http://www.w3.org/1999/xlink" width="512" height="512" viewBox="0 0 128 128"><defs><linearGradient id="a" x1="96.724" y1="98.187" x2="32.434" y2="33.897" gradientUnits="userSpaceOnUse"><stop offset="0" stop-color="#29bff8"/><stop offset="1" stop-color="#1e97f6"/></linearGradient></defs><path d="M72.373,78.353H59.413l2.818-18.424a8.758,8.758,0,0,0-3.922-8.686l-4.988-3.2a1.751,1.751,0,0,0-2.578.843l-4.318,11.2a29.288,29.288,0,0,1-21.6,18.265H15.5V70.874a1.751,1.751,0,0,0-1.75-1.75h-12A1.751,1.751,0,0,0,0,70.874v55.373A1.751,1.751,0,0,0,1.75,128h12a1.751,1.751,0,0,0,1.75-1.75v-7.479h7.726a6.63,6.63,0,0,1,5.409,2.8,10.134,10.134,0,0,0,8.268,4.282H64.125a1.75,1.75,0,0,0,0-3.5H36.9a6.631,6.631,0,0,1-5.409-2.8,10.135,10.135,0,0,0-8.268-4.283H15.5V81.853H25a1.765,1.765,0,0,0,.34-.033A32.77,32.77,0,0,0,49.691,61.347l3.546-9.2,3.181,2.043A5.254,5.254,0,0,1,58.771,59.4L55.645,79.838a1.75,1.75,0,0,0,1.73,2.015h15a3.166,3.166,0,0,1,3.138,3.6l-.051.373a3.178,3.178,0,0,1-3.138,2.738H69.094a1.75,1.75,0,0,0,0,3.5H70.98a3.168,3.168,0,0,1,3.138,3.6L73.825,97.8a3.178,3.178,0,0,1-3.138,2.739H68.093a1.75,1.75,0,0,0,0,3.5h1.253a3.166,3.166,0,0,1,3.137,3.595l-.293,2.145a3.178,3.178,0,0,1-3.137,2.739H67.092a1.75,1.75,0,1,0,0,3.5h.619a3.166,3.166,0,0,1,3.138,3.595,1.75,1.75,0,0,0,3.468.473,6.666,6.666,0,0,0-1.529-5.222,6.676,6.676,0,0,0,2.871-4.612l.293-2.145a6.668,6.668,0,0,0-1.529-5.222,6.676,6.676,0,0,0,2.871-4.612l.293-2.145a6.668,6.668,0,0,0-1.529-5.222,6.675,6.675,0,0,0,2.871-4.613l.05-.372a6.667,6.667,0,0,0-6.606-7.569ZM12,124.5H3.5V72.624H12V124.5ZM76.886,1.747A1.75,1.75,0,0,1,78.636,0h6.978a1.75,1.75,0,0,1,0,3.5H78.636A1.75,1.75,0,0,1,76.886,1.747Zm51.114,5V41.406a6.758,6.758,0,0,1-6.75,6.75H105.329L86.669,62.029a1.749,1.749,0,0,1-2.794-1.4V48.156H69.125a6.758,6.758,0,0,1-6.75-6.75V6.747A6.758,6.758,0,0,1,69.125,0a1.75,1.75,0,0,1,0,3.5,3.254,3.254,0,0,0-3.25,3.25V41.406a3.254,3.254,0,0,0,3.25,3.25h16.5a1.75,1.75,0,0,1,1.75,1.75V57.143L103.706,45a1.747,1.747,0,0,1,1.044-.346h16.5a3.254,3.254,0,0,0,3.25-3.25V6.747a3.254,3.254,0,0,0-3.25-3.25H95.125a1.75,1.75,0,0,1,0-3.5H121.25A6.758,6.758,0,0,1,128,6.747ZM106.3,21.4a1.749,1.749,0,0,0-1.412-1.192l-5.662-.822-2.532-5.13a1.75,1.75,0,0,0-3.138,0l-2.532,5.13-5.662.822a1.751,1.751,0,0,0-.969,2.986l4.1,3.993-.967,5.638a1.75,1.75,0,0,0,2.539,1.844l5.064-2.661,5.063,2.661a1.75,1.75,0,0,0,2.539-1.844l-.966-5.638,4.1-3.993A1.75,1.75,0,0,0,106.3,21.4Zm-7.642,3.922a1.755,1.755,0,0,0-.5,1.55l.524,3.05-2.74-1.44a1.751,1.751,0,0,0-1.629,0l-2.739,1.44.524-3.05a1.755,1.755,0,0,0-.5-1.55l-2.217-2.16,3.063-.445a1.752,1.752,0,0,0,1.318-.957l1.369-2.775,1.369,2.775a1.752,1.752,0,0,0,1.317.957l3.064.445Z" fill="url(#a)"/></svg>
