<svg height="512" viewBox="0 0 128 128" width="512" xmlns="http://www.w3.org/2000/svg" xmlns:xlink="http://www.w3.org/1999/xlink"><linearGradient id="a" gradientUnits="userSpaceOnUse" x1="113.67" x2="21.682" y1="115.813" y2="23.824"><stop offset="0" stop-color="#29bff8"/><stop offset="1" stop-color="#1e97f6"/></linearGradient><path d="m128 39.036a21.771 21.771 0 0 1 -6.42 15.5l-28.523 28.521a1.749 1.749 0 0 1 -2.475 0l-28.522-28.523a21.983 21.983 0 0 1 -6.13-19.062 1.75 1.75 0 1 1 3.454.567 18.478 18.478 0 0 0 5.151 16.021l27.285 27.285 27.285-27.285a18.419 18.419 0 0 0 -26.048-26.048 1.751 1.751 0 0 1 -2.475 0 18.417 18.417 0 0 0 -26.047 0 1.75 1.75 0 0 1 -2.475-2.475 21.92 21.92 0 0 1 29.76-1.147 21.919 21.919 0 0 1 36.18 16.646zm-36.18 58.1a1.75 1.75 0 0 0 0-3.5h-3.7a1.75 1.75 0 0 0 0 3.5zm27.806 6.25v5.747a1.751 1.751 0 0 1 -1.75 1.75h-58.113a1.749 1.749 0 0 1 -.969-.293l-29.56-19.642h-13.734v10.652a1.751 1.751 0 0 1 -1.75 1.75h-12a1.751 1.751 0 0 1 -1.75-1.75v-55.37a1.751 1.751 0 0 1 1.75-1.75h12a1.751 1.751 0 0 1 1.75 1.75v10.656h32.825a1.746 1.746 0 0 1 1.094.384l21.8 17.469a11.69 11.69 0 0 1 2.449 15.661l-2.144 3.232h7.476a1.75 1.75 0 0 1 0 3.5h-10.737a1.741 1.741 0 0 1 -.525-.088c-.048-.015-.091-.04-.138-.059a1.732 1.732 0 0 1 -.355-.2c-.023-.017-.052-.023-.075-.041l-22.716-18.2a1.75 1.75 0 1 1 2.189-2.731l21.221 17 2.887-4.352a8.209 8.209 0 0 0 -1.716-11l-21.325-17.075h-32.21v27.062h14.263a1.748 1.748 0 0 1 .968.293l29.56 19.642h55.835v-4a6.257 6.257 0 0 0 -6.25-6.25h-8.939a1.75 1.75 0 1 1 0-3.5h8.939a9.761 9.761 0 0 1 9.75 9.753zm-107.626-14.186v-41.22h-8.5v51.874h8.5zm90.552-43.74-4.1 3.993.966 5.638a1.75 1.75 0 0 1 -2.539 1.845l-5.059-2.664-5.064 2.662a1.75 1.75 0 0 1 -2.539-1.845l.967-5.638-4.1-3.993a1.75 1.75 0 0 1 .97-2.985l5.661-.823 2.531-5.13a1.751 1.751 0 0 1 3.139 0l2.532 5.13 5.661.823a1.75 1.75 0 0 1 .97 2.985zm-4.982-.031-3.063-.445a1.751 1.751 0 0 1 -1.318-.958l-1.369-2.777-1.37 2.775a1.749 1.749 0 0 1 -1.318.958l-3.062.445 2.216 2.16a1.749 1.749 0 0 1 .5 1.549l-.523 3.05 2.739-1.44a1.751 1.751 0 0 1 1.629 0l2.739 1.44-.522-3.05a1.748 1.748 0 0 1 .5-1.549z" fill="url(#a)"/></svg>