<svg height="512" viewBox="0 0 128 128" width="512" xmlns="http://www.w3.org/2000/svg" xmlns:xlink="http://www.w3.org/1999/xlink"><linearGradient id="a" gradientUnits="userSpaceOnUse" x1="109.234" x2="18.766" y1="109.231" y2="18.763"><stop offset="0" stop-color="#29bff8"/><stop offset="1" stop-color="#1e97f6"/></linearGradient><path d="m64 0a64 64 0 1 0 64 64 64.073 64.073 0 0 0 -64-64zm0 124.5a60.5 60.5 0 1 1 60.5-60.5 60.568 60.568 0 0 1 -60.5 60.5zm31.841-38q-.6.843-1.238 1.652a1.75 1.75 0 1 1 -2.744-2.172q.584-.737 1.127-1.5a1.75 1.75 0 1 1 2.855 2.02zm17.159-22.5a49 49 0 0 1 -98 0 1.751 1.751 0 0 1 1.75-1.75h10a1.751 1.751 0 0 1 1.75 1.75 35.483 35.483 0 0 0 56.021 28.949 1.75 1.75 0 1 1 2.029 2.851 38.983 38.983 0 0 1 -61.511-30.053h-6.506a45.5 45.5 0 0 0 90.934 0h-6.506a38.885 38.885 0 0 1 -1.273 8.3 1.75 1.75 0 1 1 -3.381-.9 35.473 35.473 0 0 0 1.193-9.147 1.751 1.751 0 0 1 1.75-1.75h10a1.751 1.751 0 0 1 1.75 1.75zm-94.47-14.664a20.273 20.273 0 0 1 20.25-20.25 1.75 1.75 0 0 1 0 3.5 16.773 16.773 0 0 0 -16.659 15h6.558a10.251 10.251 0 0 1 20.2 0h6.556a16.885 16.885 0 0 0 -8.035-12.609 1.75 1.75 0 0 1 1.807-3 20.382 20.382 0 0 1 9.823 17.359 1.751 1.751 0 0 1 -1.75 1.75h-10a1.75 1.75 0 0 1 -1.75-1.75 6.75 6.75 0 0 0 -13.5 0 1.751 1.751 0 0 1 -1.75 1.75h-10a1.75 1.75 0 0 1 -1.75-1.75zm52.19 1.75h10a1.751 1.751 0 0 0 1.75-1.75 6.75 6.75 0 1 1 13.5 0 1.751 1.751 0 0 0 1.75 1.75h10a1.751 1.751 0 0 0 1.75-1.75 20.25 20.25 0 1 0 -40.5 0 1.751 1.751 0 0 0 1.75 1.75zm18.5-18.5a16.773 16.773 0 0 1 16.659 15h-6.558a10.251 10.251 0 0 0 -20.2 0h-6.56a16.773 16.773 0 0 1 16.659-15z" fill="url(#a)"/></svg>