<svg id="Layer_1" enable-background="new 0 0 128 128" height="512" viewBox="0 0 128 128" width="512" xmlns="http://www.w3.org/2000/svg" xmlns:xlink="http://www.w3.org/1999/xlink"><linearGradient id="SVGID_1_" gradientTransform="matrix(1 0 0 -1 0 127.89)" gradientUnits="userSpaceOnUse" x1="123.31" x2="31.472" y1="8.344" y2="100.18"><stop offset="0" stop-color="#29bff8"/><stop offset="1" stop-color="#1e97f6"/></linearGradient><path d="m109.8 107.1h-38.3l2.1-3.2c3.4-5.1 2.4-11.9-2.4-15.6l-21.8-17.5c-.3-.2-.7-.4-1.1-.4h-32.7v-10.6c0-1-.8-1.7-1.7-1.7h-12c-1 0-1.7.8-1.7 1.7v55.3c0 1 .8 1.7 1.7 1.7h12c1 0 1.7-.8 1.7-1.7v-10.6h13.7l29.5 19.5c.3.2.6.3 1 .3h14c1 0 1.7-.8 1.7-1.7 0-1-.8-1.7-1.7-1.7h-13.5l-29.5-19.6c-.3-.2-.6-.3-1-.3h-14.2v-27h32.2l21.2 17c3.3 2.7 4.1 7.4 1.7 11l-2.9 4.3-21.2-17c-.8-.6-1.9-.5-2.5.3s-.5 1.9.3 2.5l22.7 18.2c.2.2.7.4 1.1.4h41.5c3.4 0 6.2 2.8 6.2 6.2v4h-10.9c-1 0-1.7.8-1.7 1.7 0 1 .8 1.7 1.7 1.7h12.6c1 0 1.7-.8 1.7-1.7v-5.7c.2-5.4-4.1-9.8-9.5-9.8zm-97.7 6.2h-8.5v-51.8h8.5zm82.2 9.3c0 1-.8 1.7-1.7 1.7h-6.1c-1 0-1.7-.8-1.7-1.7 0-1 .8-1.7 1.7-1.7h6.1c.9-.1 1.7.7 1.7 1.7zm31.8-118.9h-62.1c-1 0-1.7.8-1.7 1.7v62.1c0 1 .8 1.7 1.7 1.7h62.1c1 0 1.7-.8 1.7-1.7v-62.1c.1-1-.7-1.7-1.7-1.7zm-1.7 62.1h-58.7v-58.7h15.3v29.3c0 1.5 1.7 2.3 2.9 1.4l12.2-10c.8-.6.9-1.7.3-2.5s-1.7-.9-2.5-.3c-2.3 1.9-9.4 7.7-9.4 7.7v-25.6h21v25.6l-1.6-1.3c-.7-.6-1.8-.5-2.5.2-.6.7-.5 1.8.2 2.5l4.4 3.6c1.1.9 2.9.1 2.9-1.4v-29.2h15.3v58.7zm-20.2-16c-1 0-1.7.8-1.7 1.7v8c0 1 .8 1.7 1.7 1.7h14c1 0 1.7-.8 1.7-1.7v-8c0-1-.8-1.7-1.7-1.7zm12.2 8h-10.5v-4.5h10.5z" fill="url(#SVGID_1_)"/></svg>