<svg height="512" viewBox="0 0 128 128" width="512" xmlns="http://www.w3.org/2000/svg" xmlns:xlink="http://www.w3.org/1999/xlink"><linearGradient id="a" gradientUnits="userSpaceOnUse" x1="109.606" x2="8.309" y1="128.67" y2="27.373"><stop offset="0" stop-color="#29bff8"/><stop offset="1" stop-color="#1e97f6"/></linearGradient><path d="m22.942 56.539v-6.41a7.471 7.471 0 0 0 -14.942 0v6.41a7.471 7.471 0 1 0 14.942 0zm-11.442 0v-6.41a3.971 3.971 0 1 1 7.942 0v6.41a3.971 3.971 0 0 1 -7.942 0zm115.443 4.136-.084.607a9.752 9.752 0 0 1 -5.324 7.394 9.733 9.733 0 0 1 3.149 8.561l-.477 3.48a9.754 9.754 0 0 1 -5.324 7.395 9.878 9.878 0 0 1 .838.849 9.731 9.731 0 0 1 2.309 7.713l-.474 3.479a9.761 9.761 0 0 1 -5.326 7.395 9.608 9.608 0 0 1 .838.85 9.728 9.728 0 0 1 -7.329 16.125h-49.986a15.361 15.361 0 0 1 -12.526-6.488 11.848 11.848 0 0 0 -9.666-5.008h-6.619v13.225a1.75 1.75 0 0 1 -1.75 1.75h-27.442a1.75 1.75 0 0 1 -1.75-1.75v-8.939a1.75 1.75 0 0 1 3.5 0v7.187h23.942v-86.342h-23.942v65.092a1.75 1.75 0 0 1 -3.5 0v-66.842a1.749 1.749 0 0 1 1.75-1.75h27.442a1.749 1.749 0 0 1 1.75 1.75v13.223h9.323a48.665 48.665 0 0 0 15.684-6.113 1.75 1.75 0 0 1 1.815 2.993 52.178 52.178 0 0 1 -16.988 6.589 1.739 1.739 0 0 1 -.339.033h-9.495v56.4h6.619a15.359 15.359 0 0 1 12.526 6.488 11.852 11.852 0 0 0 9.666 5.008h49.986a6.229 6.229 0 1 0 0-12.457h-1a1.75 1.75 0 1 1 0-3.5h3.181a6.249 6.249 0 0 0 6.171-5.386l.474-3.479a6.226 6.226 0 0 0 -6.169-7.071h-2.033a1.75 1.75 0 1 1 0-3.5h4.21a6.249 6.249 0 0 0 6.17-5.386l.477-3.48a6.229 6.229 0 0 0 -6.172-7.07h-3.062a1.75 1.75 0 0 1 0-3.5h5.24a6.251 6.251 0 0 0 6.17-5.386l.084-.607a6.23 6.23 0 0 0 -6.172-7.07h-24.339a1.75 1.75 0 0 1 -1.73-2.014l5.072-33.162a9.616 9.616 0 0 0 -4.306-9.538l-6.286-4.042-6.234 16.177a1.75 1.75 0 0 1 -3.265-1.258l7-18.18a1.749 1.749 0 0 1 2.58-.844l8.092 5.2a13.117 13.117 0 0 1 5.878 13.008l-4.763 31.147h22.3a9.728 9.728 0 0 1 9.639 11.044zm-60.38-23.264a1.749 1.749 0 0 1 -.094-2.472c.981-1.06 1.926-2.175 2.808-3.315a1.75 1.75 0 1 1 2.768 2.143c-.945 1.22-1.957 2.415-3.008 3.549a1.751 1.751 0 0 1 -2.474.095z" fill="url(#a)"/></svg>