<svg height="512" viewBox="0 0 128 128" width="512" xmlns="http://www.w3.org/2000/svg" xmlns:xlink="http://www.w3.org/1999/xlink"><linearGradient id="a" gradientUnits="userSpaceOnUse" x1="113.97" x2="14.03" y1="125.836" y2="25.896"><stop offset="0" stop-color="#29bff8"/><stop offset="1" stop-color="#1e97f6"/></linearGradient><path d="m100.42 51.587a36.42 36.42 0 1 0 -36.42 36.42 36.461 36.461 0 0 0 36.42-36.42zm-36.42 32.92a32.92 32.92 0 1 1 32.92-32.92 32.957 32.957 0 0 1 -32.92 32.92zm28.42-32.92a28.42 28.42 0 0 1 -56.84 0 1.75 1.75 0 0 1 3.5 0 24.942 24.942 0 1 0 11-20.659 1.751 1.751 0 0 1 -1.96-2.9 28.41 28.41 0 0 1 44.3 23.56zm-54.749-10.7a28.5 28.5 0 0 1 1.629-3.345 1.75 1.75 0 1 1 3.04 1.734 25.15 25.15 0 0 0 -1.426 2.931 1.751 1.751 0 0 1 -1.621 1.09 1.728 1.728 0 0 1 -.66-.13 1.749 1.749 0 0 1 -.962-2.28zm26.329 26.984a1.75 1.75 0 0 0 1.237-.513l11.356-11.358a9.781 9.781 0 0 0 -12.593-14.878 9.78 9.78 0 0 0 -12.593 14.878l11.356 11.358a1.75 1.75 0 0 0 1.237.513zm-11.958-18.785a6.283 6.283 0 0 1 10.721-4.44 1.75 1.75 0 0 0 2.474 0 6.28 6.28 0 0 1 8.882 8.881l-10.119 10.12-10.119-10.12a6.239 6.239 0 0 1 -1.839-4.441zm75.724 61.122-4.531-7.848a1.75 1.75 0 0 0 -3.031 1.75l2.9 5.032-7.97-.477-13.2-22.858 5.027-1.771a1.839 1.839 0 0 0 1.053-1.026l7.386 12.772a1.75 1.75 0 0 0 3.032-1.75l-10.146-17.565.26-10.4 9.287-13.484a1.747 1.747 0 0 0 0-1.984l-9.287-13.484-.409-16.367a1.749 1.749 0 0 0 -1.169-1.606l-15.445-5.442-9.939-13.015a1.747 1.747 0 0 0 -1.892-.615l-15.692 4.69-15.693-4.69a1.744 1.744 0 0 0 -1.891.615l-9.939 13.015-15.445 5.44a1.75 1.75 0 0 0 -1.168 1.606l-.41 16.367-9.287 13.487a1.747 1.747 0 0 0 0 1.984l9.287 13.484.26 10.4-19.48 33.74a1.754 1.754 0 0 0 .027 1.792 1.772 1.772 0 0 0 1.593.827l12.156-.727 4.827-.289 2.163 4.328 5.449 10.891a1.748 1.748 0 0 0 1.512.966h.053a1.75 1.75 0 0 0 1.515-.875l15.371-26.621 1.517 1.986a1.746 1.746 0 0 0 1.892.614l15.691-4.686 15.693 4.686a1.745 1.745 0 0 0 1.891-.614l1.516-1.986 15.368 26.618a1.748 1.748 0 0 0 1.515.875h.053a1.748 1.748 0 0 0 1.512-.966l5.452-10.888 2.164-4.325 4.827.289 12.155.727a1.778 1.778 0 0 0 1.594-.827 1.754 1.754 0 0 0 .026-1.795zm-16.814-1.794-2.734-.164a1.742 1.742 0 0 0 -1.67.964l-1.225 2.45-12.977-22.478 6.236-2.2zm-90.974-25.404a1.841 1.841 0 0 0 1.053 1.025l5.028 1.771-13.2 22.859-7.971.477zm15.677 6.176-12.978 22.478-1.225-2.449a1.75 1.75 0 0 0 -1.565-.967q-.053 0-.105 0l-2.734.164 12.37-21.426zm-7.529 33.37-3.573-7.141 13.662-23.663 4.385 5.738zm51.411-23.156-15.037-4.489a1.761 1.761 0 0 0 -1 0l-15.036 4.489-2.377-3.112-7.146-9.357a1.8 1.8 0 0 0 -.293-.286 1.747 1.747 0 0 0 -.516-.3l-8.922-3.14-5.876-2.069-.394-15.682a1.749 1.749 0 0 0 -.309-.948l-8.9-12.919 8.9-12.919a1.746 1.746 0 0 0 .309-.948l.393-15.682 14.8-5.212a1.746 1.746 0 0 0 .81-.588l9.52-12.468 15.037 4.493a1.761 1.761 0 0 0 1 0l15.036-4.493 9.523 12.468a1.746 1.746 0 0 0 .81.588l14.8 5.212.392 15.682a1.749 1.749 0 0 0 .309.948l8.9 12.919-8.9 12.919a1.746 1.746 0 0 0 -.309.948l-.361 14.488-.03 1.193-5.876 2.07-8.922 3.143a1.753 1.753 0 0 0 -.809.587l-.462.605-6.684 8.751zm20.337 23.152-14.474-25.062 4.383-5.738 13.661 23.663z" fill="url(#a)"/></svg>