<svg id="Layer_1" enable-background="new 0 0 128 128" height="512" viewBox="0 0 128 128" width="512" xmlns="http://www.w3.org/2000/svg" xmlns:xlink="http://www.w3.org/1999/xlink"><linearGradient id="SVGID_1_" gradientTransform="matrix(1 0 0 -1 0 127.89)" gradientUnits="userSpaceOnUse" x1="106.558" x2="21.444" y1="19.866" y2="104.98"><stop offset="0" stop-color="#29bff8"/><stop offset="1" stop-color="#1e97f6"/></linearGradient><path d="m108 41.2-7.5-10.9-.3-13.2c0-.7-.5-1.4-1.2-1.6l-12.4-4.4-8-10.5c-.4-.6-1.2-.8-1.9-.6l-12.7 3.9-12.6-3.8c-.7-.2-1.4 0-1.9.6l-8 10.5-12.5 4.4c-.7.2-1.1.9-1.2 1.6l-.3 13.2-7.5 10.8c-.4.6-.4 1.4 0 2l7.5 10.9.3 13.2c0 .7.5 1.4 1.2 1.6l11.3 4v53.4c0 1 .8 1.7 1.7 1.7h12c.5 0 .9-.2 1.2-.5l8.8-8.8 8.8 8.8c.3.3.7.5 1.2.5h11.9c1 0 1.7-.8 1.7-1.7v-21.3c0-1-.8-1.7-1.7-1.7-1 0-1.7.8-1.7 1.7v19.5h-8.4v-40.4l.9.3c.7.2 1.5 0 1.9-.6l5.6-7.3v6.3c0 1 .8 1.7 1.7 1.7s1.7-.8 1.7-1.7v-9.8l11.3-4c.7-.2 1.1-.9 1.2-1.6l.3-13.2 7.5-10.9c.5-.7.5-1.5.1-2.1zm-64.1 35.2 5.6 7.3c.4.6 1.2.8 1.9.6l.9-.3v40.4h-8.4zm20.1 38.1c-.5 0-.9.2-1.2.5l-7 7v-39l8.3-2.5 8.3 2.5v39l-7-7c-.5-.3-.9-.5-1.4-.5zm33.3-62c-.2.3-.3.6-.3.9l-.3 12.6-11.8 4.2c-.3.1-.6.3-.8.6l-7.6 9.9c-16.4-4.9-10.8-3.2-12-3.6-.3-.1-.7-.1-1 0-1.2.4 4.4-1.3-12 3.6l-7.6-9.9c-.2-.3-.5-.5-.8-.6l-11.8-4.2-.3-12.5c0-.3-.1-.7-.3-.9l-7.1-10.3 7.1-10.3c.2-.3.3-.6.3-.9l.3-12.5 11.8-4.2c.3-.1.6-.3.8-.6l7.6-9.9 12 3.6c.3.1.7.1 1 0l12-3.6 7.6 9.9c.2.3.5.5.8.6l11.8 4.2.3 12.4c0 .3.1.7.3.9l7.1 10.3zm-33.3-40.2c-16.5 0-29.9 13.4-29.9 29.9s13.4 29.9 29.9 29.9 29.9-13.4 29.9-29.9-13.4-29.8-29.9-29.9zm0 56.3c-14.6 0-26.4-11.8-26.4-26.4s11.8-26.4 26.4-26.4 26.4 11.8 26.4 26.4c0 14.6-11.8 26.4-26.4 26.4zm21.9-26.4c0 12.1-9.8 21.9-21.9 21.9s-21.9-9.8-21.9-21.9c0-7.3 3.6-14.1 9.7-18.2.8-.5 1.9-.3 2.4.5s.3 1.9-.5 2.4c-8.4 5.7-10.6 17.1-5 25.5s17.1 10.6 25.5 5 10.6-17.1 5-25.5c-3.4-5.1-9.1-8.1-15.2-8.1-1 0-1.7-.8-1.7-1.7s.8-1.7 1.7-1.7c12.1-.1 21.9 9.7 21.9 21.8zm1.7 49.7v3.8c0 1-.8 1.7-1.7 1.7-1 0-1.7-.8-1.7-1.7v-3.8c0-1 .8-1.7 1.7-1.7 1 0 1.7.8 1.7 1.7zm-12.4-52.4c-.2-.6-.8-1.1-1.4-1.2l-5.7-.8-2.5-5.1c-.4-.9-1.5-1.2-2.3-.8-.3.2-.6.5-.8.8l-2.5 5.1-5.7.8c-1 .1-1.6 1-1.5 2 .1.4.2.7.5 1l4.1 4-1 5.6c-.2 1 .5 1.9 1.4 2 .4.1.8 0 1.1-.2l5.1-2.7 5.1 2.7c.9.4 1.9.1 2.4-.7.2-.3.2-.7.2-1.1l-1-5.6 4.1-4c.4-.4.6-1.1.4-1.8zm-7.7 4c-.4.4-.6 1-.5 1.5l.5 3-2.7-1.4c-.5-.3-1.1-.3-1.6 0l-2.7 1.4.5-3c.1-.6-.1-1.1-.5-1.5l-2.2-2.2 3.1-.4c.6-.1 1.1-.4 1.3-1l1.4-2.8 1.4 2.8c.3.5.7.9 1.3 1l3.1.4z" fill="url(#SVGID_1_)"/></svg>