<?xml version="1.0" encoding="UTF-8"?>
<svg xmlns="http://www.w3.org/2000/svg" 
xmlns:xlink="http://www.w3.org/1999/xlink" 
width="512" height="512" viewBox="0 0 128 128">
<defs>
<linearGradient id="a" x1="115.308" y1="121.167" x2="12.692" y2="18.552" gradientUnits="userSpaceOnUse"><stop offset="0" stop-color="#29bff8"/><stop offset="1" stop-color="#1e97f6"/></linearGradient></defs><path d="M84.125,33.82a1.75,1.75,0,0,1,0-3.5h5.531a1.75,1.75,0,0,1,0,3.5ZM109.5,17.755v108.5a1.75,1.75,0,0,1-1.75,1.75H40.377a1.75,1.75,0,0,1,0-3.5H106V33.82H99.031a1.75,1.75,0,0,1,0-3.5H106V17.755a4.255,4.255,0,0,0-4.25-4.25h-1.625v8.408a1.75,1.75,0,0,1-1.75,1.75h-8.75a1.75,1.75,0,0,1-1.75-1.75V13.505h-7.75v8.408a1.75,1.75,0,0,1-1.75,1.75h-8.75a1.75,1.75,0,0,1-1.75-1.75V13.505h-7.75v8.408a1.75,1.75,0,0,1-1.75,1.75h-8.75a1.75,1.75,0,0,1-1.75-1.75V13.505h-7.75v8.408a1.75,1.75,0,0,1-1.75,1.75h-8.75a1.75,1.75,0,0,1-1.75-1.75V13.505H26.25A4.255,4.255,0,0,0,22,17.755V30.32H74.75a1.75,1.75,0,0,1,0,3.5H22V124.5h5.75a1.75,1.75,0,0,1,0,3.5h-7.5a1.75,1.75,0,0,1-1.75-1.75V17.755a7.759,7.759,0,0,1,7.75-7.75h1.625V5.747A5.757,5.757,0,0,1,33.625,0h.75a5.757,5.757,0,0,1,5.75,5.75v4.258h7.75V5.747A5.757,5.757,0,0,1,53.625,0h.75a5.757,5.757,0,0,1,5.75,5.75v4.258h7.75V5.747A5.757,5.757,0,0,1,73.625,0h.75a5.757,5.757,0,0,1,5.75,5.75v4.258h7.75V5.747A5.757,5.757,0,0,1,93.625,0h.75a5.757,5.757,0,0,1,5.75,5.75v4.258h1.625A7.759,7.759,0,0,1,109.5,17.755Zm-72.875-6V5.747a2.253,2.253,0,0,0-2.25-2.25h-.75a2.253,2.253,0,0,0-2.25,2.25V20.163h5.25Zm20,0V5.747a2.253,2.253,0,0,0-2.25-2.25h-.75a2.253,2.253,0,0,0-2.25,2.25V20.163h5.25Zm20,0V5.747a2.253,2.253,0,0,0-2.25-2.25h-.75a2.253,2.253,0,0,0-2.25,2.25V20.163h5.25Zm20,0V5.747a2.253,2.253,0,0,0-2.25-2.25h-.75a2.253,2.253,0,0,0-2.25,2.25V20.163h5.25ZM49.777,47.435,46.23,50.893l.837,4.881a1.75,1.75,0,0,1-2.539,1.845l-4.384-2.3-4.385,2.3a1.75,1.75,0,0,1-2.539-1.845l.837-4.881L30.51,47.435a1.75,1.75,0,0,1,.97-2.985l4.9-.713L38.574,39.3a1.75,1.75,0,0,1,3.139,0l2.192,4.441,4.9.713a1.75,1.75,0,0,1,.97,2.985ZM44.794,47.4l-2.3-.335a1.747,1.747,0,0,1-1.318-.957l-1.029-2.087-1.031,2.087a1.746,1.746,0,0,1-1.318.957l-2.3.335,1.667,1.625a1.75,1.75,0,0,1,.5,1.549l-.393,2.294,2.06-1.083a1.757,1.757,0,0,1,1.629,0l2.06,1.083-.394-2.294a1.753,1.753,0,0,1,.5-1.549Zm28.839.032-3.547,3.458.837,4.881a1.75,1.75,0,0,1-2.539,1.845L64,55.315l-4.384,2.3a1.75,1.75,0,0,1-2.539-1.845l.837-4.881-3.547-3.458a1.75,1.75,0,0,1,.97-2.985l4.9-.713L62.431,39.3a1.749,1.749,0,0,1,3.138,0l2.192,4.441,4.9.713a1.75,1.75,0,0,1,.97,2.985ZM68.651,47.4l-2.3-.335a1.746,1.746,0,0,1-1.318-.957L64,44.024l-1.03,2.087a1.746,1.746,0,0,1-1.318.957l-2.3.335,1.667,1.625a1.753,1.753,0,0,1,.5,1.549l-.393,2.294,2.059-1.083a1.753,1.753,0,0,1,1.63,0l2.059,1.083-.393-2.294a1.753,1.753,0,0,1,.5-1.549ZM79.193,44.45l4.9-.713L86.287,39.3a1.75,1.75,0,0,1,3.139,0l2.192,4.441,4.9.713a1.75,1.75,0,0,1,.97,2.985l-3.547,3.458.837,4.881a1.75,1.75,0,0,1-2.539,1.845l-4.385-2.3-4.384,2.3a1.75,1.75,0,0,1-2.539-1.845l.837-4.881-3.547-3.458a1.75,1.75,0,0,1,.97-2.985ZM83.206,47.4l1.667,1.625a1.753,1.753,0,0,1,.5,1.549l-.394,2.294,2.06-1.083a1.751,1.751,0,0,1,1.629,0l2.06,1.083-.393-2.294a1.75,1.75,0,0,1,.5-1.549L92.508,47.4l-2.3-.335a1.746,1.746,0,0,1-1.318-.957l-1.031-2.087-1.029,2.087a1.747,1.747,0,0,1-1.318.957ZM31.417,68.748H96.583a1.75,1.75,0,0,0,0-3.5H31.417a1.75,1.75,0,0,0,0,3.5Zm6.958,7.429a1.75,1.75,0,0,0,0,3.5h51.25a1.75,1.75,0,0,0,0-3.5ZM31.417,90.6H96.583a1.75,1.75,0,0,0,0-3.5H31.417a1.75,1.75,0,0,0,0,3.5Zm6.958,7.428a1.75,1.75,0,1,0,0,3.5h51.25a1.75,1.75,0,0,0,0-3.5Zm59.958,12.679a1.75,1.75,0,0,0-1.75-1.75H31.417a1.75,1.75,0,1,0,0,3.5H96.583A1.75,1.75,0,0,0,98.333,110.711Z" fill="url(#a)"/></svg>
