<svg height="512" viewBox="0 0 128 128" width="512" xmlns="http://www.w3.org/2000/svg" xmlns:xlink="http://www.w3.org/1999/xlink"><linearGradient id="a" gradientUnits="userSpaceOnUse" x1="119.868" x2="29.358" y1="98.639" y2="8.129"><stop offset="0" stop-color="#29bff8"/><stop offset="1" stop-color="#1e97f6"/></linearGradient><path d="m32.234 65.081a19.334 19.334 0 0 0 .244 4.445 1.748 1.748 0 0 1 -1.429 2.02 1.67 1.67 0 0 1 -.3.025 1.75 1.75 0 0 1 -1.723-1.455 22.679 22.679 0 0 1 -.287-5.258 1.75 1.75 0 0 1 3.492.223zm57.686 16.274a7.75 7.75 0 0 0 -12.208 1.632l-5.389 9.423c-1.8 1.407-13.971 9.8-30.255-6.481a42.216 42.216 0 0 1 -6.056-7.489 1.75 1.75 0 0 0 -2.975 1.844 45.546 45.546 0 0 0 6.557 8.116c19.667 19.667 35.087 6.608 35.24 6.474a1.762 1.762 0 0 0 .367-.448l5.55-9.7a4.249 4.249 0 0 1 6.694-.9l18.136 18.136a4.257 4.257 0 0 1 0 6.011l-7 7c-7.964 7.965-19.876 11.086-33.536 8.792-13.88-2.332-27.858-9.952-39.361-21.454s-19.125-25.475-21.457-39.355c-2.3-13.662.827-25.572 8.791-33.536l7-7a4.258 4.258 0 0 1 6.011 0l18.138 18.132a4.249 4.249 0 0 1 -.9 6.694l-9.7 5.55a1.751 1.751 0 0 0 1.739 3.039l9.7-5.55a7.75 7.75 0 0 0 1.632-12.208l-18.132-18.136a7.76 7.76 0 0 0 -10.96 0l-7 7c-8.79 8.79-12.259 21.786-9.771 36.595 2.452 14.591 10.417 29.243 22.43 41.256s26.665 19.979 41.256 22.43a55.143 55.143 0 0 0 9.12.785c10.992 0 20.541-3.622 27.471-10.553l7-7a7.76 7.76 0 0 0 0-10.96zm31.33-81.355h-52.125a6.758 6.758 0 0 0 -6.75 6.75v34.656a6.758 6.758 0 0 0 6.75 6.75h14.75v12.469a1.75 1.75 0 0 0 2.794 1.4l19.125-14.215a1.75 1.75 0 1 0 -2.088-2.81l-16.331 12.144v-10.738a1.75 1.75 0 0 0 -1.75-1.75h-16.5a3.254 3.254 0 0 1 -3.25-3.25v-34.659a3.254 3.254 0 0 1 3.25-3.25h52.125a3.254 3.254 0 0 1 3.25 3.25v34.659a3.254 3.254 0 0 1 -3.25 3.25h-6.25a1.75 1.75 0 0 0 0 3.5h6.25a6.758 6.758 0 0 0 6.75-6.75v-34.659a6.758 6.758 0 0 0 -6.75-6.747zm-15.393 23.2-4.1 3.994.966 5.638a1.75 1.75 0 0 1 -2.539 1.845l-5.063-2.662-5.064 2.662a1.75 1.75 0 0 1 -2.539-1.845l.967-5.638-4.1-3.994a1.749 1.749 0 0 1 .969-2.984l5.662-.823 2.532-5.13a1.749 1.749 0 0 1 3.138 0l2.532 5.13 5.662.823a1.749 1.749 0 0 1 .969 2.984zm-4.982-.031-3.064-.445a1.75 1.75 0 0 1 -1.317-.957l-1.369-2.775-1.369 2.775a1.75 1.75 0 0 1 -1.318.957l-3.063.445 2.217 2.16a1.753 1.753 0 0 1 .5 1.549l-.524 3.051 2.739-1.441a1.751 1.751 0 0 1 1.629 0l2.74 1.441-.524-3.051a1.753 1.753 0 0 1 .5-1.549z" fill="url(#a)"/></svg>