<?xml version="1.0" encoding="UTF-8"?>
<svg xmlns="http://www.w3.org/2000/svg" xmlns:xlink="http://www.w3.org/1999/xlink" width="512" height="512" viewBox="0 0 128 128"><defs><linearGradient id="a" x1="115.377" y1="120.246" x2="12.623" y2="17.493" gradientUnits="userSpaceOnUse"><stop offset="0" stop-color="#29bff8"/><stop offset="1" stop-color="#1e97f6"/></linearGradient></defs><path d="M51.653,27.768l-2.315,13.5a1.749,1.749,0,0,0,2.539,1.844L64,36.738l12.123,6.373a1.749,1.749,0,0,0,2.539-1.844l-2.315-13.5,9.807-9.56a1.75,1.75,0,0,0-.97-2.985L71.63,13.254,65.569.973a1.749,1.749,0,0,0-3.138,0L56.37,13.254,42.816,15.223a1.75,1.75,0,0,0-.97,2.985Zm6.13-11.183a1.75,1.75,0,0,0,1.318-.957L64,5.7l4.9,9.927a1.748,1.748,0,0,0,1.318.957l10.954,1.592L73.245,25.9a1.746,1.746,0,0,0-.5,1.549l1.871,10.91-9.8-5.151a1.751,1.751,0,0,0-1.629,0l-9.8,5.151,1.871-10.91a1.749,1.749,0,0,0-.5-1.549l-7.926-7.727ZM127.472,32.1l-7.766,7.568,1.834,10.688A1.751,1.751,0,0,1,119,52.2l-9.6-5.046-9.6,5.046a1.749,1.749,0,0,1-2.539-1.844L99.1,39.663,91.333,32.1a1.751,1.751,0,0,1,.971-2.986l11.641-1.691a1.75,1.75,0,1,1,.5,3.464l-8.132,1.182L102.2,37.8a1.752,1.752,0,0,1,.5,1.549l-1.389,8.1,7.273-3.824a1.751,1.751,0,0,1,1.629,0l7.274,3.824-1.389-8.1a1.748,1.748,0,0,1,.5-1.549l5.885-5.735-8.132-1.182a1.747,1.747,0,0,1-1.317-.958l-5.207-10.548a1.75,1.75,0,1,1,3.139-1.549l4.8,9.723,10.73,1.559a1.75,1.75,0,0,1,.971,2.986ZM28.2,52.2a1.749,1.749,0,0,0,2.539-1.844L28.9,39.663,36.666,32.1a1.751,1.751,0,0,0-.97-2.986L24.965,27.55l-4.8-9.723a1.749,1.749,0,0,0-3.138,0l-4.8,9.723L1.5,29.109A1.751,1.751,0,0,0,.528,32.1l7.765,7.568L6.46,50.351A1.75,1.75,0,0,0,9,52.2l9.6-5.046ZM10.509,47.447l1.389-8.1a1.746,1.746,0,0,0-.5-1.549L5.511,32.064l8.132-1.182a1.747,1.747,0,0,0,1.317-.958L18.6,22.555l3.637,7.369a1.749,1.749,0,0,0,1.318.958l8.132,1.182L25.8,37.8a1.752,1.752,0,0,0-.5,1.549l1.389,8.1-7.273-3.824a1.751,1.751,0,0,0-1.629,0ZM105.25,58.252H22.75A5.757,5.757,0,0,0,17,64v58.243A5.757,5.757,0,0,0,22.75,128h82.5a5.757,5.757,0,0,0,5.75-5.75V64A5.757,5.757,0,0,0,105.25,58.252Zm2.25,63.993a2.253,2.253,0,0,1-2.25,2.25H22.75a2.253,2.253,0,0,1-2.25-2.25V64a2.252,2.252,0,0,1,2.25-2.25h82.5A2.252,2.252,0,0,1,107.5,64ZM25,87.625v-2a1.75,1.75,0,0,1,3.5,0v2a1.75,1.75,0,0,1-3.5,0Zm76.25-21.373H26.75A1.751,1.751,0,0,0,25,68v9.123a1.75,1.75,0,0,0,3.5,0V69.752h71V98.006l-9.237-5.185a1.748,1.748,0,0,0-1.8.055L74.1,102.123,52.1,91.546a1.754,1.754,0,0,0-1.426-.041L28.5,100.658V96.125a1.75,1.75,0,0,0-3.5,0v22.12A1.751,1.751,0,0,0,26.75,120h74.5a1.751,1.751,0,0,0,1.75-1.75V68A1.751,1.751,0,0,0,101.25,66.252ZM99.5,116.5h-71V104.444l22.789-9.405L73.46,105.7a1.74,1.74,0,0,0,.4.133,1.194,1.194,0,0,0,.134.015,1.672,1.672,0,0,0,.223.025c.017,0,.033-.007.05-.007a1.741,1.741,0,0,0,.3-.044c.053-.011.108-.014.16-.03a1.744,1.744,0,0,0,.433-.2l14.3-9.207L99.5,102.02ZM80.78,84.016A7.985,7.985,0,1,0,72.8,92,7.993,7.993,0,0,0,80.78,84.016Zm-12.469,0A4.485,4.485,0,1,1,72.8,88.5,4.49,4.49,0,0,1,68.311,84.016Z" fill="url(#a)"/></svg>
