<?xml version="1.0" encoding="UTF-8"?>
<svg xmlns="http://www.w3.org/2000/svg" xmlns:xlink="http://www.w3.org/1999/xlink" width="512" height="512" viewBox="0 0 128 128"><defs><linearGradient id="a" x1="94.021" y1="102.295" x2="30.939" y2="39.213" gradientUnits="userSpaceOnUse"><stop offset="0" stop-color="#29bff8"/><stop offset="1" stop-color="#1e97f6"/></linearGradient></defs><path d="M60.889,68.7l-.443,2.9a1.751,1.751,0,0,1-1.727,1.486,1.713,1.713,0,0,1-.266-.021,1.749,1.749,0,0,1-1.466-1.994l.443-2.9a1.75,1.75,0,0,1,3.459.529ZM77.4,80.639a6.666,6.666,0,0,1,1.583,5.286l-.05.372a6.675,6.675,0,0,1-2.871,4.613,6.67,6.67,0,0,1,1.529,5.222l-.293,2.145a6.676,6.676,0,0,1-2.871,4.612,6.668,6.668,0,0,1,1.529,5.222l-.293,2.145a6.676,6.676,0,0,1-2.871,4.612,6.666,6.666,0,0,1-5.077,10.987H36.9a10.134,10.134,0,0,1-8.268-4.282,6.632,6.632,0,0,0-5.409-2.8H15.5v7.479A1.75,1.75,0,0,1,13.75,128h-12A1.75,1.75,0,0,1,0,126.25V70.877a1.75,1.75,0,0,1,1.75-1.75h12a1.75,1.75,0,0,1,1.75,1.75v7.479h9.324a29.3,29.3,0,0,0,21.6-18.265l4.317-11.2a1.749,1.749,0,0,1,2.578-.843l4.988,3.2a8.757,8.757,0,0,1,3.921,8.686,1.75,1.75,0,1,1-3.459-.53,5.256,5.256,0,0,0-2.353-5.211l-3.181-2.043-3.546,9.2A32.775,32.775,0,0,1,25.337,81.823a1.747,1.747,0,0,1-.339.033H15.5v33.415h7.726a10.138,10.138,0,0,1,8.268,4.283,6.632,6.632,0,0,0,5.409,2.8H67.711a3.167,3.167,0,0,0,0-6.334h-.619a1.75,1.75,0,0,1,0-3.5h1.961a3.177,3.177,0,0,0,3.137-2.738l.293-2.145a3.168,3.168,0,0,0-3.137-3.6H68.093a1.75,1.75,0,1,1,0-3.5h2.594A3.178,3.178,0,0,0,73.825,97.8l.293-2.145a3.166,3.166,0,0,0-3.138-3.6H69.094a1.75,1.75,0,0,1,0-3.5h3.228a3.178,3.178,0,0,0,3.138-2.739l.051-.373a3.165,3.165,0,0,0-3.138-3.6h-15a1.75,1.75,0,0,1,0-3.5h15A6.665,6.665,0,0,1,77.4,80.639ZM12,117.021V72.627H3.5V124.5H12ZM128,29.967A29.97,29.97,0,1,1,98.03,0,30,30,0,0,1,128,29.967Zm-3.5,0A26.47,26.47,0,1,0,98.03,56.436,26.5,26.5,0,0,0,124.5,29.967Zm-6.9,6.376a1.754,1.754,0,0,0-.963-.931L109.19,32.48a1.75,1.75,0,0,0-1.283,3.256L113.643,38a17.561,17.561,0,0,1-31.224,0l4.215-1.662a13.094,13.094,0,0,0,17.059,5.4,1.75,1.75,0,1,0-1.511-3.157,9.587,9.587,0,0,1-13.041-5.116,1.751,1.751,0,0,0-2.27-.986l-7.443,2.934a1.748,1.748,0,0,0-.987,2.269,21.057,21.057,0,0,0,39.179,0A1.75,1.75,0,0,0,117.6,36.343ZM80.749,23.6V21.1a5.75,5.75,0,0,1,11.5,0v2.5a5.75,5.75,0,0,1-11.5,0Zm3.5,0a2.25,2.25,0,0,0,4.5,0V21.1a2.25,2.25,0,0,0-4.5,0Zm19.563,0V21.1a5.75,5.75,0,0,1,11.5,0v2.5a5.75,5.75,0,0,1-11.5,0Zm3.5,0a2.25,2.25,0,0,0,4.5,0V21.1a2.25,2.25,0,0,0-4.5,0Z" fill="url(#a)"/></svg>
