<?xml version="1.0" encoding="UTF-8"?>
<svg xmlns="http://www.w3.org/2000/svg" xmlns:xlink="http://www.w3.org/1999/xlink" width="512" height="512" viewBox="0 0 128 128"><defs><linearGradient id="a" x1="116.552" y1="120.549" x2="11.448" y2="15.446" gradientUnits="userSpaceOnUse"><stop offset="0" stop-color="#29bff8"/><stop offset="1" stop-color="#1e97f6"/></linearGradient></defs><path d="M106.312,8H91.625V6.747A6.758,6.758,0,0,0,84.875,0H43.125a6.758,6.758,0,0,0-6.75,6.75V8H21.687a6.757,6.757,0,0,0-6.75,6.749v106.5a6.758,6.758,0,0,0,6.75,6.75h84.625a6.758,6.758,0,0,0,6.75-6.75V14.748A6.757,6.757,0,0,0,106.312,8ZM39.875,6.747a3.254,3.254,0,0,1,3.25-3.25h41.75a3.254,3.254,0,0,1,3.25,3.25V19h-4.5V9.747A1.75,1.75,0,0,0,81.875,8H46.125a1.75,1.75,0,0,0-1.75,1.75V19h-4.5V6.747ZM80.125,19H47.875V11.5h32.25Zm29.437,102.245a3.254,3.254,0,0,1-3.25,3.25H21.687a3.254,3.254,0,0,1-3.25-3.25V14.748a3.254,3.254,0,0,1,3.25-3.25H36.375V19H24.687a1.751,1.751,0,0,0-1.75,1.75v97.5a1.751,1.751,0,0,0,1.75,1.75h78.625a1.75,1.75,0,0,0,1.75-1.75V105.024a1.75,1.75,0,0,0-3.5,0V116.5H26.437V22.5h75.125V77.274a1.75,1.75,0,0,0,3.5,0V20.752a1.75,1.75,0,0,0-1.75-1.75H91.625V11.5h14.687a3.254,3.254,0,0,1,3.25,3.25Zm-4.5-31.223v2.25a1.75,1.75,0,0,1-3.5,0v-2.25a1.75,1.75,0,0,1,3.5,0ZM42.6,79.649H32.687a1.751,1.751,0,0,0-1.75,1.75V91.69a1.751,1.751,0,0,0,1.75,1.75H42.6a1.751,1.751,0,0,0,1.75-1.75V81.4A1.751,1.751,0,0,0,42.6,79.649ZM40.849,89.94H34.437V83.149h6.412Zm1.75,8.267H32.687a1.75,1.75,0,0,0-1.75,1.75v10.29a1.751,1.751,0,0,0,1.75,1.75H42.6a1.751,1.751,0,0,0,1.75-1.75V99.957A1.75,1.75,0,0,0,42.6,98.207Zm-1.75,10.29H34.437v-6.79h6.412ZM50.432,44.44a1.75,1.75,0,0,1-1.75-1.75,15.209,15.209,0,0,1,6.089-12.219,1.75,1.75,0,1,1,2.112,2.791A11.73,11.73,0,0,0,52.31,40.94h4.584A7.318,7.318,0,1,1,64,50.008H61.75v7.061h4.5V55.657a1.749,1.749,0,0,1,1.233-1.672A11.819,11.819,0,0,0,64,30.872a1.75,1.75,0,0,1,0-3.5,15.32,15.32,0,0,1,5.75,29.519v1.928A1.749,1.749,0,0,1,68,60.569H60a1.749,1.749,0,0,1-1.75-1.75V48.258A1.75,1.75,0,0,1,60,46.508h4a3.818,3.818,0,1,0-3.818-3.818,1.751,1.751,0,0,1-1.75,1.75ZM68,63.88H60a1.75,1.75,0,0,0-1.75,1.75v7.284A1.75,1.75,0,0,0,60,74.664h8a1.75,1.75,0,0,0,1.75-1.75V65.63A1.75,1.75,0,0,0,68,63.88Zm-1.75,7.284h-4.5V67.38h4.5ZM97.062,82.625a1.75,1.75,0,0,1-1.75,1.75H51a1.75,1.75,0,0,1,0-3.5H95.312A1.75,1.75,0,0,1,97.062,82.625ZM49.25,90.464A1.75,1.75,0,0,1,51,88.714H86.375a1.75,1.75,0,0,1,0,3.5H51A1.749,1.749,0,0,1,49.25,90.464Zm47.812,10.718a1.75,1.75,0,0,1-1.75,1.75H51a1.75,1.75,0,0,1,0-3.5H95.312A1.75,1.75,0,0,1,97.062,101.182Zm-8.937,7.839a1.749,1.749,0,0,1-1.75,1.75H51a1.75,1.75,0,0,1,0-3.5H86.375A1.75,1.75,0,0,1,88.125,109.021Z" fill="url(#a)"/></svg>
