<?xml version="1.0" encoding="UTF-8"?>
<svg xmlns="http://www.w3.org/2000/svg" xmlns:xlink="http://www.w3.org/1999/xlink" width="512" height="512" viewBox="0 0 128 128"><defs><linearGradient id="a" x1="123.559" y1="123.515" x2="8.139" y2="8.094" gradientUnits="userSpaceOnUse"><stop offset="0" stop-color="#29bff8"/><stop offset="1" stop-color="#1e97f6"/></linearGradient></defs><path d="M43.866,15.226,30.313,13.257,24.252.976a1.75,1.75,0,0,0-3.139,0L15.052,13.257,1.5,15.226a1.75,1.75,0,0,0-.971,2.985l9.808,9.56L8.021,41.27a1.75,1.75,0,0,0,2.539,1.844l12.122-6.373,12.123,6.373a1.75,1.75,0,0,0,2.539-1.844l-2.315-13.5,9.807-9.56a1.75,1.75,0,0,0-.97-2.985ZM31.927,25.907a1.749,1.749,0,0,0-.5,1.549L33.3,38.366l-9.8-5.151a1.751,1.751,0,0,0-1.629,0l-9.8,5.151,1.871-10.91a1.749,1.749,0,0,0-.5-1.549L5.511,18.18l10.954-1.592a1.748,1.748,0,0,0,1.318-.957l4.9-9.927,4.9,9.927a1.75,1.75,0,0,0,1.318.957L39.854,18.18ZM43.866,57.568,30.313,55.6,24.252,43.318a1.75,1.75,0,0,0-3.139,0L15.052,55.6,1.5,57.568a1.75,1.75,0,0,0-.971,2.985l9.808,9.56-2.315,13.5a1.75,1.75,0,0,0,2.539,1.845l12.122-6.374,12.123,6.374a1.75,1.75,0,0,0,2.539-1.845l-2.315-13.5,9.807-9.56a1.75,1.75,0,0,0-.97-2.985ZM31.927,68.249a1.749,1.749,0,0,0-.5,1.549L33.3,80.708l-9.8-5.15a1.743,1.743,0,0,0-1.629,0l-9.8,5.15L13.941,69.8a1.749,1.749,0,0,0-.5-1.549L5.511,60.523l10.954-1.592a1.749,1.749,0,0,0,1.318-.958l4.9-9.927,4.9,9.927a1.751,1.751,0,0,0,1.318.958l10.955,1.592Zm13.419,33.645a1.748,1.748,0,0,1-1.983,1.48l-14.464-2.1a1.751,1.751,0,0,1-1.318-.958l-4.9-9.926-4.9,9.926a1.749,1.749,0,0,1-1.318.958L5.511,102.865l7.927,7.727a1.749,1.749,0,0,1,.5,1.549l-1.871,10.91,9.8-5.151a1.745,1.745,0,0,1,1.629,0l9.8,5.151-1.871-10.91a1.75,1.75,0,1,1,3.449-.592l2.471,14.4a1.75,1.75,0,0,1-2.539,1.845l-12.123-6.373L10.56,127.8a1.75,1.75,0,0,1-2.539-1.845l2.315-13.5L.528,102.9A1.749,1.749,0,0,1,1.5,99.911l13.553-1.97L21.113,85.66a1.751,1.751,0,0,1,3.139,0l6.061,12.281,13.553,1.97A1.75,1.75,0,0,1,45.346,101.894ZM77.031,33.659a1.75,1.75,0,0,1,1.75-1.75h3.563a1.75,1.75,0,0,1,0,3.5H78.781A1.751,1.751,0,0,1,77.031,33.659ZM128,9.657v24a1.751,1.751,0,0,1-1.75,1.75H93.5a1.75,1.75,0,0,1,0-3.5h31v-20.5H57.75v20.5h9.875a1.75,1.75,0,0,1,0,3.5H56a1.751,1.751,0,0,1-1.75-1.75v-24A1.75,1.75,0,0,1,56,7.907h70.25A1.75,1.75,0,0,1,128,9.657Zm-65.75,16A1.75,1.75,0,0,1,64,23.909h46.244a1.75,1.75,0,0,1,0,3.5H64A1.751,1.751,0,0,1,62.25,25.659Zm0-8A1.75,1.75,0,0,1,64,15.907h54.25a1.75,1.75,0,0,1,0,3.5H64A1.751,1.751,0,0,1,62.25,17.657Zm64,32.6H56A1.751,1.751,0,0,0,54.25,52V76A1.751,1.751,0,0,0,56,77.754h70.25A1.751,1.751,0,0,0,128,76V52A1.751,1.751,0,0,0,126.25,50.252Zm-1.75,24H57.75v-20.5H124.5ZM62.25,68A1.751,1.751,0,0,1,64,66.254h46.244a1.75,1.75,0,0,1,0,3.5H64A1.751,1.751,0,0,1,62.25,68Zm0-8A1.751,1.751,0,0,1,64,58.252h54.25a1.75,1.75,0,0,1,0,3.5H64A1.751,1.751,0,0,1,62.25,60Zm64,32.595H56a1.751,1.751,0,0,0-1.75,1.75v24A1.751,1.751,0,0,0,56,120.1h70.25a1.751,1.751,0,0,0,1.75-1.75v-24A1.751,1.751,0,0,0,126.25,92.6Zm-1.75,24H57.75V96.1H124.5Zm-62.25-6.25A1.751,1.751,0,0,1,64,108.6h46.244a1.75,1.75,0,0,1,0,3.5H64A1.751,1.751,0,0,1,62.25,110.349Zm0-8A1.751,1.751,0,0,1,64,100.6h54.25a1.75,1.75,0,0,1,0,3.5H64A1.75,1.75,0,0,1,62.25,102.347Z" fill="url(#a)"/></svg>
