<svg height="512" viewBox="0 0 128 128" width="512" xmlns="http://www.w3.org/2000/svg" xmlns:xlink="http://www.w3.org/1999/xlink"><linearGradient id="a" gradientUnits="userSpaceOnUse" x1="108.321" x2="19.679" y1="91.305" y2="2.664"><stop offset="0" stop-color="#29bff8"/><stop offset="1" stop-color="#1e97f6"/></linearGradient><path d="m59.938 34.737a29.969 29.969 0 1 0 -29.968 29.97 30 30 0 0 0 29.968-29.97zm-29.968 26.47a26.47 26.47 0 1 1 26.468-26.47 26.5 26.5 0 0 1 -26.468 26.47zm19.565-20.093a1.748 1.748 0 0 0 -.963-.931l-7.443-2.932a1.749 1.749 0 0 0 -2.27.987 9.556 9.556 0 0 1 -17.78 0 1.75 1.75 0 0 0 -2.269-.986l-7.444 2.934a1.747 1.747 0 0 0 -.986 2.269 21.057 21.057 0 0 0 39.179 0 1.75 1.75 0 0 0 -.024-1.341zm-19.565 11.174a17.449 17.449 0 0 1 -15.613-9.52l4.215-1.662a13.061 13.061 0 0 0 22.8 0l4.214 1.661a17.441 17.441 0 0 1 -15.616 9.521zm68.06-47.52a29.97 29.97 0 1 0 29.97 29.969 30 30 0 0 0 -29.97-29.969zm0 56.439a26.47 26.47 0 1 1 26.47-26.47 26.5 26.5 0 0 1 -26.47 26.47zm-79.593-27.082a5.757 5.757 0 0 0 5.75-5.75v-2.5a5.75 5.75 0 1 0 -11.5 0v2.5a5.757 5.757 0 0 0 5.75 5.75zm-2.25-8.25a2.25 2.25 0 0 1 4.5 0v2.5a2.25 2.25 0 0 1 -4.5 0zm25.313 8.25a5.757 5.757 0 0 0 5.75-5.75v-2.5a5.75 5.75 0 0 0 -11.5 0v2.5a5.757 5.757 0 0 0 5.75 5.75zm-2.25-8.25a2.25 2.25 0 0 1 4.5 0v2.5a2.25 2.25 0 1 1 -4.5 0zm54.72 67.388a29.97 29.97 0 0 1 -59.94 0 1.75 1.75 0 0 1 3.5 0 26.452 26.452 0 1 0 2.631-11.519 1.75 1.75 0 0 1 -3.15-1.526 29.974 29.974 0 0 1 56.959 13.045zm-41.5-.613a5.757 5.757 0 0 0 5.75-5.75v-2.5a5.75 5.75 0 0 0 -11.5 0v2.5a5.757 5.757 0 0 0 5.748 5.75zm-2.25-8.25a2.25 2.25 0 0 1 4.5 0v2.5a2.25 2.25 0 0 1 -4.5 0zm31.063 2.5v-2.5a5.75 5.75 0 0 0 -11.5 0v2.5a5.75 5.75 0 0 0 11.5 0zm-8 0v-2.5a2.25 2.25 0 0 1 4.5 0v2.5a2.25 2.25 0 0 1 -4.5 0zm36.3-49.348a1.75 1.75 0 0 1 -1.918 2.928 17.247 17.247 0 0 0 -2.48-1.35 1.75 1.75 0 0 1 1.418-3.2 20.848 20.848 0 0 1 2.981 1.622zm8.017 11.248a1.759 1.759 0 0 1 -.964.931l-7.444 2.933a1.75 1.75 0 0 1 -2.269-.988 9.557 9.557 0 0 0 -17.78 0 1.751 1.751 0 0 1 -2.27.986l-7.445-2.932a1.75 1.75 0 0 1 -.987-2.27 20.941 20.941 0 0 1 19.59-13.333 1.75 1.75 0 0 1 0 3.5 17.445 17.445 0 0 0 -15.612 9.519l4.215 1.662a13.062 13.062 0 0 1 22.8 0l4.214-1.66c-.2-.4-.424-.792-.657-1.172a1.75 1.75 0 0 1 2.987-1.826 21.49 21.49 0 0 1 1.647 3.31 1.757 1.757 0 0 1 -.025 1.34zm-31.1-14.675a5.757 5.757 0 0 0 5.75-5.75v-2.5a5.75 5.75 0 0 0 -11.5 0v2.5a5.757 5.757 0 0 0 5.75 5.75zm-2.25-8.25a2.25 2.25 0 0 1 4.5 0v2.5a2.25 2.25 0 0 1 -4.5 0zm25.313 8.25a5.757 5.757 0 0 0 5.75-5.75v-2.5a5.75 5.75 0 0 0 -11.5 0v2.5a5.757 5.757 0 0 0 5.749 5.75zm-2.25-8.25a2.25 2.25 0 0 1 4.5 0v2.5a2.25 2.25 0 1 1 -4.5 0zm-60.594 80.25a1.75 1.75 0 0 0 1.75 1.75h31.062a1.75 1.75 0 0 0 1.75-1.75v-8a1.75 1.75 0 0 0 -1.75-1.75h-31.063a1.75 1.75 0 0 0 -1.75 1.75zm3.5-6.25h27.562v4.5h-27.563z" fill="url(#a)"/></svg>