<svg id="Layer_1" enable-background="new 0 0 128 128" height="512" viewBox="0 0 128 128" width="512" xmlns="http://www.w3.org/2000/svg" xmlns:xlink="http://www.w3.org/1999/xlink"><linearGradient id="SVGID_1_" gradientTransform="matrix(1 0 0 -1 0 127.89)" gradientUnits="userSpaceOnUse" x1="115.235" x2="12.763" y1="17.36" y2="119.833"><stop offset="0" stop-color="#29bff8"/><stop offset="1" stop-color="#1e97f6"/></linearGradient><path d="m61.4 80.2.4-2.8c.1-1 1-1.6 2-1.5s1.6 1 1.5 2v.1l-.3 1.9h.3c1 0 1.7.8 1.7 1.7s-.8 1.7-1.7 1.7h-1.2c-1.6.1-2.9-1.4-2.7-3.1zm9.2-2.1c1.8 0 3.2-1.4 3.2-3.2s-1.4-3.2-3.2-3.2-3.2 1.4-3.2 3.2c0 1.8 1.4 3.2 3.2 3.2zm-11.8 6.6c-.7.6-.9 1.7-.2 2.5 2.9 3 7.9 3.1 10.7 0 .7-.7.5-1.8-.2-2.5-.7-.6-1.8-.5-2.5.2-1.1 1.2-3.6 1.6-5.3.1-.6-.8-1.7-.9-2.5-.3zm1.8-9.8c0-1.8-1.4-3.2-3.2-3.2s-3.2 1.4-3.2 3.2 1.4 3.2 3.2 3.2c1.8 0 3.2-1.4 3.2-3.2zm50-69.1v25.3c0 3.2-2.6 5.7-5.7 5.7h-31.4l-8.4 7.4c-.7.6-1.7.6-2.3 0l-8.4-7.4h-31.3c-3.2 0-5.7-2.6-5.7-5.7v-25.3c0-3.2 2.6-5.7 5.7-5.7h81.8c3.2 0 5.7 2.6 5.7 5.7zm-3.5 0c0-1.2-1-2.2-2.2-2.2h-81.8c-1.2 0-2.2 1-2.2 2.2v25.3c0 1.2 1 2.2 2.2 2.2h32c.4 0 .8.2 1.2.4l7.7 6.8 7.7-6.8c.3-.3.7-.4 1.2-.4h32c1.2 0 2.2-1 2.2-2.2zm-59.3 10.9-4.1 4 1 5.6c.2 1.4-1.3 2.5-2.5 1.8l-5.1-2.7-5.1 2.7c-1.3.7-2.8-.4-2.5-1.8l1-5.6-4.1-4c-1-1-.5-2.8 1-3l5.7-.8 2.5-5.1c.6-1.3 2.5-1.3 3.1 0l2.5 5.1 5.7.8c1.3.2 1.9 2 .9 3zm-5-.1-3.1-.4c-.6-.1-1.1-.4-1.3-1l-1.4-2.8-1.4 2.8c-.3.5-.7.9-1.3 1l-3.1.4 2.2 2.2c.4.4.6 1 .5 1.5l-.5 3 2.7-1.4c.5-.3 1.1-.3 1.6 0l2.7 1.4-.5-3c-.1-.6.1-1.1.5-1.5zm31.9.1-4.1 4 1 5.6c.2 1.4-1.3 2.5-2.5 1.8l-5.1-2.6-5.1 2.7c-1.3.7-2.8-.4-2.5-1.8l1-5.6-4.1-4c-1-1-.4-2.8 1-3l5.7-.8 2.5-5.1c.6-1.3 2.5-1.3 3.1 0l2.5 5.1 5.7.8c1.4.1 2 1.9.9 2.9zm-5-.1-3.1-.4c-.6-.1-1.1-.4-1.3-1l-1.3-2.7-1.4 2.8c-.3.5-.7.9-1.3 1l-3.1.4 2.2 2.2c.4.4.6 1 .5 1.5l-.5 3 2.7-1.4c.5-.3 1.1-.3 1.6 0l2.7 1.4-.5-3c-.1-.6.1-1.1.5-1.5zm31-2.9-5.7-.8-2.5-5.1c-.6-1.3-2.5-1.3-3.1 0l-2.5 5.1-5.7.8c-1.4.2-2 2-1 3l4.1 4-1 5.6c-.2 1.4 1.3 2.5 2.5 1.8l5.9-3.1c.9-.4 1.2-1.5.7-2.4-.4-.9-1.5-1.2-2.4-.7l-2.7 1.4.5-3c.1-.6-.1-1.1-.5-1.5l-2.2-2.2 3.1-.4c.6-.1 1.1-.4 1.3-1l1.4-2.8 1.4 2.8c.3.5.7.9 1.3 1l6.6 1c1 .1 1.8-.5 2-1.5.1-1-.6-1.9-1.5-2zm-1.8 103.3v9.2c0 1-.8 1.7-1.7 1.7h-37.3c-1 0-1.7-.8-1.7-1.7s.8-1.7 1.7-1.7h35.4v-7.5c0-5.2-3.5-9.8-8.6-11.2-2.2-.5-3.3-.5-7-.8l-4.1 10.3c-.4 1-1.5 1.4-2.4.9l-9.4-4.9-9.4 4.9c-.9.5-2.1.1-2.4-.9l-4.1-10.3c-1.8.1-3.8.1-6.9.9-5.1 1.4-8.6 6-8.6 11.2v7.5h4.9c1 0 1.7.8 1.7 1.7 0 1-.8 1.7-1.7 1.7h-6.6c-1 0-1.7-.8-1.7-1.7v-9.3c0-6.8 4.6-12.8 11.1-14.6 4.1-1 5.9-.8 10.7-1.2 1.5-.1 2.5-.6 3-2.3l.5-4c-3.3-2.8-4.7-6.3-5.5-10.7-3.4.3-6.2-2.4-6.2-5.8 0-2.8 1.9-5.1 4.6-5.7v-5.3c0-9.2 7.5-16.7 16.7-16.7 9.2 0 16.6 7.5 16.6 16.7v5.3c3.1.7 5.1 3.9 4.3 7-.6 2.7-3.1 4.6-5.9 4.5-.3 1.7-.7 3.4-1.3 5-.9 2.2-2.3 4.2-4.1 5.7l.5 4.1c.2 1.5 1.4 2.1 3.1 2.2 4.2.5 6.9.3 10.5 1.2 6.7 1.8 11.3 7.8 11.3 14.6zm-18.3-40.7c-.1 1.6-.4 2.5-.8 4.2 2-.4 2.5-3 .8-4.2zm-29.8-9v.7h1.6c1.7 0 3.3-.8 4.3-2.2l1.9-2.7c.7-1 2.2-1 2.9 0l1.9 2.7c1 1.4 2.6 2.2 4.3 2.2h9.5v-.7c0-7.3-5.9-13.2-13.2-13.2-7.3 0-13.2 5.9-13.2 13.2zm-2.6 13.3c-.4-1.7-.7-2.7-.8-4.3-2 1-1.4 4 .8 4.3zm5.3 7.2c3.7 9.2 17.1 9.5 21 0 .9-2.4.7-2.4 2.4-10.3.2-.8.3-1.6.3-2.4v-3.6h-9.5c-2.8 0-5.5-1.4-7.2-3.7l-.5-.8-.5.7c-1.6 2.3-4.3 3.7-7.2 3.7h-1.6v3.6c0 .8.1 1.6.3 2.4.1.1 1.6 7.8 2.5 10.4zm4.1 9.1-.3 2.5c0 .3-.3 1.2-.7 2l7.4 5.6c.1-.1 7.8-5.9 7.3-5.6-.3-.6-.5-1.1-.7-2l-.3-2.5c-4 1.9-8.6 1.9-12.7 0zm3.2 12-6.6-5.1c-.7.4-1.5.6-2.4.7l3 7.5zm15.4-4.4c-.8-.1-1.6-.4-2.3-.7l-6.7 5.1 6 3.2zm-25.5 19.9h-4c-1 0-1.7.8-1.7 1.7 0 1 .8 1.7 1.7 1.7h4c1 0 1.7-.8 1.7-1.7.1-.9-.7-1.7-1.7-1.7z" fill="url(#SVGID_1_)"/></svg>