<svg id="Layer_1" enable-background="new 0 0 128 128" height="512" viewBox="0 0 128 128" width="512" xmlns="http://www.w3.org/2000/svg" xmlns:xlink="http://www.w3.org/1999/xlink"><linearGradient id="SVGID_1_" gradientTransform="matrix(1 0 0 -1 0 127.89)" gradientUnits="userSpaceOnUse" x1="115.673" x2="12.327" y1="21.766" y2="125.113"><stop offset="0" stop-color="#29bff8"/><stop offset="1" stop-color="#1e97f6"/></linearGradient><path d="m33.7 59.4v-2.7c0-1 .8-1.7 1.7-1.7s1.7.8 1.7 1.7v2.7c0 1-.8 1.7-1.7 1.7s-1.7-.7-1.7-1.7zm58.5-2.6c.8 1.1 1.2 2.5 1 3.9l-.2 1.6c-.2 1.4-.9 2.6-2 3.5.8 1.1 1.2 2.5 1 3.9l-.2 1.6c-.2 1.4-.9 2.6-2 3.5 2.6 3.6 0 8.6-4.4 8.6h-23.4c-2.6 0-5.1-1.3-6.6-3.4-.9-1.2-2.2-1.9-3.7-1.9h-5.4v5.2c0 1-.8 1.7-1.7 1.7h-9.1c-1 0-1.7-.8-1.7-1.7v-15.3c0-1 .8-1.7 1.7-1.7s1.7.8 1.7 1.7v13.7h5.6v-38.3h-5.6v4.8c0 1-.8 1.7-1.7 1.7s-1.7-.8-1.7-1.7v-6.5c0-1 .8-1.7 1.7-1.7h9.1c1 0 1.7.8 1.7 1.7v5.2h6.6c7.3-1.5 13.3-6.6 16-13.5l3.3-8.5c.4-1 1.6-1.4 2.6-.8l3.8 2.4c2.3 1.5 3.6 4.2 3.2 7l-2.1 13.4h9.3c3.3 0 5.9 2.9 5.4 6.2v.3c-.4 1.3-1.1 2.5-2.2 3.4zm-3.4-6.5h-11.3c-1.1 0-1.9-1-1.7-2l2.4-15.4c.2-1.4-.4-2.8-1.6-3.5l-2-1.3-2.5 6.5c-3.1 8.1-10.2 14-18.7 15.7-.1 0-.2 0-.3 0h-6.7v24.4h5.4c2.6 0 5.1 1.3 6.6 3.4.9 1.2 2.2 1.9 3.7 1.9h23.3c1 0 1.8-.7 1.9-1.7.2-1.2-.8-2.2-1.9-2.2h-.5c-1 0-1.7-.8-1.7-1.7 0-1 .8-1.7 1.7-1.7h1.5c1 0 1.8-.7 1.9-1.7l.2-1.6c.2-1.2-.8-2.2-1.9-2.2h-.9c-1 0-1.7-.8-1.7-1.7 0-1 .8-1.7 1.7-1.7h2c1 0 1.8-.7 1.9-1.7l.2-1.6c.2-1.2-.8-2.2-1.9-2.2h-1.4c-1 0-1.7-.8-1.7-1.7 0-1 .8-1.7 1.7-1.7h2.4c1 0 1.8-.7 1.9-1.7v-.3c.1-1.5-.8-2.6-2-2.6zm27.4-42.2c-1 0-1.7.8-1.7 1.7s.8 1.7 1.7 1.7c4.5 0 8.2 3.7 8.2 8.2v69.3c0 4.5-3.7 8.2-8.2 8.2h-32.3c-.5 0-.9.2-1.2.5l-18.7 18-18.7-17.9c-.3-.3-.8-.5-1.2-.5h-32.3c-4.5 0-8.2-3.7-8.2-8.2v-69.2c0-4.5 3.7-8.2 8.2-8.2h88.8c1 0 1.7-.8 1.7-1.7s-.8-1.7-1.7-1.7h-88.8c-6.5 0-11.7 5.3-11.7 11.7v69c0 6.5 5.3 11.7 11.7 11.7h31.5l19.4 18.6c.7.6 1.7.6 2.4 0l19.4-18.6h31.5c6.5 0 11.7-5.3 11.7-11.7v-69.1c.2-6.5-5-11.8-11.5-11.8z" fill="url(#SVGID_1_)"/></svg>