<?xml version="1.0" encoding="UTF-8"?>
<svg xmlns="http://www.w3.org/2000/svg" xmlns:xlink="http://www.w3.org/1999/xlink" width="512" height="512" viewBox="0 0 128 128"><defs><linearGradient id="a" x1="128.758" y1="119.972" x2="16.924" y2="8.138" gradientUnits="userSpaceOnUse"><stop offset="0" stop-color="#29bff8"/><stop offset="1" stop-color="#1e97f6"/></linearGradient></defs><path d="M20.989,14.67l-.966,5.638a1.748,1.748,0,0,0,2.538,1.844l5.064-2.662,5.064,2.662a1.748,1.748,0,0,0,2.538-1.844l-.966-5.638,4.1-3.994a1.75,1.75,0,0,0-.97-2.985l-5.661-.823-2.532-5.13a1.75,1.75,0,0,0-3.138,0l-2.532,5.13-5.661.823a1.75,1.75,0,0,0-.97,2.985ZM24.938,10.2a1.744,1.744,0,0,0,1.317-.957l1.37-2.775L29,9.242a1.744,1.744,0,0,0,1.318.957l3.063.446-2.217,2.161a1.748,1.748,0,0,0-.5,1.548l.523,3.05-2.739-1.44a1.753,1.753,0,0,0-1.63,0L24.071,17.4l.523-3.05a1.748,1.748,0,0,0-.5-1.548l-2.217-2.161ZM4.625,35.056l-.967,5.637A1.75,1.75,0,0,0,6.2,42.538l5.064-2.661,5.063,2.661a1.75,1.75,0,0,0,2.539-1.845L17.9,35.056l4.1-3.995a1.75,1.75,0,0,0-.97-2.984l-5.661-.823L12.83,22.125a1.75,1.75,0,0,0-3.139,0L7.16,27.254,1.5,28.077a1.749,1.749,0,0,0-.971,2.984Zm3.948-4.471a1.746,1.746,0,0,0,1.318-.957l1.37-2.775,1.369,2.775a1.747,1.747,0,0,0,1.318.957l3.063.445-2.217,2.161a1.751,1.751,0,0,0-.5,1.549l.523,3.05-2.739-1.439a1.751,1.751,0,0,0-1.629,0L7.707,37.79l.523-3.05a1.751,1.751,0,0,0-.5-1.549L5.51,31.03Zm46.18-2a1.749,1.749,0,0,1-.031,2.474l-4.1,3.995.967,5.637a1.75,1.75,0,0,1-2.539,1.845l-5.064-2.662-5.063,2.662a1.75,1.75,0,0,1-2.539-1.845l.967-5.637-4.1-3.995a1.75,1.75,0,0,1,.97-2.984l5.661-.823,2.532-5.13a1.75,1.75,0,0,1,3.139,1.549L42.62,29.628a1.747,1.747,0,0,1-1.318.957l-3.063.445,2.217,2.161a1.751,1.751,0,0,1,.5,1.549l-.523,3.05,2.739-1.44a1.751,1.751,0,0,1,1.629,0l2.739,1.44-.523-3.05a1.751,1.751,0,0,1,.5-1.549l4.755-4.635A1.751,1.751,0,0,1,54.753,28.587ZM18.167,87.728a1.75,1.75,0,0,0,.7-1.712L17.9,80.377l4.1-3.993a1.751,1.751,0,0,0-.97-2.985l-5.661-.823-2.532-5.13a1.751,1.751,0,0,0-3.139,0L7.16,72.576,1.5,73.4a1.75,1.75,0,0,0-.971,2.985l4.1,3.993-.967,5.639A1.749,1.749,0,0,0,6.2,87.86L11.261,85.2l5.063,2.662a1.753,1.753,0,0,0,1.843-.132Zm-3.373-9.215a1.747,1.747,0,0,0-.5,1.548l.523,3.051-2.739-1.44a1.751,1.751,0,0,0-1.629,0l-2.739,1.44.523-3.051a1.747,1.747,0,0,0-.5-1.548l-2.216-2.16,3.062-.446a1.746,1.746,0,0,0,1.318-.957l1.37-2.775L12.63,74.95a1.747,1.747,0,0,0,1.318.957l3.062.446ZM53.752,73.4l-5.662-.823-2.531-5.13a1.751,1.751,0,0,0-3.139,0l-2.532,5.13-5.661.823a1.751,1.751,0,0,0-.97,2.985l4.1,3.993-.967,5.639a1.75,1.75,0,0,0,2.539,1.844L43.989,85.2l5.064,2.662a1.749,1.749,0,0,0,2.539-1.844l-.967-5.639,4.1-3.993a1.75,1.75,0,0,0-.97-2.985Zm-6.229,5.114a1.747,1.747,0,0,0-.5,1.548l.523,3.051L44.8,81.672a1.751,1.751,0,0,0-1.629,0l-2.739,1.44.523-3.051a1.747,1.747,0,0,0-.5-1.548l-2.216-2.16,3.062-.446a1.747,1.747,0,0,0,1.318-.957l1.369-2.775,1.37,2.775a1.746,1.746,0,0,0,1.318.957l3.062.446ZM37.387,107.99l-5.661-.823-2.532-5.13a1.749,1.749,0,0,0-3.138,0l-2.532,5.13-5.661.823a1.75,1.75,0,0,0-.97,2.985l4.1,3.994-.966,5.637a1.749,1.749,0,0,0,2.538,1.845l5.064-2.662,5.064,2.662a1.749,1.749,0,0,0,2.538-1.845l-.966-5.637,4.1-3.994a1.75,1.75,0,0,0-.97-2.985ZM31.159,113.1a1.751,1.751,0,0,0-.5,1.549l.523,3.05-2.739-1.44a1.745,1.745,0,0,0-1.63,0l-2.739,1.44.523-3.05a1.751,1.751,0,0,0-.5-1.549l-2.217-2.161,3.064-.445a1.744,1.744,0,0,0,1.317-.957l1.37-2.775L29,109.541a1.744,1.744,0,0,0,1.318.957l3.063.445ZM83,74.663a1.75,1.75,0,0,1,0-3.5h3a1.75,1.75,0,0,1,0,3.5Zm43.25-19.795H113.391v-.732a4.756,4.756,0,0,0-4.75-4.75h-4.5a4.756,4.756,0,0,0-4.75,4.75v.732H68a1.75,1.75,0,0,0-1.75,1.75V72.913A1.75,1.75,0,0,0,68,74.663h5.625a1.75,1.75,0,0,0,0-3.5H69.75V58.368H99.391V71.163H95.375a1.75,1.75,0,0,0,0,3.5h4.016V75.4a4.756,4.756,0,0,0,4.75,4.75h4.5a4.756,4.756,0,0,0,4.75-4.75v-.733H126.25a1.75,1.75,0,0,0,1.75-1.75V56.618A1.75,1.75,0,0,0,126.25,54.868ZM109.891,75.4a1.251,1.251,0,0,1-1.25,1.25h-4.5a1.252,1.252,0,0,1-1.25-1.25V54.136a1.251,1.251,0,0,1,1.25-1.25h4.5a1.25,1.25,0,0,1,1.25,1.25V75.4ZM124.5,71.163H113.391V58.368H124.5Zm1.75,30.8H103.383v-.732a4.755,4.755,0,0,0-4.75-4.75h-4.5a4.755,4.755,0,0,0-4.75,4.75v.732H68a1.75,1.75,0,0,0-1.75,1.75v16.3a1.75,1.75,0,0,0,1.75,1.75H89.383v.732a4.756,4.756,0,0,0,4.75,4.75h4.5a4.756,4.756,0,0,0,4.75-4.75v-.732H126.25a1.75,1.75,0,0,0,1.75-1.75v-16.3A1.75,1.75,0,0,0,126.25,101.96Zm-56.5,16.3v-12.8H89.383v12.8Zm30.133,4.232a1.251,1.251,0,0,1-1.25,1.25h-4.5a1.25,1.25,0,0,1-1.25-1.25V101.228a1.25,1.25,0,0,1,1.25-1.25h4.5a1.251,1.251,0,0,1,1.25,1.25v21.259Zm24.617-4.232H103.383v-12.8H124.5ZM126.25,7.772H93.375V7.039a4.756,4.756,0,0,0-4.75-4.75h-4.5a4.756,4.756,0,0,0-4.75,4.75v.733H68a1.75,1.75,0,0,0-1.75,1.75V25.816A1.75,1.75,0,0,0,68,27.566H79.375V28.3a4.756,4.756,0,0,0,4.75,4.75h4.5a4.756,4.756,0,0,0,4.75-4.75v-.733H126.25a1.75,1.75,0,0,0,1.75-1.75V9.522A1.75,1.75,0,0,0,126.25,7.772ZM69.75,24.066V11.272h9.625V24.066ZM89.875,28.3a1.251,1.251,0,0,1-1.25,1.25h-4.5a1.251,1.251,0,0,1-1.25-1.25V7.039a1.251,1.251,0,0,1,1.25-1.25h4.5a1.251,1.251,0,0,1,1.25,1.25V28.3ZM124.5,24.066H93.375V11.272H124.5Z" fill="url(#a)"/></svg>
