<svg height="512" viewBox="0 0 128 128" width="512" xmlns="http://www.w3.org/2000/svg" xmlns:xlink="http://www.w3.org/1999/xlink"><linearGradient id="a" gradientUnits="userSpaceOnUse" x1="113.589" x2="14.411" y1="113.586" y2="14.408"><stop offset="0" stop-color="#29bff8"/><stop offset="1" stop-color="#1e97f6"/></linearGradient><path d="m95.559 0h-63.118a8.76 8.76 0 0 0 -8.75 8.75v110.5a8.76 8.76 0 0 0 8.75 8.75h63.118a8.76 8.76 0 0 0 8.75-8.75v-110.503a8.76 8.76 0 0 0 -8.75-8.747zm5.25 119.25a5.256 5.256 0 0 1 -5.25 5.25h-63.118a5.256 5.256 0 0 1 -5.25-5.25v-110.503a5.256 5.256 0 0 1 5.25-5.25h63.118a5.256 5.256 0 0 1 5.25 5.25zm-4.5-25.25v9.235a1.75 1.75 0 0 1 -1.75 1.75h-61.118a1.75 1.75 0 0 1 -1.75-1.75v-93.488a1.75 1.75 0 0 1 1.75-1.747h18.559a1.75 1.75 0 0 1 0 3.5h-16.809v89.988h57.618v-7.488a1.75 1.75 0 0 1 3.5 0zm0-84.253v53.9a1.75 1.75 0 0 1 -3.5 0v-52.147h-15.059v3.1a5.757 5.757 0 0 1 -5.75 5.751h-13.625a1.75 1.75 0 0 1 0-3.5h13.625a2.253 2.253 0 0 0 2.25-2.25v-4.854a1.75 1.75 0 0 1 1.75-1.747h18.559a1.75 1.75 0 0 1 1.75 1.747zm0 65.878v6.4a1.75 1.75 0 1 1 -3.5 0v-6.4a1.75 1.75 0 0 1 3.5 0zm-25.627 33.86h-10.926a5.256 5.256 0 0 0 0 10.512h10.926a5.256 5.256 0 0 0 0-10.512zm0 7.012h-10.926a1.756 1.756 0 0 1 0-3.512h10.926a1.756 1.756 0 0 1 0 3.512z" fill="url(#a)"/></svg>