<svg height="512" viewBox="0 0 128 128" width="512" xmlns="http://www.w3.org/2000/svg" xmlns:xlink="http://www.w3.org/1999/xlink"><linearGradient id="a" gradientUnits="userSpaceOnUse" x1="94.074" x2="16.186" y1="109.508" y2="31.619"><stop offset="0" stop-color="#29bff8"/><stop offset="1" stop-color="#1e97f6"/></linearGradient><path d="m73.984 76v2.375a1.75 1.75 0 0 1 -3.5 0v-2.375a1.75 1.75 0 0 1 3.5 0zm22.391-20.741v10.367a1.749 1.749 0 0 1 -1.07 1.612l-10.805 4.553v28.675a7.008 7.008 0 0 1 -14.016 0v-1.084l-39.984-17.214-13.4 31.358a1.751 1.751 0 0 1 -1.61 1.063h-13.74a1.749 1.749 0 0 1 -1.609-2.438l13.753-32.187h-2.144a11.764 11.764 0 0 1 -11.75-11.75v-15.542a11.774 11.774 0 0 1 3.883-8.728 1.75 1.75 0 0 1 2.344 2.6 8.271 8.271 0 0 0 -2.727 6.128v15.542a8.259 8.259 0 0 0 8.25 8.25h4.536a1.7 1.7 0 0 1 .276-.041h7.43v-32h-9.305a1.75 1.75 0 1 1 0-3.5h10.694l45.103-19.423v-1.081a7.008 7.008 0 1 1 14.016 0v28.675l10.805 4.553a1.749 1.749 0 0 1 1.07 1.612zm-69.089 25.525-1.905-.82h-7.681l-13.3 31.125h9.937zm53.714-10.154v-50.211a3.508 3.508 0 1 0 -7.016 0v44.581a1.75 1.75 0 0 1 -3.5 0v-39.685l-42.992 18.509v33.237l42.992 18.51v-6.2a1.75 1.75 0 0 1 3.5 0v11.091a3.508 3.508 0 1 0 7.016 0zm11.875-14.21-8.375-3.528v15.1l8.375-3.528zm-58.132-10.232a1.749 1.749 0 0 0 -1.75 1.75v13.54a1.75 1.75 0 0 0 3.5 0v-13.54a1.749 1.749 0 0 0 -1.75-1.75zm8.7-3.537a1.751 1.751 0 0 0 -1.75 1.75v17.077a1.75 1.75 0 0 0 3.5 0v-17.078a1.75 1.75 0 0 0 -1.755-1.749zm58.345 4.7a1.749 1.749 0 1 0 -2.474 2.474 15.024 15.024 0 0 1 0 21.244 1.749 1.749 0 1 0 2.474 2.474 18.519 18.519 0 0 0 0-26.192zm7.063-7.063a1.75 1.75 0 1 0 -2.475 2.475 24.979 24.979 0 0 1 0 35.367 1.75 1.75 0 0 0 2.475 2.475 28.479 28.479 0 0 0 0-40.317zm7.067-7.067a1.75 1.75 0 0 0 -2.475 2.474 34.962 34.962 0 0 1 0 49.5 1.75 1.75 0 1 0 2.475 2.475 38.461 38.461 0 0 0 0-54.452z" fill="url(#a)"/></svg>