<svg height="512" viewBox="0 0 128 128" width="512" xmlns="http://www.w3.org/2000/svg" xmlns:xlink="http://www.w3.org/1999/xlink"><linearGradient id="a" gradientUnits="userSpaceOnUse" x1="114.853" x2="13.147" y1="104.853" y2="3.147"><stop offset="0" stop-color="#29bff8"/><stop offset="1" stop-color="#1e97f6"/></linearGradient><path d="m128 19.5v69a7.759 7.759 0 0 1 -7.75 7.75h-35.4l-19.617 19.491a1.748 1.748 0 0 1 -2.466 0l-19.614-19.491h-20.841a1.75 1.75 0 1 1 0-3.5h21.563a1.747 1.747 0 0 1 1.233.509l18.892 18.774 18.892-18.774a1.749 1.749 0 0 1 1.233-.509h36.125a4.254 4.254 0 0 0 4.25-4.25v-69a4.254 4.254 0 0 0 -4.25-4.25h-112.5a4.255 4.255 0 0 0 -4.25 4.25v69a4.255 4.255 0 0 0 4.25 4.25 1.75 1.75 0 0 1 0 3.5 7.759 7.759 0 0 1 -7.75-7.75v-69a7.759 7.759 0 0 1 7.75-7.75h112.5a7.759 7.759 0 0 1 7.75 7.75zm-120 10.94v-8a1.75 1.75 0 0 1 1.75-1.75h108.5a1.749 1.749 0 0 1 1.75 1.75v8a1.749 1.749 0 0 1 -1.75 1.75h-108.5a1.75 1.75 0 0 1 -1.75-1.75zm3.5-1.75h105v-4.5h-105zm-3.5 12.07a1.75 1.75 0 0 1 1.75-1.75h108.5a1.749 1.749 0 0 1 1.75 1.75v8a1.75 1.75 0 0 1 -1.75 1.75h-108.5a1.751 1.751 0 0 1 -1.75-1.747zm3.5 6.253h105v-4.5h-105zm85 10.319a1.75 1.75 0 0 0 0 3.5h3.25a1.75 1.75 0 0 0 0-3.5zm-88.5 9.753a1.75 1.75 0 0 0 1.75 1.75h108.5a1.749 1.749 0 0 0 1.75-1.75v-8a1.749 1.749 0 0 0 -1.75-1.75h-7.75a1.75 1.75 0 0 0 0 3.5h6v4.5h-105v-4.5h74.25a1.75 1.75 0 0 0 0-3.5h-76a1.75 1.75 0 0 0 -1.75 1.747zm0 10.315a1.751 1.751 0 0 1 1.75-1.75h69.5a1.75 1.75 0 0 1 1.75 1.75v8a1.749 1.749 0 0 1 -1.75 1.75h-69.5a1.75 1.75 0 0 1 -1.75-1.743zm3.5 6.253h66v-4.5h-66z" fill="url(#a)"/></svg>