<svg height="512" viewBox="0 0 128 128" width="512" xmlns="http://www.w3.org/2000/svg" xmlns:xlink="http://www.w3.org/1999/xlink"><linearGradient id="a" gradientUnits="userSpaceOnUse" x1="99.705" x2="28.295" y1="120.907" y2="49.497"><stop offset="0" stop-color="#29bff8"/><stop offset="1" stop-color="#1e97f6"/></linearGradient><path d="m88.6 91.486a5.519 5.519 0 0 1 -8.007 5.814l-16.593-8.719-16.593 8.719a5.519 5.519 0 0 1 -8.007-5.814l3.169-18.477-13.425-13.085a5.52 5.52 0 0 1 3.056-9.414l18.551-2.695 8.3-16.815a5.519 5.519 0 0 1 9.9 0l8.7 17.636a1.75 1.75 0 1 1 -3.139 1.549l-8.7-17.636a2.019 2.019 0 0 0 -3.62 0l-8.7 17.636a1.747 1.747 0 0 1 -1.318.957l-19.468 2.832a2.018 2.018 0 0 0 -1.119 3.443l14.083 13.728a1.747 1.747 0 0 1 .5 1.549l-3.321 19.384a2.019 2.019 0 0 0 2.929 2.128l17.407-9.151a1.747 1.747 0 0 1 1.63 0l17.407 9.151a2.019 2.019 0 0 0 2.929-2.128l-3.324-19.384a1.747 1.747 0 0 1 .5-1.549l14.086-13.727a2.019 2.019 0 0 0 -1.119-3.444l-1.111-.161a1.75 1.75 0 0 1 .5-3.464l1.111.161a5.52 5.52 0 0 1 3.06 9.414l-13.422 13.085zm-4.578-39.15 1.968.287a1.84 1.84 0 0 0 .254.018 1.75 1.75 0 0 0 .25-3.482l-1.968-.286a1.75 1.75 0 1 0 -.5 3.463zm3.11 7.843-10.3 10.037 2.431 14.173a1.749 1.749 0 0 1 -2.54 1.844l-12.723-6.691-12.727 6.691a1.75 1.75 0 0 1 -2.54-1.844l2.431-14.173-10.3-10.037a1.75 1.75 0 0 1 .97-2.985l14.23-2.067 6.364-12.9a1.75 1.75 0 0 1 3.138 0l6.364 12.9 14.23 2.067a1.75 1.75 0 0 1 .97 2.985zm-4.983-.031-11.63-1.69a1.75 1.75 0 0 1 -1.319-.958l-5.2-10.539-5.2 10.539a1.75 1.75 0 0 1 -1.318.957l-11.63 1.69 8.416 8.2a1.749 1.749 0 0 1 .5 1.549l-1.986 11.59 10.4-5.469a1.745 1.745 0 0 1 1.63 0l10.4 5.469-1.981-11.586a1.749 1.749 0 0 1 .5-1.549zm45.323 19.622-7.766 7.569 1.834 10.687a1.751 1.751 0 0 1 -2.54 1.845l-9.6-5.046-9.6 5.046a1.75 1.75 0 0 1 -2.539-1.845l1.839-10.687-7.767-7.569a1.75 1.75 0 0 1 .971-2.985l10.731-1.559 4.8-9.724a1.751 1.751 0 0 1 3.139 0l4.8 9.724 10.73 1.559a1.75 1.75 0 0 1 .971 2.985zm-4.983-.031-8.132-1.181a1.747 1.747 0 0 1 -1.317-.958l-3.64-7.369-3.634 7.369a1.749 1.749 0 0 1 -1.318.958l-8.132 1.181 5.885 5.736a1.752 1.752 0 0 1 .5 1.549l-1.389 8.1 7.273-3.824a1.751 1.751 0 0 1 1.629 0l7.274 3.824-1.389-8.1a1.748 1.748 0 0 1 .5-1.549zm-86.789-2.954-10.735-1.559-4.8-9.724a1.751 1.751 0 0 0 -3.139 0l-4.8 9.724-10.726 1.559a1.75 1.75 0 0 0 -.972 2.985l7.765 7.569-1.833 10.687a1.75 1.75 0 0 0 2.54 1.845l9.6-5.046 9.6 5.046a1.75 1.75 0 0 0 1.629-3.1l-10.417-5.471a1.751 1.751 0 0 0 -1.629 0l-7.274 3.824 1.389-8.1a1.746 1.746 0 0 0 -.5-1.549l-5.887-5.736 8.132-1.181a1.747 1.747 0 0 0 1.317-.958l3.64-7.369 3.634 7.369a1.749 1.749 0 0 0 1.318.958l8.132 1.181-5.884 5.736a1.75 1.75 0 1 0 2.444 2.506l8.424-8.211a1.75 1.75 0 0 0 -.971-2.985z" fill="url(#a)"/></svg>