<svg height="512" viewBox="0 0 128 128" width="512" xmlns="http://www.w3.org/2000/svg" xmlns:xlink="http://www.w3.org/1999/xlink"><linearGradient id="a" gradientUnits="userSpaceOnUse" x1="105.56" x2="42.869" y1="85.131" y2="22.44"><stop offset="0" stop-color="#29bff8"/><stop offset="1" stop-color="#1e97f6"/></linearGradient><path d="m127.969 61.638-9.68-50.538a1.752 1.752 0 0 0 -1.39-1.39l-50.537-9.679a1.752 1.752 0 0 0 -1.562.482l-64.287 64.287a1.749 1.749 0 0 0 0 2.475l60.217 60.212a1.748 1.748 0 0 0 2.474 0l64.283-64.287a1.75 1.75 0 0 0 .482-1.562zm-66 62.137-57.744-57.742 62.39-62.389 48.46 9.281 9.282 48.46zm20.931-29.347a1.748 1.748 0 0 1 0 2.474l-3 3a1.749 1.749 0 0 1 -2.474-2.474l3-3a1.748 1.748 0 0 1 2.474 0zm28.809-76.749 7.93 41.4a1.756 1.756 0 0 1 -.482 1.567l-29.257 29.254a1.749 1.749 0 0 1 -2.474-2.474l28.6-28.6-7.526-39.326-39.327-7.528-54.061 54.061 46.855 46.856 8.461-8.461a1.749 1.749 0 0 1 2.472 2.472l-9.7 9.7a1.75 1.75 0 0 1 -2.474 0l-49.326-49.329a1.751 1.751 0 0 1 0-2.475l55.955-55.955a1.767 1.767 0 0 1 1.566-.482l41.4 7.93a1.752 1.752 0 0 1 1.39 1.39zm-74.769 53.498a1.75 1.75 0 0 0 1.209 1.4l13.18 4.1 4.1 13.179a1.754 1.754 0 0 0 1.4 1.209 1.819 1.819 0 0 0 .275.021 1.749 1.749 0 0 0 1.428-.739l7.968-11.274 13.8.176h.023a1.75 1.75 0 0 0 1.4-2.8l-8.254-11.06 4.431-13.069a1.749 1.749 0 0 0 -2.221-2.22l-13.071 4.433-11.061-8.254a1.749 1.749 0 0 0 -2.8 1.425l.176 13.8-11.269 7.97a1.751 1.751 0 0 0 -.714 1.703zm14.76-7.346a1.751 1.751 0 0 0 .74-1.451l-.14-11.175 8.958 6.684a1.751 1.751 0 0 0 1.608.255l10.584-3.589-3.594 10.585a1.75 1.75 0 0 0 .255 1.608l6.689 8.952-11.18-.139h-.02a1.753 1.753 0 0 0 -1.429.74l-6.452 9.125-3.319-10.672a1.748 1.748 0 0 0 -1.153-1.154l-10.673-3.315zm40.8-35.177a4.926 4.926 0 1 0 7.562-.72 1.75 1.75 0 0 1 2.475-2.475 8.426 8.426 0 1 1 -12.927 1.226 1.75 1.75 0 0 1 2.89 1.969z" fill="url(#a)"/></svg>