<?xml version="1.0" encoding="UTF-8"?>
<svg xmlns="http://www.w3.org/2000/svg" xmlns:xlink="http://www.w3.org/1999/xlink" width="512" height="512" viewBox="0 0 128 128"><defs><linearGradient id="a" x1="101.745" y1="101.742" x2="26.255" y2="26.252" gradientUnits="userSpaceOnUse"><stop offset="0" stop-color="#29bff8"/><stop offset="1" stop-color="#1e97f6"/></linearGradient></defs><path d="M98.658,90.713a1.75,1.75,0,0,1,.217,2.465c-.768.916-1.578,1.809-2.407,2.655a1.75,1.75,0,0,1-2.5-2.451c.766-.781,1.514-1.607,2.223-2.452A1.749,1.749,0,0,1,98.658,90.713Zm8.9-28.966a1.749,1.749,0,0,0,1.742-1.909A45.451,45.451,0,0,0,68.159,18.694a1.752,1.752,0,0,0-1.909,1.744v5.088h-4.5V20.438a1.752,1.752,0,0,0-1.909-1.744A45.45,45.45,0,0,0,18.7,59.838a1.749,1.749,0,0,0,1.742,1.909h5.089v4.5H20.44A1.749,1.749,0,0,0,18.7,68.156,45.45,45.45,0,0,0,59.841,109.3c.053.005.106.007.159.007a1.751,1.751,0,0,0,1.75-1.75v-5.089h4.5v5.089a1.751,1.751,0,0,0,1.909,1.743,44.944,44.944,0,0,0,18.919-6.11,1.75,1.75,0,1,0-1.78-3.014A41.417,41.417,0,0,1,69.75,105.6v-4.879A1.75,1.75,0,0,0,68,98.968H60a1.75,1.75,0,0,0-1.75,1.75V105.6A41.95,41.95,0,0,1,22.4,69.747h4.878A1.75,1.75,0,0,0,29.029,68V60a1.75,1.75,0,0,0-1.75-1.75H22.4A41.95,41.95,0,0,1,58.25,22.4v4.879A1.75,1.75,0,0,0,60,29.026h8a1.75,1.75,0,0,0,1.75-1.75V22.4A41.95,41.95,0,0,1,105.6,58.247h-4.878A1.75,1.75,0,0,0,98.971,60v8a1.75,1.75,0,0,0,1.75,1.75H105.6a41.6,41.6,0,0,1-2.96,10.689,1.75,1.75,0,1,0,3.218,1.375A45.1,45.1,0,0,0,109.3,68.156a1.749,1.749,0,0,0-1.742-1.909h-5.089v-4.5ZM128,60v8a1.749,1.749,0,0,1-1.75,1.75h-9.072A53.866,53.866,0,0,1,69.75,117.173v9.073A1.75,1.75,0,0,1,68,128H60a1.75,1.75,0,0,1-1.75-1.75v-9.073A53.866,53.866,0,0,1,10.824,69.747H1.751A1.75,1.75,0,0,1,0,68V60a1.75,1.75,0,0,1,1.75-1.75h9.073A53.866,53.866,0,0,1,58.25,10.821V1.749A1.75,1.75,0,0,1,60,0h8a1.75,1.75,0,0,1,1.75,1.75v9.072a53.866,53.866,0,0,1,47.426,47.426h9.072A1.749,1.749,0,0,1,128,60Zm-3.5,1.75H115.58a1.75,1.75,0,0,1-1.745-1.616A50.3,50.3,0,0,0,67.866,14.162a1.75,1.75,0,0,1-1.616-1.745V3.5h-4.5v8.918a1.75,1.75,0,0,1-1.616,1.745A50.3,50.3,0,0,0,14.165,60.131a1.75,1.75,0,0,1-1.745,1.616H3.5v4.5H12.42a1.75,1.75,0,0,1,1.745,1.616,50.3,50.3,0,0,0,45.969,45.969,1.75,1.75,0,0,1,1.616,1.745V124.5h4.5v-8.919a1.75,1.75,0,0,1,1.616-1.745,50.3,50.3,0,0,0,45.969-45.969,1.75,1.75,0,0,1,1.745-1.616H124.5ZM64,57.736,69.063,60.4A1.748,1.748,0,0,0,71.6,58.553l-.966-5.638,4.1-3.993a1.749,1.749,0,0,0-.97-2.984L68.1,45.114l-2.532-5.13a1.75,1.75,0,0,0-3.138,1.549l2.939,5.955a1.744,1.744,0,0,0,1.317.957l3.063.446-2.216,2.16a1.748,1.748,0,0,0-.5,1.549l.523,3.049-2.74-1.439a1.751,1.751,0,0,0-1.629,0l-2.739,1.439.523-3.049a1.748,1.748,0,0,0-.5-1.549l-4.755-4.635a1.75,1.75,0,1,0-2.443,2.506l4.1,3.993L56.4,58.553A1.749,1.749,0,0,0,58.936,60.4ZM58.368,69.308l-4.1,3.993.967,5.638A1.75,1.75,0,0,1,52.7,80.783l-5.063-2.661-5.064,2.661a1.75,1.75,0,0,1-2.539-1.844L41,73.3l-4.1-3.993a1.75,1.75,0,0,1,.97-2.985l5.662-.823,2.531-5.13a1.751,1.751,0,0,1,3.139,0l2.532,5.13,5.66.823a1.75,1.75,0,0,1,.971,2.985Zm-4.983-.032-3.062-.445a1.747,1.747,0,0,1-1.318-.957L47.636,65.1l-1.37,2.775a1.746,1.746,0,0,1-1.318.957l-3.062.445,2.216,2.16a1.75,1.75,0,0,1,.5,1.549l-.523,3.05L46.821,74.6a1.751,1.751,0,0,1,1.629,0l2.739,1.439-.523-3.05a1.75,1.75,0,0,1,.5-1.549ZM91.54,67.514a1.752,1.752,0,0,1-.443,1.794L87,73.3l.967,5.638a1.75,1.75,0,0,1-2.539,1.844l-5.064-2.661L75.3,80.783a1.75,1.75,0,0,1-2.539-1.844l.967-5.638-4.1-3.993a1.75,1.75,0,0,1,.97-2.985l5.661-.823L78.8,60.37a1.751,1.751,0,0,1,3.139,0l2.531,5.13,5.661.823A1.753,1.753,0,0,1,91.54,67.514Zm-5.426,1.762-3.062-.445a1.746,1.746,0,0,1-1.318-.957L80.364,65.1,79,67.874a1.747,1.747,0,0,1-1.318.957l-3.062.445,2.216,2.16a1.75,1.75,0,0,1,.5,1.549l-.523,3.05L79.55,74.6a1.751,1.751,0,0,1,1.629,0l2.739,1.439-.523-3.05a1.75,1.75,0,0,1,.5-1.549Z" fill="url(#a)"/></svg>
