<svg id="Layer_1" enable-background="new 0 0 128 128" height="512" viewBox="0 0 128 128" width="512" xmlns="http://www.w3.org/2000/svg" xmlns:xlink="http://www.w3.org/1999/xlink"><linearGradient id="SVGID_1_" gradientTransform="matrix(1 0 0 -1 0 127.89)" gradientUnits="userSpaceOnUse" x1="108.686" x2="19.321" y1="27.697" y2="117.062"><stop offset="0" stop-color="#29bff8"/><stop offset="1" stop-color="#1e97f6"/></linearGradient><path d="m91.4 70.2-.2-9.6c0-.7-.5-1.4-1.2-1.6l-9.1-3.2-5.8-7.6c-.4-.6-1.2-.8-1.9-.6l-9.2 2.7-9.2-2.8c-.7-.2-1.4 0-1.9.6l-5.8 7.6-9.1 3.3c-.7.2-1.2.9-1.2 1.6l-.2 9.6-5.5 7.9c-.4.6-.4 1.4 0 2l5.5 7.9.2 9.6c0 .7.5 1.4 1.2 1.6l8.1 2.8v24.1c0 1 .8 1.7 1.7 1.7h8.8c.5 0 .9-.2 1.2-.5l6.2-6.2 6.2 6.2c.3.3.8.5 1.2.5h8.8c1 0 1.7-.8 1.7-1.7v-24.1l8.1-2.8c.7-.2 1.2-.9 1.2-1.6l.2-9.6 5.5-7.9c.4-.6.4-1.4 0-2zm-41.8 35.6 3.3 4.3c.4.6 1.2.8 1.9.6h.1v13.8h-5.3zm13.2 11.8-4.4 4.4v-12.3l5.6-1.7 5.6 1.7v12.3l-4.4-4.4c-.6-.7-1.8-.7-2.4 0zm15.6 6.9h-5.3v-13.8h.1c.7.2 1.4 0 1.9-.6l3.3-4.3zm9.8-38c-.2.3-.3.6-.3.9l-.2 8.9-8.4 3c-.3.1-.6.3-.8.6l-5.4 7.1-8.6-2.6c-.3-.1-.7-.1-1 0l-8.6 2.6-5.4-7.1c-.2-.3-.5-.5-.8-.6l-8.4-3-.2-8.9c0-.3-.1-.7-.3-.9l-5.1-7.4 5.1-7.3c.2-.3.3-.6.3-.9l.2-8.9 8.4-3c.3-.1.6-.3.8-.6l5.4-7.1 8.6 2.6c.3.1.7.1 1 0l8.6-2.6 5.4 7.1c.2.3.5.5.8.6l8.4 3 .2 8.9c0 .3.1.7.3.9l5.1 7.3zm-10.6-20.6c-.7-.7-.6-1.8.1-2.5s1.8-.6 2.4 0c1 1 1.9 2.1 2.7 3.3.5.8.3 1.9-.5 2.4s-1.9.3-2.4-.5c-.7-.9-1.4-1.9-2.3-2.7zm8.9 13.3c0 12.4-10.1 22.5-22.5 22.5s-22.5-10.1-22.5-22.5 10.1-22.5 22.5-22.5c2.6 0 5.1.4 7.6 1.3.9.3 1.4 1.3 1 2.2-.3.9-1.3 1.4-2.2 1.1-9.9-3.6-20.8 1.6-24.4 11.5s1.6 20.8 11.5 24.4 20.8-1.6 24.4-11.5c.7-2.1 1.1-4.2 1.1-6.4 0-1 .8-1.7 1.7-1.7 1.1-.2 1.8.6 1.8 1.6zm-39.1 0c0 9.2 7.4 16.6 16.6 16.6s16.6-7.4 16.6-16.6-7.4-16.7-16.6-16.7c-9.2 0-16.6 7.5-16.6 16.7zm29.7 0c0 7.3-5.9 13.1-13.1 13.1-7.3 0-13.1-5.9-13.1-13.1 0-7.3 5.8-13.2 13.1-13.2 7.3 0 13.1 5.9 13.1 13.2zm-14.7-7.5-1.8 3.6-3.9.6c-1.4.2-2 2-1 3l2.9 2.8-.7 3.9c-.2 1.4 1.3 2.5 2.5 1.8l3.5-1.9 3.5 1.9c1.3.7 2.8-.4 2.5-1.8l-.7-3.9 2.9-2.8c1-1 .5-2.8-1-3l-3.9-.6-1.8-3.6c-.5-1.3-2.3-1.3-3 0zm3.5 6.9 1.3.2-1 .9c-.4.4-.6 1-.5 1.5l.2 1.3-1.1-.5c-.5-.3-1.1-.3-1.6 0l-1.2.6.2-1.3c.1-.6-.1-1.1-.5-1.5l-1-.9 1.3-.2c.6-.1 1.1-.4 1.3-1l.6-1.2.6 1.2c.4.5.9.8 1.4.9zm-14.2-50.8-2.3 13.5c-.2 1.4 1.3 2.5 2.5 1.8l12.1-6.4 12.1 6.4c1.3.7 2.8-.4 2.5-1.8l-2.3-13.5 9.8-9.6c1-1 .5-2.8-1-3l-13.5-2-6-12.2c-.6-1.3-2.5-1.3-3.1 0l-6.1 12.3-13.5 2c-1.4.2-2 2-1 3zm6.1-11.2c.6-.1 1.1-.4 1.3-1l4.9-9.9 4.9 9.9c.3.5.7.9 1.3 1l11 1.6-7.9 7.7c-.4.4-.6 1-.5 1.5l1.9 10.9-9.8-5.1c-.5-.3-1.1-.3-1.6 0l-9.8 5.1 1.9-10.9c.1-.6-.1-1.1-.5-1.5l-7.9-7.7zm68.7 12.5-10.7-1.6-4.8-9.7c-.6-1.3-2.5-1.3-3.1 0l-4.8 9.7-10.7 1.6c-1.4.2-2 2-1 3l7.8 7.6-1.8 10.7c-.3 1.4 1.3 2.5 2.5 1.8l9.6-5 9.6 5c1.3.7 2.8-.4 2.5-1.8l-1.8-10.7 7.8-7.6c.9-1 .3-2.8-1.1-3zm-9.9 8.7c-.4.4-.6 1-.5 1.5l1.4 8.1-7.3-3.8c-.5-.3-1.1-.3-1.6 0l-7.3 3.8 1.4-8.1c.1-.6-.1-1.1-.5-1.5l-5.9-5.7 8.1-1.2c.6-.1 1.1-.4 1.3-1l3.6-7.4 3.6 7.4c.3.5.7.9 1.3 1l8.1 1.2zm-85.9 12.6c.2 1.4-1.3 2.5-2.5 1.8l-9.6-5-9.6 5c-1.3.7-2.8-.4-2.5-1.8l1.8-10.7-7.8-7.6c-1.1-1-.5-2.8 1-3l10.7-1.6 4.8-9.7c.4-.9 1.5-1.2 2.3-.8.9.4 1.2 1.5.8 2.3l-5.1 10.6c-.3.5-.7.9-1.3 1l-8.1 1.2 5.9 5.7c.4.4.6 1 .5 1.5l-1.4 8.1 7.3-3.8c.5-.3 1.1-.3 1.6 0l7.3 3.8-1.4-8.1c-.1-.6.1-1.1.5-1.5l5.9-5.7-5.5-.8c-1-.1-1.6-1-1.5-2 .1-.9 1-1.6 2-1.5l9 1.3c1.4.2 2 2 1 3l-7.8 7.6z" fill="url(#SVGID_1_)"/></svg>