<?xml version="1.0" encoding="UTF-8"?>
<svg xmlns="http://www.w3.org/2000/svg" xmlns:xlink="http://www.w3.org/1999/xlink" width="512" height="512" viewBox="0 0 128 128"><defs><linearGradient id="a" x1="120.231" y1="121.991" x2="7.769" y2="9.529" gradientUnits="userSpaceOnUse"><stop offset="0" stop-color="#29bff8"/><stop offset="1" stop-color="#1e97f6"/></linearGradient></defs><path d="M28.937,113.5a1.749,1.749,0,0,1-1.75,1.75H22.5a1.75,1.75,0,0,1,0-3.5h4.687A1.749,1.749,0,0,1,28.937,113.5ZM120.25,12.753a1.75,1.75,0,0,0,0,3.5,4.254,4.254,0,0,1,4.25,4.25v8.75H3.5V20.5a4.255,4.255,0,0,1,4.25-4.25H109.875a1.75,1.75,0,0,0,0-3.5H7.75A7.759,7.759,0,0,0,0,20.5V113.5a1.75,1.75,0,0,0,1.75,1.75H12a1.75,1.75,0,0,0,0-3.5H3.5V32.753h121v78.994H37.687a1.75,1.75,0,0,0,0,3.5H126.25A1.749,1.749,0,0,0,128,113.5V20.5A7.759,7.759,0,0,0,120.25,12.753ZM9.625,21a1.75,1.75,0,0,0,0,3.5h4.75a1.75,1.75,0,0,0,0-3.5Zm12,0a1.75,1.75,0,0,0,0,3.5h4.75a1.75,1.75,0,0,0,0-3.5Zm12,0a1.75,1.75,0,0,0,0,3.5h4.75a1.75,1.75,0,0,0,0-3.5Zm16.625,1.75A1.75,1.75,0,0,0,52,24.5h64.242a1.75,1.75,0,0,0,0-3.5H52A1.75,1.75,0,0,0,50.25,22.753ZM37.116,84.977a29.691,29.691,0,0,1,0-25.454,1.757,1.757,0,0,1,.091-.2,29.744,29.744,0,0,1,53.583,0,1.55,1.55,0,0,1,.094.2,29.687,29.687,0,0,1,0,25.452,1.846,1.846,0,0,1-.093.2,29.745,29.745,0,0,1-53.584,0A1.743,1.743,0,0,1,37.116,84.977Zm.7-14.477H51.084a68,68,0,0,1,.727-8.612H39.886A26.037,26.037,0,0,0,37.815,70.5ZM56.062,58.388H71.938C70.126,50.718,66.952,46,64,46S57.873,50.718,56.062,58.388Zm-.694,3.5a63.3,63.3,0,0,0-.782,8.612H73.414a63.3,63.3,0,0,0-.782-8.612ZM90.185,74H76.916a68,68,0,0,1-.727,8.612H88.114A26.037,26.037,0,0,0,90.185,74ZM71.938,86.112H56.062C57.873,93.782,61.048,98.5,64,98.5S70.126,93.782,71.938,86.112Zm.694-3.5A63.3,63.3,0,0,0,73.414,74H54.586a63.3,63.3,0,0,0,.782,8.612ZM88.114,61.888H76.189a68,68,0,0,1,.727,8.612H90.185A26.037,26.037,0,0,0,88.114,61.888ZM37.815,74a26.037,26.037,0,0,0,2.071,8.612H51.811A68,68,0,0,1,51.084,74ZM57,97.545a32.109,32.109,0,0,1-4.544-11.433H41.723A26.345,26.345,0,0,0,57,97.545ZM86.277,86.112H75.542A32.109,32.109,0,0,1,71,97.545,26.341,26.341,0,0,0,86.277,86.112ZM71,46.955a32.109,32.109,0,0,1,4.544,11.433H86.277A26.341,26.341,0,0,0,71,46.955ZM41.723,58.388H52.458A32.109,32.109,0,0,1,57,46.955,26.345,26.345,0,0,0,41.723,58.388Z" fill="url(#a)"/></svg>
