<svg id="Layer_1" enable-background="new 0 0 128 128" height="512" viewBox="0 0 128 128" width="512" xmlns="http://www.w3.org/2000/svg" xmlns:xlink="http://www.w3.org/1999/xlink"><linearGradient id="SVGID_1_" gradientTransform="matrix(1 0 0 -1 0 127.89)" gradientUnits="userSpaceOnUse" x1="104.587" x2="-7.065" y1="8.063" y2="119.716"><stop offset="0" stop-color="#29bff8"/><stop offset="1" stop-color="#1e97f6"/></linearGradient><path d="m9.8 19.5h77.9c1 0 1.7-.8 1.7-1.7v-8c0-1-.8-1.7-1.7-1.7h-77.9c-1-.1-1.8.7-1.8 1.7v8c0 .9.8 1.7 1.8 1.7zm1.7-8h74.5v4.5h-74.5zm-3.5 24.3v-8c0-1 .8-1.7 1.7-1.7h7.5c1 0 1.7.8 1.7 1.7s-.8 1.7-1.7 1.7h-5.7v4.5h74.5v-4.5h-37.2c-1 0-1.7-.8-1.7-1.7s.8-1.7 1.7-1.7h39c1 0 1.7.8 1.7 1.7v8c0 1-.8 1.7-1.7 1.7h-78c-1 0-1.8-.8-1.8-1.7zm29.3-9.8c1 0 1.7.8 1.7 1.7s-.8 1.7-1.7 1.7h-8.6c-1 0-1.7-.8-1.7-1.7s.8-1.7 1.7-1.7zm-27.5 29.5h77.9c1 0 1.7-.8 1.7-1.7v-8c0-1-.8-1.7-1.7-1.7h-77.9c-1 0-1.7.8-1.7 1.7v8c-.1.9.7 1.7 1.7 1.7zm1.7-8h74.5v4.5h-74.5zm-1.7 26h77.9c1 0 1.7-.8 1.7-1.7v-8c0-1-.8-1.7-1.7-1.7h-77.9c-1 0-1.7.8-1.7 1.7v8c-.1.9.7 1.7 1.7 1.7zm1.7-8h74.5v4.5h-74.5zm114.8-7.6-4.7-4.7c-2.2-2.2-5.9-2.2-8.1 0 0 0-4.4 4.4-16 16v-67.4c0-1-.8-1.7-1.7-1.7h-94c-1-.1-1.8.7-1.8 1.7v124.4c0 1 .8 1.8 1.7 1.8h93.9c1 0 1.7-.8 1.7-1.7v-31.5l4.5-4.5c.7-.7.7-1.8 0-2.5s-1.8-.7-2.5 0c-5 5-9.4 9.4-14.4 14.4-1.8-1.8-5.9-5.9-7.9-7.9 7.3-7.3 24.4-24.4 24.4-24.4l7.9 7.9-2.5 2.5c-.7.7-.7 1.8 0 2.5s1.8.7 2.5 0c19-19 3.1-3.1 16.7-16.7 2.5-2.3 2.5-5.9.3-8.2zm-50.5 39.9 5.9 5.9-7.6 1.7zm2.8-9.8h-67.1v-4.5h71.6zm15.4 10.3v26.1h-90.5v-120.9h90.5v69.1l-7.4 7.4h-76.8c-1 0-1.7.8-1.7 1.7v8c0 1 .8 1.8 1.7 1.8h65.4l-1.6 1.6c-.2.2-.4.5-.5.9l-.9 4h-23.4c-1 0-1.7.8-1.7 1.8v8c0 1 .8 1.7 1.7 1.7h23c.4 0-.3.1 13.7-3 .3-.1.6-.2.9-.5zm-23.7 7.7h-19.8v-4.5h20.8c0 .1-1 4.8-1 4.5zm41.7-30.7c-.8-.8 2.9 2.9-7.9-7.9l3-3 7.9 7.9zm11.8-11.7-6.3 6.3-7.9-7.9 6.3-6.3c.9-.9 2.3-.9 3.2 0l4.7 4.7c.9.9.9 2.3 0 3.2z" fill="url(#SVGID_1_)"/></svg>