<svg xmlns="http://www.w3.org/2000/svg" xmlns:xlink="http://www.w3.org/1999/xlink" viewBox="0 0 541.98 172.23"><defs><style>.cls-1{isolation:isolate;}.cls-2{fill:#34bef0;}.cls-3{fill:url(#Gradiente_sem_nome_11);}</style><linearGradient id="Gradiente_sem_nome_11" y1="86.12" x2="541.98" y2="86.12" gradientUnits="userSpaceOnUse"><stop offset="0" stop-color="#0eb9fb"/><stop offset="0.99" stop-color="#049afb"/></linearGradient></defs><g id="Camada_2" data-name="Camada 2"><g id="Camada_1-2" data-name="Camada 1"><g id="Camada_2-2" data-name="Camada 2"><g id="Camada_1-2-2" data-name="Camada 1-2"><g class="cls-1"><path class="cls-2" d="M103.36,125.54c-10.29,0-18.23-5.78-18.23-19C85.13,95.16,89.54,83,95.71,71a222.35,222.35,0,0,0-33.37,4.59c-30.29,41.35-40,72.78-43.52,72.78-2.79,0-7.35-4.3-7.35-11.12,0-11.86,11.91-32.9,30-55.73C20.73,88.63,9.7,96.79,7.35,96.79,4.7,96.79,0,92.19,0,89.67c0-3.11,17.64-12.6,50.14-18.53l2.2-2.66C95.12,19.27,120.41,0,131.88,0c4.12,0,10.29,5.48,10.29,11.26,0,10.82-13.23,32.91-25.58,54.7,10.73.89,14.85,4,14.85,4.89a2.35,2.35,0,0,1-2.06,2.07c-1.32,0-6-2.07-15.29-2.52C104.24,88,95.71,104.94,95.71,115c0,4,2.06,5.18,4.27,5.18,11.46,0,28.52-21.78,33.37-27.86.59-.74.88-1.19,1.32-1.19a3,3,0,0,1,2.5,2.67,6,6,0,0,1-1.17,3C131.59,103.9,113.8,125.54,103.36,125.54Zm-5-59.43c14.85-26.54,36.9-51,36.9-60a1.51,1.51,0,0,0-1.32-1.63c-5.88,0-37.49,27-65.87,63.58-.14.15-.29.3-.29.45A299.48,299.48,0,0,1,98.36,66.11Z"/><path class="cls-2" d="M135.56,130.73c-5.15,0-13.23-5.63-13.23-17.64,0-26.09,35.87-72.33,36.16-90.71,0-2.07.59-3.26,1.77-3.26s5.44,4.45,5.44,12c0,16.89-31.61,68.47-31.61,90.7,0,1.93,1,3,2.2,3,3.83,0,18.82-20,27.5-32.46.59-.74.88-1.19,1.32-1.19a3,3,0,0,1,2.5,2.67,5.91,5.91,0,0,1-1.18,3C159.82,107.75,145.56,130.73,135.56,130.73Z"/><path class="cls-2" d="M166,122.58c-6.61,0-14.11-5.49-14.11-15.42,0-10.67,9.7-18.08,18.67-33,1-1.78,1.47-3.11,2.5-3.11s3.53,2.66,3.53,5.48c-.3,12.9-13.09,26.09-13.38,37.06,0,2.51,1.32,3.26,2.5,3.26,3.82,0,18.23-17.35,23.23-24.46.59-.74.88-1.19,1.32-1.19a3,3,0,0,1,2.5,2.67,6,6,0,0,1-1.17,3C187.46,103.9,174.23,122.58,166,122.58Zm20.88-67c0,2.08-2.06,4.74-4.12,4.74-3.38,0-6.61-3.26-6.61-6.37a3.64,3.64,0,0,1,4-3.7C182.9,50.25,186.87,52,186.87,55.58Z"/><path class="cls-2" d="M214.51,122.43a11.09,11.09,0,0,1-11-11.27c0-14.67,16.18-27,16.18-30.38a1.17,1.17,0,0,0-1.33-1.33c-2.64,0-18.52,16.15-27.34,30.38-8.53,14.08-8.09,16.45-9.85,16.45-2.06,0-6.77-3.7-6.77-10.37,0-13,10.88-23.87,14.41-39,.59-2.52,1-3.12,2.06-3.12,2.06,0,7.06,3.41,7.06,9.34,0,7-4.71,14.82-4.71,14.82,2.06-1.63,18.09-25.34,28.82-25.34,7.06,0,10.58,4.74,10.58,9.48-.14,11.71-18.23,21.94-18.23,31.87a1.75,1.75,0,0,0,1.77,1.93c6.91,0,19.85-17.2,24.55-23.57.59-.74.88-1.19,1.32-1.19a3,3,0,0,1,2.5,2.67,6,6,0,0,1-1.17,3C238.92,103.75,225.24,122.43,214.51,122.43Z"/><path class="cls-2" d="M248.92,123.76c-9.12,0-17.79-5.63-17.79-17.34,0-18.68,17.93-33,28.37-33,3.68,0,8.68,5.19,8.68,9.63-.15,9.64-10.88,20.46-18.68,20.46-1.76,0-4.7-1.63-4.7-1.63a25.72,25.72,0,0,0-1.91,10.22c0,4.45,1.62,5.93,3.53,5.93,10,0,23.08-15.41,30.28-25.64.59-.74.89-1.19,1.33-1.19a3,3,0,0,1,2.5,2.67,6,6,0,0,1-1.18,3C273.91,104.79,258.62,123.76,248.92,123.76Zm-2.21-26.68c3.82,0,15.73-11.56,16-15.56,0-.59-.3-1-.74-1C260.38,80.48,254.06,84,246.71,97.08Z"/></g><g class="cls-1"><path class="cls-2" d="M377.6,47.29c0,33.94-32.63,95.15-63.8,95.15-13.68,0-30-11.11-30-32.46,0-36.46,39-77.81,57.78-77.81,4.41,0,7.5,2.22,7.5,4,0,1.19-1.62,2.07-4.41,4-12.5,8.6-46.16,43-46.16,80.78,0,9.19,5.44,14.82,11.17,14.82,25.58,0,57.34-61.66,57.34-97.38,0-15.12-8.09-24.75-21.32-24.75-26.32,0-63.22,26.83-63.22,71A1.53,1.53,0,0,1,281,86.27c-2.65,0-9.85-7-9.85-17.79,0-36.31,44-61.36,71-61.36C363.64,7.12,377.6,22.24,377.6,47.29Z"/></g><g class="cls-1"><path class="cls-2" d="M374.81,99.9c-.74,0-2.94-1.33-2.94-2.81,0-.6.73-1.63,1.61-3,5.74-8.59,10.15-16.6,10.15-16.6-1.33-1.78-3.68-5.93-3.68-8.59,0-7.42,6.91-15.86,10.44-15.86,2.65,0,4.71,2.81,4.71,5.63,0,4.3-3.68,11-5.74,14.52,0,4.75,11.47,11.57,11.47,18.38,0,7.27-7.35,16.75-7.35,26.09,0,1.48.88,2.22,1.76,2.22,4.56,0,19.41-19.71,24.7-27.12.59-.74.88-1.19,1.33-1.19a3,3,0,0,1,2.5,2.67,6,6,0,0,1-1.18,3c-5,7.41-19.26,29.19-29,29.19-8.24,0-14.41-6.37-14.41-13,0-12.3,12-20.75,12-27.72,0-1.92-.44-2.07-3.82-4.74,0,0-3.82,6.52-11,17.49C375.84,99.31,375.39,99.9,374.81,99.9Z"/></g><g class="cls-1"><path class="cls-2" d="M440.24,79c0,1.63-19.85,12.15-19.85,33.05,0,2.67.88,4.44,2.5,4.44,4.56,0,14.26-18.38,14.26-28.75,0-4.3,18.67-15.56,28.23-15.56,5.88,0,9.56,8.3,9.56,11.85,0,10.53-14.41,19.12-14.41,20s6.61,13.2,6.61,22.24c0,20.6-18.82,45.94-34.55,45.94-3.23,0-6.91-3.55-6.91-5s1.77-1.77,3.53-2.37c13.09-4.59,27.49-28.9,27.49-46.54,0-12.3-5.44-15-5.44-18.38S468.32,87,468.32,80.34a1.39,1.39,0,0,0-1.47-1.48c-6.18,0-17.64,7.41-23.23,11.11a24.21,24.21,0,0,1,.29,3.41c0,12.75-9.7,29.5-18.82,29.5-10,0-14.55-9.64-14.55-16.16,0-16.75,16-33.64,23.82-33.64C436.27,73.08,440.24,77.37,440.24,79Z"/></g><g class="cls-1"><path class="cls-2" d="M469.49,107.17c0-18.68,21.18-34.09,30.58-34.09,4.12,0,8.24,4.29,8.24,10.37,0,6.67-4.41,9.93-5.74,9.93a3.6,3.6,0,0,1-3.23-3.11c0-1.63,3.53-5,3.53-9.19-4.56,0-21.76,20.75-22.05,33.65,0,3.26,1.61,5.18,4.11,5.18,9.41,0,23.53-19.71,28.82-27.12.59-.74.88-1.19,1.32-1.19a3,3,0,0,1,2.5,2.67,5.91,5.91,0,0,1-1.18,3c-5,7.41-19.11,28-29.69,28C478.17,125.25,469.49,119,469.49,107.17Z"/><path class="cls-2" d="M542,93.83c0,10.08-16.18,30.38-28.08,30.38-6.18,0-12.06-5-12.06-14.82,0-15.12,18.23-35.13,30.73-35.13,3.38,0,6.91,3.56,6.91,5.34,0,1.33-1.18,1.93-3.53,3.11-8.82,4.45-22.79,19.71-22.79,33.65a2.49,2.49,0,0,0,2.5,2.81c5.59,0,19.7-18.82,20-31.72,0-1,.3-1.48,1-1.48C538.74,86,542,88.79,542,93.83Z"/></g></g><g id="Camada_1-2-3" data-name="Camada 1-2"><path class="cls-3" d="M103.36,125.54c-10.29,0-18.23-5.78-18.23-19C85.13,95.16,89.54,83,95.71,71a222.35,222.35,0,0,0-33.37,4.59c-30.29,41.35-40,72.78-43.52,72.78-2.79,0-7.35-4.3-7.35-11.12,0-11.86,11.91-32.9,30-55.73C20.73,88.63,9.7,96.79,7.35,96.79,4.7,96.79,0,92.19,0,89.67c0-3.11,17.64-12.6,50.14-18.53l2.2-2.66C95.12,19.27,120.41,0,131.88,0c4.12,0,10.29,5.48,10.29,11.26,0,10.82-13.23,32.91-25.58,54.7,10.73.89,14.85,4,14.85,4.89a2.35,2.35,0,0,1-2.06,2.07c-1.32,0-6-2.07-15.29-2.52C104.24,88,95.71,104.94,95.71,115c0,4,2.06,5.18,4.27,5.18,11.46,0,28.52-21.78,33.37-27.86.59-.74.88-1.19,1.32-1.19a3,3,0,0,1,2.5,2.67,6,6,0,0,1-1.17,3C131.59,103.9,113.8,125.54,103.36,125.54Zm-5-59.43c14.85-26.54,36.9-51,36.9-60a1.51,1.51,0,0,0-1.32-1.63c-5.88,0-37.49,27-65.87,63.58-.14.15-.29.3-.29.45A299.48,299.48,0,0,1,98.36,66.11Z"/><path class="cls-3" d="M135.56,130.73c-5.15,0-13.23-5.63-13.23-17.64,0-26.09,35.87-72.33,36.16-90.71,0-2.07.59-3.26,1.77-3.26s5.44,4.45,5.44,12c0,16.89-31.61,68.47-31.61,90.7,0,1.93,1,3,2.2,3,3.83,0,18.82-20,27.5-32.46.59-.74.88-1.19,1.32-1.19a3,3,0,0,1,2.5,2.67,5.91,5.91,0,0,1-1.18,3C159.82,107.75,145.56,130.73,135.56,130.73Z"/><path class="cls-3" d="M166,122.58c-6.61,0-14.11-5.49-14.11-15.42,0-10.67,9.7-18.08,18.67-33,1-1.78,1.47-3.11,2.5-3.11s3.53,2.66,3.53,5.48c-.3,12.9-13.09,26.09-13.38,37.06,0,2.51,1.32,3.26,2.5,3.26,3.82,0,18.23-17.35,23.23-24.46.59-.74.88-1.19,1.32-1.19a3,3,0,0,1,2.5,2.67,6,6,0,0,1-1.17,3C187.46,103.9,174.23,122.58,166,122.58Zm20.88-67c0,2.08-2.06,4.74-4.12,4.74-3.38,0-6.61-3.26-6.61-6.37a3.64,3.64,0,0,1,4-3.7C182.9,50.25,186.87,52,186.87,55.58Z"/><path class="cls-3" d="M214.51,122.43a11.09,11.09,0,0,1-11-11.27c0-14.67,16.18-27,16.18-30.38a1.17,1.17,0,0,0-1.33-1.33c-2.64,0-18.52,16.15-27.34,30.38-8.53,14.08-8.09,16.45-9.85,16.45-2.06,0-6.77-3.7-6.77-10.37,0-13,10.88-23.87,14.41-39,.59-2.52,1-3.12,2.06-3.12,2.06,0,7.06,3.41,7.06,9.34,0,7-4.71,14.82-4.71,14.82,2.06-1.63,18.09-25.34,28.82-25.34,7.06,0,10.58,4.74,10.58,9.48-.14,11.71-18.23,21.94-18.23,31.87a1.75,1.75,0,0,0,1.77,1.93c6.91,0,19.85-17.2,24.55-23.57.59-.74.88-1.19,1.32-1.19a3,3,0,0,1,2.5,2.67,6,6,0,0,1-1.17,3C238.92,103.75,225.24,122.43,214.51,122.43Z"/><path class="cls-3" d="M248.92,123.76c-9.12,0-17.79-5.63-17.79-17.34,0-18.68,17.93-33,28.37-33,3.68,0,8.68,5.19,8.68,9.63-.15,9.64-10.88,20.46-18.68,20.46-1.76,0-4.7-1.63-4.7-1.63a25.72,25.72,0,0,0-1.91,10.22c0,4.45,1.62,5.93,3.53,5.93,10,0,23.08-15.41,30.28-25.64.59-.74.89-1.19,1.33-1.19a3,3,0,0,1,2.5,2.67,6,6,0,0,1-1.18,3C273.91,104.79,258.62,123.76,248.92,123.76Zm-2.21-26.68c3.82,0,15.73-11.56,16-15.56,0-.59-.3-1-.74-1C260.38,80.48,254.06,84,246.71,97.08Z"/><path class="cls-3" d="M377.6,47.29c0,33.94-32.63,95.15-63.8,95.15-13.68,0-30-11.11-30-32.46,0-36.46,39-77.81,57.78-77.81,4.41,0,7.5,2.22,7.5,4,0,1.19-1.62,2.07-4.41,4-12.5,8.6-46.16,43-46.16,80.78,0,9.19,5.44,14.82,11.17,14.82,25.58,0,57.34-61.66,57.34-97.38,0-15.12-8.09-24.75-21.32-24.75-26.32,0-63.22,26.83-63.22,71A1.53,1.53,0,0,1,281,86.27c-2.65,0-9.85-7-9.85-17.79,0-36.31,44-61.36,71-61.36C363.64,7.12,377.6,22.24,377.6,47.29Z"/><path class="cls-3" d="M374.81,99.9c-.74,0-2.94-1.33-2.94-2.81,0-.6.73-1.63,1.61-3,5.74-8.59,10.15-16.6,10.15-16.6-1.33-1.78-3.68-5.93-3.68-8.59,0-7.42,6.91-15.86,10.44-15.86,2.65,0,4.71,2.81,4.71,5.63,0,4.3-3.68,11-5.74,14.52,0,4.75,11.47,11.57,11.47,18.38,0,7.27-7.35,16.75-7.35,26.09,0,1.48.88,2.22,1.76,2.22,4.56,0,19.41-19.71,24.7-27.12.59-.74.88-1.19,1.33-1.19a3,3,0,0,1,2.5,2.67,6,6,0,0,1-1.18,3c-5,7.41-19.26,29.19-29,29.19-8.24,0-14.41-6.37-14.41-13,0-12.3,12-20.75,12-27.72,0-1.92-.44-2.07-3.82-4.74,0,0-3.82,6.52-11,17.49C375.84,99.31,375.39,99.9,374.81,99.9Z"/><path class="cls-3" d="M440.24,79c0,1.63-19.85,12.15-19.85,33.05,0,2.67.88,4.44,2.5,4.44,4.56,0,14.26-18.38,14.26-28.75,0-4.3,18.67-15.56,28.23-15.56,5.88,0,9.56,8.3,9.56,11.85,0,10.53-14.41,19.12-14.41,20s6.61,13.2,6.61,22.24c0,20.6-18.82,45.94-34.55,45.94-3.23,0-6.91-3.55-6.91-5s1.77-1.77,3.53-2.37c13.09-4.59,27.49-28.9,27.49-46.54,0-12.3-5.44-15-5.44-18.38S468.32,87,468.32,80.34a1.39,1.39,0,0,0-1.47-1.48c-6.18,0-17.64,7.41-23.23,11.11a24.21,24.21,0,0,1,.29,3.41c0,12.75-9.7,29.5-18.82,29.5-10,0-14.55-9.64-14.55-16.16,0-16.75,16-33.64,23.82-33.64C436.27,73.08,440.24,77.37,440.24,79Z"/><path class="cls-3" d="M469.49,107.17c0-18.68,21.18-34.09,30.58-34.09,4.12,0,8.24,4.29,8.24,10.37,0,6.67-4.41,9.93-5.74,9.93a3.6,3.6,0,0,1-3.23-3.11c0-1.63,3.53-5,3.53-9.19-4.56,0-21.76,20.75-22.05,33.65,0,3.26,1.61,5.18,4.11,5.18,9.41,0,23.53-19.71,28.82-27.12.59-.74.88-1.19,1.32-1.19a3,3,0,0,1,2.5,2.67,5.91,5.91,0,0,1-1.18,3c-5,7.41-19.11,28-29.69,28C478.17,125.25,469.49,119,469.49,107.17Z"/><path class="cls-3" d="M542,93.83c0,10.08-16.18,30.38-28.08,30.38-6.18,0-12.06-5-12.06-14.82,0-15.12,18.23-35.13,30.73-35.13,3.38,0,6.91,3.56,6.91,5.34,0,1.33-1.18,1.93-3.53,3.11-8.82,4.45-22.79,19.71-22.79,33.65a2.49,2.49,0,0,0,2.5,2.81c5.59,0,19.7-18.82,20-31.72,0-1,.3-1.48,1-1.48C538.74,86,542,88.79,542,93.83Z"/></g></g></g></g></svg>